<svg width="231" height="107" viewBox="0 0 231 107" fill="none" xmlns="http://www.w3.org/2000/svg">
<path d="M230.784 14.1455H0.946289V92.8556H230.784V14.1455Z" fill="#FF4427"/>
<path d="M168.619 106.739H168.746C174.738 106.739 180.386 105.862 185.846 104.212C191.716 102.169 197.286 98.0756 200.646 92.9775C206.199 84.8582 211.236 69.1584 211.458 53.5197V53.4753C211.236 37.8421 206.199 22.1423 200.646 14.0175C197.28 8.91936 191.843 4.82086 185.973 2.77716C180.514 1.13332 174.616 0.255859 168.619 0.255859C162.626 0.255859 156.723 1.13332 151.269 2.77716C145.399 4.82086 139.957 8.91936 136.597 14.0175C131.043 22.1423 126.006 37.8366 125.784 53.4753V53.5197C126.001 69.1529 131.043 84.8582 136.597 92.9775C139.962 98.0756 145.399 102.157 151.269 104.201C156.723 105.851 162.499 106.745 168.496 106.745H168.624L168.619 106.739Z" fill="#6E6D5E"/>
<path d="M208.149 53.4982C208.338 65.2717 204.756 79.5664 201.291 87.1748C197.464 95.866 191.617 101.153 183.025 103.502C178.394 104.691 173.54 105.296 168.553 105.296C163.56 105.296 158.679 104.685 154.053 103.502C145.461 101.153 139.608 95.866 135.781 87.1748C132.322 79.5664 128.734 65.2772 128.928 53.4982C128.74 41.7247 132.322 27.4355 135.781 19.8272C139.608 11.1415 145.461 5.84898 154.053 3.49984C158.679 2.31694 163.56 1.70605 168.553 1.70605C173.54 1.70605 178.394 2.31694 183.025 3.49984C191.617 5.84898 197.47 11.1415 201.291 19.8272C204.756 27.4355 208.338 41.7247 208.149 53.4982Z" fill="white"/>
<path d="M168.691 14.2793C172.8 14.2793 176.91 14.8513 180.697 15.8787C184.729 17.0283 188.045 19.8106 189.711 23.5981C193.326 31.3564 195.703 42.5245 195.703 53.4983C195.703 64.4776 193.326 75.6402 189.711 83.3984C188.045 87.1859 184.735 89.9627 180.697 91.1178C176.91 92.1397 172.8 92.7172 168.691 92.7172H168.557C164.448 92.7172 160.338 92.1452 156.551 91.1178C152.519 89.9627 149.203 87.1859 147.537 83.3984C143.922 75.6402 141.545 64.472 141.545 53.4983C141.545 42.5245 143.922 31.3564 147.537 23.5981C149.203 19.8106 152.519 17.0283 156.551 15.8787C160.338 14.8569 164.442 14.2793 168.557 14.2793H168.691Z" fill="#6E6D5E"/>
<path d="M174.504 29.2614C173.932 28.2959 174.398 29.1559 173.805 28.0352L174.504 29.2614Z" fill="white"/>
<path d="M162.277 51.3984H148.698V55.347H162.277V51.3984Z" fill="white"/>
<path d="M159.203 85.5801C158.914 84.9581 158.809 84.7305 158.775 84.0918C161.624 84.0918 163.529 84.0918 166.539 84.0918C166.523 85.1692 165.912 86.2243 164.934 86.9241C163.857 87.7071 162.069 87.8793 160.875 87.2129C160.192 86.8908 159.581 86.2188 159.203 85.5746V85.5801Z" fill="white"/>
<path d="M167.583 82.4196H163.418V80.4925H167.6L168.916 78.9375C169.56 79.6817 169.599 79.7372 170.265 80.4925H174.442V82.4251H170.265V87.2123H167.589V82.414L167.583 82.4196Z" fill="white"/>
<path d="M168.078 76.4329C168.933 76.1497 170.138 75.6554 170.383 74.8279C170.322 73.5451 171.205 72.5121 171.866 71.4847C172.193 71.0349 172.238 70.7683 172.143 70.2852C173.476 70.3351 174.82 71.4458 175.331 72.6898C175.859 73.956 175.653 75.611 174.837 76.6661C173.815 77.9101 172.399 78.5599 170.738 78.2711C169.7 78.0323 168.678 77.3992 168.078 76.4274V76.4329Z" fill="white"/>
<path d="M158.059 59.117C157.315 58.7505 156.31 58.6005 155.482 58.9948C154.816 59.1781 154.116 59.9667 154.049 60.7553C154.005 63.1045 154.094 63.832 154.049 66.4144C154.005 66.8198 153.794 67.0141 153.283 67.0141C152.855 66.9919 152.539 66.7809 152.544 66.4088V60.6387C152.511 60.0278 152.406 59.428 151.978 58.9671L148.996 59.9389L148.724 60.0389C149.479 60.5998 149.834 60.6165 149.895 61.5439V68.9245L149.934 69.3133L150.04 69.5687L150.123 69.802L150.229 69.9964C150.717 70.785 151.55 71.1071 152.133 71.2515C152.389 71.3292 152.839 71.3681 153.1 71.3681C153.872 71.3681 154.605 71.3181 155.393 70.7683C156.621 69.8076 156.354 68.1248 156.382 65.6757C156.393 64.9871 156.437 64.6039 156.865 64.2096C157.226 63.9375 157.72 63.8542 158.181 63.9541C158.703 64.093 158.787 64.1374 159.309 64.4817C159.32 62.3714 159.386 59.7668 158.065 59.1337L158.059 59.117Z" fill="white"/>
<path d="M185.761 68.3758C183.578 66.2321 179.808 63.2443 179.502 61.9781C179.175 61.1229 179.28 60.101 179.263 59.1125C179.891 58.6182 180.419 58.185 181.174 57.5908C181.118 59.1014 180.902 60.6342 181.635 61.5338C183.412 63.3109 185.033 64.9104 186.638 66.482C187.238 67.1318 187.71 68.0537 187.322 68.9089C187.133 69.3143 186.877 69.7808 186.605 70.1529C186.605 69.3199 186.239 68.8478 185.767 68.3758H185.761Z" fill="white"/>
<path d="M173.414 57.4955C175.075 57.4677 175.614 57.5177 177.346 57.4844V69.1412H173.403L173.42 57.4955H173.414Z" fill="white"/>
<path d="M182.234 58.5775C182.651 58.1166 182.801 57.9444 183.29 57.4668L184.284 58.6608V61.9763C185.683 61.2932 185.339 59.3106 185.339 57.589C186.172 58.2665 186.588 58.6497 187.388 59.3994C187.838 61.382 186.644 62.515 185.75 63.9033L182.234 60.5434V58.5831V58.5775Z" fill="white"/>
<path d="M185.438 49.6601L185.966 47.4387L187.688 47.1832V41.6741C187.016 41.7741 186.743 41.8463 186.205 41.9074V37.7256C185.3 37.9144 184.344 38.2365 183.389 38.4587V45.3894C183.378 45.7227 182.845 45.8393 182.734 45.8337H182.589C182.245 45.8337 181.906 45.6005 181.906 45.3617V38.6863L179.152 39.0418V41.8574C178.18 43.8345 176.747 45.6282 175.348 47.4387C176.83 47.5387 176.942 47.5387 178.419 47.6775L179.33 49.6601H185.444H185.438Z" fill="white"/>
<path d="M154.109 48.2871C154.065 46.4655 153.987 45.2715 153.948 43.4777C154.509 43.3222 155.059 43.6832 155.498 44.0053C155.425 46.2933 155.425 46.2711 155.381 48.6703H154.12L154.109 48.2871Z" fill="white"/>
<path d="M153.866 37.8145C153.566 36.0207 153.544 35.8874 153.372 34.5768H152.228V33.3105C154.205 33.3105 155.299 33.3105 157.276 33.3105V34.5712H156.104L155.587 38.7974C155.076 38.3365 154.493 38.0144 153.866 37.8089V37.8145Z" fill="white"/>
<path d="M153.66 32.4101C151.977 30.5996 151.85 27.8839 152.177 25.4237V25.4126C152.494 26.3289 153.066 26.9787 153.977 27.4063C153.877 26.9287 153.449 26.4844 153.31 25.9735C152.916 24.985 152.949 23.5688 153.599 22.6969C154.06 22.0139 154.721 21.7306 155.443 21.5029C155.171 22.3193 155.087 23.3078 155.421 24.1409C155.893 23.7743 155.915 23.7466 156.287 23.3967C156.426 23.2634 156.492 23.2134 156.609 23.1301C157.281 24.5629 158.047 26.5455 157.603 28.2171L157.325 28.9446C157.22 27.7617 157.031 27.1953 156.237 26.7621C156.137 27.4508 156.576 27.945 156.681 28.8447C157.003 30.2386 156.748 31.6048 155.887 32.4101H153.666H153.66Z" fill="white"/>
<path d="M174.503 29.2621L172.759 31.1733C172.292 30.7233 172.248 30.6733 171.775 30.1844C172.67 29.2454 172.764 29.1454 173.803 28.0342" fill="white"/>
<path d="M176.78 24.6134C177.141 22.9584 177.325 21.0535 179.146 20.3594C179.829 20.165 180.768 20.2594 181.345 20.7703C182.128 21.3312 182.356 22.2864 182.167 23.175C181.623 25.0965 179.485 25.4575 177.747 25.9184L176.786 24.6134H176.78Z" fill="white"/>
<path d="M188.842 51.3975V55.3682L175.258 55.346V51.3975H188.842Z" fill="white"/>
<path d="M156.048 77.9215C155.504 75.4113 158.525 74.5117 159.241 72.4291C159.802 68.947 159.975 65.2817 162.396 62.566C162.635 57.4457 164.29 52.9251 167.927 49.2043C167.755 48.0602 167.277 47.055 166.939 45.9777C166.461 45.961 166.139 45.8721 165.711 45.4834C165.395 45.0391 165.267 44.7115 165.184 44.1672C163.918 45.7389 162.346 47.4938 160.624 48.5545C160.308 48.7322 159.902 48.3601 159.33 47.8214C157.214 46.1498 156.859 42.3623 153.632 42.5345C152.166 42.0402 152.233 40.3131 151.994 39.0191C152.538 38.6248 153.421 38.647 154.077 38.9025C156.087 39.9798 157.431 42.2457 159.33 43.7674C159.841 44.1728 160.297 44.7059 160.769 44.9003C162.018 43.8284 163.018 42.9066 163.862 41.2405C164.451 40.302 165.423 39.891 166.5 39.8743L167.266 38.9691L166.855 36.7144C166.072 35.7092 165.423 34.654 164.895 33.5267C165.167 32.2327 165.339 30.7277 166.655 30.0113C167.511 29.4837 168.21 30.6944 168.905 29.928C169.416 29.8169 169.854 29.9613 170.215 30.2501C170.743 31.172 171.376 32.0938 171.415 33.1657C171.087 34.2097 170.598 35.1816 170.099 36.1535C169.982 36.3756 169.688 36.4423 169.482 36.5978C169.599 37.042 169.699 37.5363 170.01 37.8751C170.399 37.9584 170.765 38.025 171.237 37.9417C171.609 36.7977 172.842 36.2868 173.864 35.9813L176.113 34.5152C175.758 32.8103 176.846 31.3052 176.235 29.6003C174.952 29.0061 174.586 27.5455 174.308 26.4126C174.508 25.6962 174.864 24.9465 175.374 24.3467L175.452 24.43C176.68 25.8628 177.807 27.3289 178.196 29.106C178.418 31.3719 178.64 33.6988 178.484 36.0702C177.274 37.2808 175.808 37.9972 174.425 38.9025L173.403 40.8629C173.281 42.8955 172.687 44.7226 172.381 46.683C173.253 49.0543 174.286 52.2143 173.525 54.4135C172.948 55.7241 171.709 56.4349 170.793 57.1569L168.494 59.0007C170.804 61.5497 170.249 64.4431 170.349 68.1362C170.326 69.0303 171.926 69.7745 171.07 70.7908C170.36 71.9293 169.243 72.8512 169.432 74.3562C168.727 75.5446 167.028 75.8001 166.233 75.789C166.061 75.8001 165.922 75.6723 165.922 75.4946C166.095 74.8782 166.572 74.4061 166.828 73.823C167.644 72.5624 167.272 70.8186 168.294 69.6412C167.45 66.8978 166.178 64.3487 165.839 61.4165L165.811 61.2387C165.128 62.5827 165.5 63.9044 165.861 64.9596C163.59 67.8252 161.13 70.5798 161.13 74.3506C160.158 76.0722 158.775 77.6438 158.059 79.471C157.809 79.7708 157.364 79.5043 157.087 79.3488C156.437 78.9212 156.287 78.5046 156.065 77.916L156.048 77.9215Z" fill="white"/>
<path d="M180.98 65.5542C183.162 67.6978 186.933 70.6856 187.244 71.9518C187.566 72.8071 187.466 73.8289 187.483 74.8174C186.855 75.3117 186.333 75.7449 185.572 76.3336C185.628 74.823 185.839 73.2902 185.112 72.3906C183.329 70.6134 181.718 69.014 180.113 67.4424C179.519 66.7982 179.036 65.8707 179.43 65.021C179.619 64.6101 179.869 64.1491 180.147 63.7715C180.147 64.6045 180.508 65.0821 180.985 65.5486L180.98 65.5542Z" fill="white"/>
<path d="M184.506 75.3499C184.089 75.8109 183.939 75.9775 183.445 76.4551L182.457 75.2611V71.9456C181.057 72.6287 181.401 74.6113 181.401 76.3329C180.568 75.6554 180.152 75.2722 179.352 74.5225C178.908 72.5399 180.096 71.4069 180.99 70.0186L184.506 73.3784V75.3444V75.3499Z" fill="white"/>
<path d="M178.63 85.5801C178.919 84.9581 179.024 84.7305 179.057 84.0918C176.209 84.0918 174.304 84.0918 171.288 84.0918C171.305 85.1692 171.921 86.2243 172.893 86.9241C173.97 87.7071 175.759 87.8793 176.953 87.2129C177.636 86.8908 178.247 86.2188 178.624 85.5746L178.63 85.5801Z" fill="white"/>
<path d="M169.989 102.518C169.95 100.364 172.061 99.2751 173.388 97.8423C173.749 97.498 173.882 96.8149 173.621 96.2484C173.466 95.893 173.233 95.7208 172.944 95.6486C172.477 95.5376 172.083 95.6098 171.789 95.8708C171.372 96.254 171.261 96.7482 171.278 97.2869L169.812 97.3758C169.684 96.5594 169.878 95.7653 170.378 95.1488C171.067 94.4158 172.1 94.2047 173.11 94.2714C173.916 94.3991 174.849 94.8934 175.182 95.7319C175.604 96.6427 175.465 97.809 174.788 98.5809C173.916 99.5083 172.777 100.014 172.061 101.058L175.787 100.841C175.815 101.302 175.843 101.746 175.865 102.168L169.989 102.518Z" fill="#6E6D5E"/>
<path d="M156.767 93.2046L156.745 93.2768L154.318 100.713L152.768 100.208L154.434 95.1095L154.462 95.0206C153.846 94.804 153.101 94.593 152.496 94.3764L152.813 93.4156C153.596 93.6211 154.407 93.7544 155.09 93.1879C155.34 92.9936 155.378 92.938 155.512 92.7881L156.767 93.199V93.2046Z" fill="#6E6D5E"/>
<path d="M186.25 97.3313C186.056 96.5983 185.65 96.0096 184.829 95.7764L184.357 95.6708C184.84 95.3265 185.29 94.6379 185.123 93.9659C185.012 93.1995 184.456 92.7108 183.762 92.4442C183.157 92.261 182.441 92.2887 181.763 92.4665C181.08 92.622 180.436 92.9274 179.98 93.3717C179.492 93.9326 179.225 94.6212 179.481 95.3543C179.647 96.0263 180.369 96.4261 180.952 96.5039L180.586 96.8149C179.964 97.4035 179.886 98.1144 180.053 98.853C180.236 99.6749 180.897 100.319 181.702 100.558C182.307 100.713 183.046 100.708 183.751 100.536C184.456 100.358 185.112 100.025 185.578 99.6027C186.178 99.0196 186.467 98.1422 186.245 97.3258L186.25 97.3313ZM181.13 95.2043C180.947 94.8822 180.941 94.338 181.274 94.0159C181.463 93.816 181.746 93.666 182.046 93.5938C182.346 93.5161 182.663 93.5161 182.924 93.6049C183.362 93.7382 183.618 94.2214 183.601 94.5935C183.601 94.8822 183.462 95.1099 183.279 95.2876C183.09 95.4543 182.824 95.5764 182.546 95.6375C182.268 95.7153 181.98 95.7264 181.73 95.6653C181.485 95.5931 181.263 95.4543 181.124 95.1988L181.13 95.2043ZM184.384 98.7919C184.184 99.0252 183.829 99.1973 183.451 99.2917C183.074 99.3861 182.674 99.3973 182.391 99.2806C182.007 99.1362 181.741 98.8363 181.646 98.492C181.496 97.9811 181.646 97.448 182.085 97.137C182.268 97.0092 182.541 96.8815 182.835 96.7982C183.135 96.7316 183.435 96.7149 183.657 96.7482C184.19 96.8149 184.573 97.2258 184.673 97.7423C184.745 98.0866 184.651 98.4809 184.379 98.7808L184.384 98.7919Z" fill="#6E6D5E"/>
<path d="M166.135 100.126C166.168 99.3704 165.957 98.6874 165.241 98.2153L164.824 97.9765C165.385 97.7932 166.018 97.2657 166.062 96.577C166.185 95.8106 165.796 95.1775 165.218 94.7166C164.691 94.3612 164.002 94.1779 163.302 94.1446C162.603 94.089 161.897 94.189 161.331 94.4778C160.698 94.8665 160.237 95.4441 160.265 96.2216C160.226 96.9102 160.792 97.51 161.331 97.7599L160.887 97.9432C160.12 98.3208 159.831 98.9761 159.77 99.7314C159.704 100.576 160.142 101.386 160.837 101.847C161.37 102.181 162.075 102.392 162.803 102.43C163.53 102.475 164.258 102.353 164.824 102.086C165.568 101.703 166.101 100.959 166.135 100.115V100.126ZM161.881 96.5715C161.803 96.2049 161.958 95.6885 162.375 95.4774C162.619 95.3386 162.93 95.283 163.236 95.3053C163.541 95.3219 163.847 95.4163 164.069 95.5774C164.452 95.8384 164.546 96.3715 164.424 96.7214C164.335 96.9991 164.141 97.1712 163.913 97.2879C163.68 97.3934 163.391 97.4267 163.108 97.4045C162.819 97.3934 162.542 97.3212 162.319 97.1879C162.108 97.0491 161.936 96.8491 161.881 96.5659V96.5715ZM163.919 100.964C163.663 101.125 163.269 101.192 162.88 101.164C162.486 101.142 162.108 101.031 161.87 100.842C161.547 100.592 161.386 100.22 161.392 99.8703C161.403 99.3427 161.703 98.8706 162.214 98.7096C162.43 98.6429 162.725 98.5985 163.03 98.6152C163.336 98.6374 163.624 98.7151 163.83 98.8095C164.319 99.0317 164.557 99.537 164.507 100.059C164.474 100.409 164.269 100.759 163.919 100.964Z" fill="#6E6D5E"/>
<path d="M200.521 23.1172L193.279 26.2402L193.93 27.7497L201.172 24.6266L200.521 23.1172Z" fill="#6E6D5E"/>
<path d="M173.883 12.0961L172.022 3.98242L173.738 4.15458C174.083 6.16496 174.438 8.4419 174.844 10.1357C175.577 8.55853 176.388 6.3982 177.126 4.4989L178.814 4.67106L175.382 12.2516L173.883 12.1017V12.0961Z" fill="#6E6D5E"/>
<path d="M143.078 16.7441L141.318 19.893L139.835 19.06L141.851 15.4502L140.707 14.8115L137.886 19.8708L144.772 23.7138L147.599 18.6546L146.455 18.0215L144.433 21.6424L142.506 20.5594L144.272 17.405L143.078 16.7441Z" fill="#6E6D5E"/>
<path d="M138.895 50.2546C138.523 49.4105 137.612 49.0717 136.668 49.1161C135.868 49.205 135.269 49.7492 134.93 50.5712C134.808 50.088 134.363 49.4827 133.603 49.3938C132.814 49.2939 132.059 49.5104 131.676 50.1824C131.153 50.8488 131.381 53.7811 131.326 55.4749H139.162V54.8918C139.117 51.7763 139.295 51.4042 138.89 50.2546H138.895ZM134.452 53.8255H132.52C132.575 52.0151 132.275 51.0543 133.386 50.9321C134.041 50.8822 134.225 51.0321 134.369 51.4264C134.491 51.8318 134.458 52.2594 134.452 53.8311V53.8255ZM137.857 53.82H135.657H135.641C135.68 52.0651 135.407 51.0377 136.446 50.8322C136.813 50.7378 137.262 50.7711 137.529 51.0432C137.973 51.4708 137.834 52.1872 137.851 53.8144L137.857 53.82Z" fill="#6E6D5E"/>
<path d="M201.239 29.0008L202.494 28.6787L204.077 34.8487L202.828 35.1708L202.239 32.8883L195.908 34.5155L195.497 32.9272L201.828 31.2944L201.239 29.0008Z" fill="#6E6D5E"/>
<path d="M161.427 12.5516C160.55 12.696 159.65 12.6127 158.922 12.1684C158.295 11.8019 158.073 11.3354 157.956 10.7578L157.051 5.12656L158.656 4.87109L159.567 10.5024C159.661 10.9633 160.066 11.2521 160.494 11.3354C160.733 11.3965 160.994 11.3909 161.249 11.3465" fill="#6E6D5E"/>
<path d="M161.45 12.5458C162.327 12.4125 163.16 12.046 163.71 11.3962C164.188 10.852 164.254 10.3355 164.188 9.75237L163.283 4.12109L161.678 4.37656L162.577 10.0134C162.638 10.4355 162.338 10.8742 161.961 11.0908C161.755 11.224 161.505 11.3018 161.25 11.3351" fill="#6E6D5E"/>
<path d="M204.881 40.1741L196.689 38.5303L196.912 40.1297L198.694 40.4573L199.089 43.2785L197.467 44.0838L197.689 45.6832L205.114 41.8568L204.881 40.1797V40.1741ZM200.321 42.6621L200.049 40.7184L203.454 41.2348H203.465H203.448L200.321 42.6621Z" fill="#6E6D5E"/>
<path d="M203.693 53.7254L203.843 53.6977L204.021 53.6477L204.148 53.6032C204.67 53.32 204.793 52.6258 204.765 52.0649C204.743 51.4929 204.57 50.9153 204.032 50.7099C203.754 50.6321 203.404 50.6099 203.221 50.8931C202.332 52.2093 202.949 55.0027 200.655 55.4914C199.655 55.6581 198.778 55.2249 198.262 54.4252C197.545 53.1534 197.49 51.1653 198.306 49.9379C198.8 49.2937 199.467 48.905 200.266 48.8994L200.361 50.41C199.867 50.4766 199.383 50.7265 199.161 51.2097C198.828 51.9983 198.911 53.2589 199.489 53.7254C199.7 53.9642 200.194 53.9365 200.461 53.7921C201.372 53.1368 201.188 51.5096 201.644 50.4155C201.799 49.9546 202.227 49.477 202.66 49.2437C203.465 48.8994 204.504 49.0216 205.153 49.6658C206.203 50.6543 206.253 52.5981 205.764 53.7754C205.492 54.5918 204.604 55.1916 203.682 55.2471L203.587 53.731H203.704L203.693 53.7254Z" fill="#6E6D5E"/>
<path d="M140.233 41.8298C140.105 42.7073 139.744 43.5403 139.094 44.0956C138.556 44.5788 138.039 44.6454 137.456 44.5788L131.819 43.6958L132.069 42.0908L137.706 42.9683C138.178 43.0238 138.567 42.7239 138.783 42.3463C138.917 42.1353 138.994 41.8909 139.028 41.6299" fill="#6E6D5E"/>
<path d="M140.233 41.8133C140.378 40.9358 140.289 40.0361 139.845 39.3086C139.478 38.6866 139.006 38.4645 138.428 38.3479L132.792 37.4648L132.536 39.0698L138.173 39.9584C138.595 40.0306 138.917 40.4526 139.006 40.8803C139.067 41.1191 139.062 41.3801 139.017 41.6355" fill="#6E6D5E"/>
<path d="M148.981 8.11395L147.531 8.99141L149.264 17.1606L150.641 16.3221L150.236 14.556L152.668 13.0788L154.051 14.2506L155.428 13.412L148.975 8.1084L148.981 8.11395ZM149.941 13.2176L149.07 9.89108V9.87997H149.081L151.63 12.1902L149.953 13.2121L149.941 13.2176Z" fill="#6E6D5E"/>
<path d="M187.251 10.6788L183.925 9.28486L184.58 7.71877L188.401 9.31263L188.906 8.10752L183.558 5.875L180.515 13.1501L185.863 15.3826L186.368 14.1775L182.542 12.5781L183.391 10.5455L186.729 11.9394L187.251 10.6788Z" fill="#6E6D5E"/>
<path d="M139.245 28.1513C139.245 27.607 139.212 27.1572 138.762 26.724C138.329 26.2742 137.64 26.0687 136.963 26.1187C135.208 26.3908 134.975 28.4067 134.003 31.5944L141.556 33.8436L142.022 32.272L139.04 31.3834L138.918 31.3445C139.123 30.617 139.412 29.7007 139.556 29.5008C140.101 28.2512 142.1 29.4786 142.894 29.3564L143.361 27.7958C142.011 27.868 140.201 26.6629 139.245 28.1513ZM137.674 30.978L135.697 30.3893C136.124 29.0398 136.319 27.6848 137.268 27.7681C137.652 27.8292 137.913 27.9291 138.135 28.2068C138.501 28.6677 138.029 29.6729 137.674 30.978Z" fill="#6E6D5E"/>
<path d="M194.347 12.457L188.088 17.2386L189.082 18.5437L191.559 16.6555L191.664 16.5777C192.131 17.172 192.703 17.9495 192.775 18.1827C193.469 19.3545 191.298 20.2542 190.931 20.965L191.92 22.259C192.653 21.1205 194.691 20.3708 194.052 18.7214C194.491 19.038 194.88 19.2768 195.485 19.1712C196.102 19.0824 196.679 18.6548 197.035 18.0716C197.845 16.4944 196.352 15.1172 194.347 12.457ZM195.524 17.3497C195.252 17.6218 195.013 17.7718 194.658 17.794C194.069 17.8217 193.536 16.8443 192.692 15.7891L194.33 14.5396C195.163 15.6781 196.152 16.6333 195.524 17.3497Z" fill="#6E6D5E"/>
</svg>
