<?xml version="1.0" encoding="utf-8"?><svg viewBox="0 0 50 50" xmlns="http://www.w3.org/2000/svg" xmlns:xlink="http://www.w3.org/1999/xlink"><style>:root>svg{display:none}:root>svg:target{display:block}</style><svg fill="none" viewBox="0 0 14 9" id="arrow" xmlns="http://www.w3.org/2000/svg"><path d="M7.282 8.946.563 2.192 1.845.903 7.282 6.37 12.719.903 14 2.192 7.282 8.946Z" fill="#0F0049"/></svg><svg viewBox="0 0 14 9" id="arrow-fill" xmlns="http://www.w3.org/2000/svg"><path d="M7.282 8.946.563 2.192 1.845.903 7.282 6.37 12.719.903 14 2.192 7.282 8.946Z"/></svg><svg viewBox="0 0 50 50" id="check" xmlns="http://www.w3.org/2000/svg"><path d="M42.875 8.625a.88.88 0 0 0-.094.031 1.011 1.011 0 0 0-.625.469L21.72 40.813 7.656 28.124a.997.997 0 0 0-1.773.473.998.998 0 0 0 .46.996l14.907 13.5a.999.999 0 0 0 1.5-.219l21.094-32.688a1 1 0 0 0-.969-1.562Z"/></svg><svg fill="none" viewBox="0 0 25 25" id="close" xmlns="http://www.w3.org/2000/svg"><path d="m19.621 5.378-13.83 13.83M19.621 19.209 5.791 5.379" stroke="#1A1A1A" stroke-width="1.537" stroke-linecap="round" stroke-linejoin="round"/></svg><svg fill="none" viewBox="0 0 14 19" id="facebook" xmlns="http://www.w3.org/2000/svg"><g clip-path="url(#ea)"><path d="M11.308 1.395H8.946A3.835 3.835 0 0 0 6.16 2.612 4.276 4.276 0 0 0 5.008 5.55v2.494H2.646v3.325h2.362v6.65h3.15v-6.65h2.363l.787-3.325h-3.15V5.55c0-.22.083-.432.23-.588a.767.767 0 0 1 .558-.243h2.362V1.395Z" stroke="#fff" stroke-linecap="round" stroke-linejoin="round"/></g><defs><clipPath id="ea"><path fill="#fff" transform="translate(0 .752)" d="M0 0h14v18H0z"/></clipPath></defs></svg><svg fill="none" viewBox="0 0 18 19" id="instagram" xmlns="http://www.w3.org/2000/svg"><g clip-path="url(#fa)"><path d="M13.546 5.505h.008M5.277 1.96h7.875a3.937 3.937 0 0 1 3.938 3.937v7.875a3.937 3.937 0 0 1-3.938 3.938H5.277a3.937 3.937 0 0 1-3.937-3.938V5.898a3.938 3.938 0 0 1 3.937-3.937Zm7.088 7.379a3.15 3.15 0 1 1-6.231.924 3.15 3.15 0 0 1 6.23-.924Z" stroke="#fff" stroke-linecap="round" stroke-linejoin="round"/></g><defs><clipPath id="fa"><path fill="#fff" transform="translate(0 .752)" d="M0 0h18v18H0z"/></clipPath></defs></svg><svg fill="none" viewBox="0 0 20 19" id="linkedin" xmlns="http://www.w3.org/2000/svg"><g clip-path="url(#ga)" stroke="#fff" stroke-linecap="round" stroke-linejoin="round"><path d="M13.889 6.49c1.392 0 2.727.527 3.712 1.466a4.887 4.887 0 0 1 1.538 3.537v5.837h-3.5v-5.837c0-.442-.185-.866-.513-1.179a1.795 1.795 0 0 0-1.237-.488c-.464 0-.91.175-1.238.488a1.629 1.629 0 0 0-.512 1.18v5.836h-3.5v-5.837c0-1.327.553-2.6 1.537-3.537A5.384 5.384 0 0 1 13.89 6.49ZM5.139 7.323h-3.5V17.33h3.5V7.323ZM3.389 4.823c.966 0 1.75-.747 1.75-1.668 0-.921-.784-1.668-1.75-1.668-.967 0-1.75.747-1.75 1.668 0 .921.783 1.668 1.75 1.668Z"/></g><defs><clipPath id="ga"><path fill="#fff" transform="translate(0 .752)" d="M0 0h20v18H0z"/></clipPath></defs></svg><svg fill="none" viewBox="0 0 16 16" id="list" xmlns="http://www.w3.org/2000/svg"><path d="M14.667 7.386V8a6.666 6.666 0 1 1-3.953-6.093m3.953.76L8.001 9.34l-2-2" stroke="#285582" stroke-width="2" stroke-linecap="round" stroke-linejoin="round"/></svg><svg fill="none" viewBox="0 0 19 16" id="quote" xmlns="http://www.w3.org/2000/svg"><path d="m5.453.925 2.483.858-2.483 6.005c1.806.361 3.025 1.806 3.025 3.702 0 2.167-1.67 3.748-3.928 3.748S.667 13.658.667 11.49c0-.993.316-1.941.948-3.07L5.453.925Zm9.753 0 2.483.858-2.483 6.005c1.806.361 3.025 1.806 3.025 3.702 0 2.167-1.626 3.748-3.883 3.748-2.303 0-3.928-1.58-3.928-3.748 0-.993.316-1.941.948-3.07L15.206.925Z" fill="#0096FE"/></svg><svg fill="none" viewBox="0 0 20 15" id="youtube" xmlns="http://www.w3.org/2000/svg"><g clip-path="url(#ja)" stroke="#fff" stroke-linecap="round" stroke-linejoin="round"><path d="M18.631 3.616a2.14 2.14 0 0 0-.574-.982 2.303 2.303 0 0 0-1.014-.575C15.634 1.73 10 1.73 10 1.73s-5.634 0-7.043.359a2.302 2.302 0 0 0-1.014.576 2.139 2.139 0 0 0-.575.981 21.51 21.51 0 0 0-.376 4.12c-.01 1.392.117 2.782.376 4.152.108.358.31.684.588.946.279.262.623.45 1.001.55 1.409.357 7.043.357 7.043.357s5.634 0 7.043-.358a2.303 2.303 0 0 0 1.014-.576 2.14 2.14 0 0 0 .575-.982 21.5 21.5 0 0 0 .376-4.088 21.501 21.501 0 0 0-.377-4.152Z"/><path d="m8.228 10.365 4.708-2.547-4.708-2.547v5.094Z"/></g><defs><clipPath id="ja"><path fill="#fff" transform="translate(0 .752)" d="M0 0h20v14H0z"/></clipPath></defs></svg></svg>