<?xml version="1.0" encoding="utf-8"?><svg viewBox="0 0 50 50" xmlns="http://www.w3.org/2000/svg" xmlns:xlink="http://www.w3.org/1999/xlink"><style>:root>svg{display:none}:root>svg:target{display:block}</style><svg fill="none" viewBox="0 0 14 9" id="arrow" xmlns="http://www.w3.org/2000/svg"><path d="M7.282 8.946.563 2.192 1.845.903 7.282 6.37 12.719.903 14 2.192 7.282 8.946Z" fill="#0F0049"/></svg><svg viewBox="0 0 14 9" id="arrow-fill" xmlns="http://www.w3.org/2000/svg"><path d="M7.282 8.946.563 2.192 1.845.903 7.282 6.37 12.719.903 14 2.192 7.282 8.946Z"/></svg><svg viewBox="0 0 50 50" id="check" xmlns="http://www.w3.org/2000/svg"><path d="M42.875 8.625a.88.88 0 0 0-.094.031 1.011 1.011 0 0 0-.625.469L21.72 40.813 7.656 28.124a.997.997 0 0 0-1.773.473.998.998 0 0 0 .46.996l14.907 13.5a.999.999 0 0 0 1.5-.219l21.094-32.688a1 1 0 0 0-.969-1.562Z"/></svg><svg fill="none" viewBox="0 0 25 25" id="close" xmlns="http://www.w3.org/2000/svg"><path d="m19.621 5.378-13.83 13.83M19.621 19.209 5.791 5.379" stroke="#1A1A1A" stroke-width="1.537" stroke-linecap="round" stroke-linejoin="round"/></svg><svg fill="none" viewBox="0 0 16 16" id="list" xmlns="http://www.w3.org/2000/svg"><path d="M14.667 7.386V8a6.666 6.666 0 1 1-3.953-6.093m3.953.76L8.001 9.34l-2-2" stroke="#285582" stroke-width="2" stroke-linecap="round" stroke-linejoin="round"/></svg><svg fill="none" viewBox="0 0 19 16" id="quote" xmlns="http://www.w3.org/2000/svg"><path d="m5.453.925 2.483.858-2.483 6.005c1.806.361 3.025 1.806 3.025 3.702 0 2.167-1.67 3.748-3.928 3.748S.667 13.658.667 11.49c0-.993.316-1.941.948-3.07L5.453.925Zm9.753 0 2.483.858-2.483 6.005c1.806.361 3.025 1.806 3.025 3.702 0 2.167-1.626 3.748-3.883 3.748-2.303 0-3.928-1.58-3.928-3.748 0-.993.316-1.941.948-3.07L15.206.925Z" fill="#0096FE"/></svg></svg>