<?xml version="1.0" encoding="utf-8"?><svg viewBox="0 0 50 50" xmlns="http://www.w3.org/2000/svg" xmlns:xlink="http://www.w3.org/1999/xlink"><style>:root>svg{display:none}:root>svg:target{display:block}</style><svg fill="none" viewBox="0 0 14 9" id="arrow" xmlns="http://www.w3.org/2000/svg"><path d="M7.282 8.946.563 2.192 1.845.903 7.282 6.37 12.719.903 14 2.192 7.282 8.946Z" fill="#0F0049"/></svg><svg viewBox="0 0 14 9" id="arrow-fill" xmlns="http://www.w3.org/2000/svg"><path d="M7.282 8.946.563 2.192 1.845.903 7.282 6.37 12.719.903 14 2.192 7.282 8.946Z"/></svg><svg fill="none" viewBox="0 0 25 25" id="arrow2" xmlns="http://www.w3.org/2000/svg"><path d="m7.667 17.42 10-10M7.667 7.42h10v10" stroke="#1875A6" stroke-width="2" stroke-linecap="round" stroke-linejoin="round"/></svg><svg fill="none" viewBox="0 0 25 25" id="arrow2-str" xmlns="http://www.w3.org/2000/svg"><path d="m7.667 17.42 10-10M7.667 7.42h10v10"/></svg><svg fill="none" viewBox="0 0 18 18" id="arrow3" xmlns="http://www.w3.org/2000/svg"><path d="M3.071 8.976h12.165M10.26 4l4.976 4.976-4.977 4.976" stroke="#2798D5" stroke-width="1.106" stroke-linecap="round" stroke-linejoin="round"/></svg><svg viewBox="0 0 50 50" id="check" xmlns="http://www.w3.org/2000/svg"><path d="M42.875 8.625a.88.88 0 0 0-.094.031 1.011 1.011 0 0 0-.625.469L21.72 40.813 7.656 28.124a.997.997 0 0 0-1.773.473.998.998 0 0 0 .46.996l14.907 13.5a.999.999 0 0 0 1.5-.219l21.094-32.688a1 1 0 0 0-.969-1.562Z"/></svg><svg fill="none" viewBox="0 0 16 16" id="check2" xmlns="http://www.w3.org/2000/svg"><path d="M7.973 13.522a5.523 5.523 0 1 0 0-11.045 5.523 5.523 0 0 0 0 11.045Z" stroke="#2798D5" stroke-width=".92" stroke-miterlimit="10"/><path d="m10.654 6.532-3.07 3.301-2.222-2.222" stroke="#2798D5" stroke-width=".92" stroke-linecap="round" stroke-linejoin="round"/></svg><svg fill="none" viewBox="0 0 7 6" id="check3" xmlns="http://www.w3.org/2000/svg"><path d="m6.293 1.35-3.071 3.3L1 2.43" stroke="#2798D5" stroke-width=".92" stroke-linecap="round" stroke-linejoin="round"/></svg><svg fill="none" viewBox="0 0 25 25" id="close" xmlns="http://www.w3.org/2000/svg"><path d="m19.621 5.378-13.83 13.83M19.621 19.209 5.791 5.379"/></svg><svg fill="none" viewBox="0 0 35 36" id="discord" xmlns="http://www.w3.org/2000/svg"><path d="M13.125 21.877a1.64 1.64 0 1 0 0-3.281 1.64 1.64 0 0 0 0 3.281ZM21.875 21.877a1.64 1.64 0 1 0 0-3.281 1.64 1.64 0 0 0 0 3.281Z" fill="#fff"/><path d="M10.172 11.486a23.911 23.911 0 0 1 7.328-1.093c2.485-.019 4.957.35 7.328 1.093M24.828 24.611a23.911 23.911 0 0 1-7.328 1.094 23.911 23.911 0 0 1-7.328-1.094" stroke="#fff" stroke-width="2" stroke-linecap="round" stroke-linejoin="round"/><path d="m21.191 25.445 1.655 3.282a1.067 1.067 0 0 0 1.23.574c3.35-.82 6.248-2.242 8.354-4.074a1.108 1.108 0 0 0 .328-1.149L28.123 8.602a1.053 1.053 0 0 0-.643-.698 24.121 24.121 0 0 0-4.046-1.258 1.107 1.107 0 0 0-1.286.725l-1.08 3.268M13.808 25.445l-1.654 3.282a1.067 1.067 0 0 1-1.23.574c-3.35-.82-6.248-2.242-8.354-4.074a1.108 1.108 0 0 1-.328-1.149L6.877 8.602a1.053 1.053 0 0 1 .642-.698 24.117 24.117 0 0 1 4.047-1.258 1.107 1.107 0 0 1 1.285.725l1.08 3.268" stroke="#fff" stroke-width="2" stroke-linecap="round" stroke-linejoin="round"/><path d="M13.125 21.877a1.64 1.64 0 1 0 0-3.281 1.64 1.64 0 0 0 0 3.281ZM21.875 21.877a1.64 1.64 0 1 0 0-3.281 1.64 1.64 0 0 0 0 3.281Z" fill="#fff"/><path d="M10.172 11.486a23.911 23.911 0 0 1 7.328-1.093c2.485-.019 4.957.35 7.328 1.093M24.828 24.611a23.911 23.911 0 0 1-7.328 1.094 23.911 23.911 0 0 1-7.328-1.094" stroke="#fff" stroke-width="2" stroke-linecap="round" stroke-linejoin="round"/><path d="m21.191 25.445 1.655 3.282a1.067 1.067 0 0 0 1.23.574c3.35-.82 6.248-2.242 8.354-4.074a1.108 1.108 0 0 0 .328-1.149L28.123 8.602a1.053 1.053 0 0 0-.643-.698 24.121 24.121 0 0 0-4.046-1.258 1.107 1.107 0 0 0-1.286.725l-1.08 3.268M13.808 25.445l-1.654 3.282a1.067 1.067 0 0 1-1.23.574c-3.35-.82-6.248-2.242-8.354-4.074a1.108 1.108 0 0 1-.328-1.149L6.877 8.602a1.053 1.053 0 0 1 .642-.698 24.117 24.117 0 0 1 4.047-1.258 1.107 1.107 0 0 1 1.285.725l1.08 3.268" stroke="#fff" stroke-width="2" stroke-linecap="round" stroke-linejoin="round"/></svg><svg fill="none" viewBox="0 0 19 20" id="down" xmlns="http://www.w3.org/2000/svg"><path d="M9.5 2.925v11.202M4.193 8.82 9.5 14.127l5.306-5.307M3.015 16.485h12.97" stroke="#fff" stroke-width="1.179" stroke-linecap="round" stroke-linejoin="round"/></svg><svg fill="none" viewBox="0 0 35 36" id="facebook" xmlns="http://www.w3.org/2000/svg"><path d="M17.5 31.174c7.249 0 13.125-5.876 13.125-13.125S24.749 4.924 17.5 4.924 4.375 10.8 4.375 18.049 10.251 31.174 17.5 31.174Z" stroke="#fff" stroke-width="2" stroke-linecap="round" stroke-linejoin="round"/><path d="M22.969 12.58H20.78a3.267 3.267 0 0 0-3.281 3.281v15.313M13.125 20.236h8.75" stroke="#fff" stroke-width="2" stroke-linecap="round" stroke-linejoin="round"/></svg><svg viewBox="0 0 16 17" id="grid" xmlns="http://www.w3.org/2000/svg"><path d="M1 2.92a1.5 1.5 0 0 1 1.5-1.5h3A1.5 1.5 0 0 1 7 2.92v3a1.5 1.5 0 0 1-1.5 1.5h-3A1.5 1.5 0 0 1 1 5.92v-3Zm8 0a1.5 1.5 0 0 1 1.5-1.5h3a1.5 1.5 0 0 1 1.5 1.5v3a1.5 1.5 0 0 1-1.5 1.5h-3A1.5 1.5 0 0 1 9 5.92v-3Zm-8 8a1.5 1.5 0 0 1 1.5-1.5h3a1.5 1.5 0 0 1 1.5 1.5v3a1.5 1.5 0 0 1-1.5 1.5h-3a1.5 1.5 0 0 1-1.5-1.5v-3Zm8 0a1.5 1.5 0 0 1 1.5-1.5h3a1.5 1.5 0 0 1 1.5 1.5v3a1.5 1.5 0 0 1-1.5 1.5h-3a1.5 1.5 0 0 1-1.5-1.5v-3Z"/></svg><svg fill="none" viewBox="0 0 35 36" id="instagram" xmlns="http://www.w3.org/2000/svg"><path d="M17.5 23.518a5.469 5.469 0 1 0 0-10.938 5.469 5.469 0 0 0 0 10.938Z" stroke="#fff" stroke-width="2" stroke-miterlimit="10"/><path d="M23.516 5.47H11.484a6.562 6.562 0 0 0-6.562 6.563v12.032a6.563 6.563 0 0 0 6.562 6.562h12.032a6.563 6.563 0 0 0 6.562-6.562V12.033a6.562 6.562 0 0 0-6.562-6.562Z" stroke="#fff" stroke-width="2" stroke-linecap="round" stroke-linejoin="round"/><path d="M24.61 12.58a1.64 1.64 0 1 0 0-3.281 1.64 1.64 0 0 0 0 3.281Z" fill="#fff"/></svg><svg fill="none" viewBox="0 0 35 36" id="linkedin" xmlns="http://www.w3.org/2000/svg"><path d="M28.984 5.47H6.016c-.604 0-1.094.49-1.094 1.095v22.968c0 .604.49 1.094 1.094 1.094h22.968c.604 0 1.094-.49 1.094-1.094V6.565c0-.604-.49-1.094-1.094-1.094ZM16.406 15.861v8.75M12.031 15.861v8.75" stroke="#fff" stroke-width="2" stroke-linecap="round" stroke-linejoin="round"/><path d="M16.406 19.69a3.829 3.829 0 0 1 7.657 0v4.921" stroke="#fff" stroke-width="2" stroke-linecap="round" stroke-linejoin="round"/><path d="M12.031 13.127a1.64 1.64 0 1 0 0-3.281 1.64 1.64 0 0 0 0 3.281Z" fill="#fff"/></svg><svg fill="none" viewBox="0 0 16 16" id="list" xmlns="http://www.w3.org/2000/svg"><path d="M14.667 7.386V8a6.666 6.666 0 1 1-3.953-6.093m3.953.76L8.001 9.34l-2-2" stroke="#285582" stroke-width="2" stroke-linecap="round" stroke-linejoin="round"/></svg><svg viewBox="0 0 16 17" id="list2" xmlns="http://www.w3.org/2000/svg"><path fill-rule="evenodd" clip-rule="evenodd" d="M4.5 12.92a.5.5 0 0 1 .5-.5h9a.5.5 0 0 1 0 1H5a.5.5 0 0 1-.5-.5Zm0-4a.5.5 0 0 1 .5-.5h9a.5.5 0 0 1 0 1H5a.5.5 0 0 1-.5-.5Zm0-4a.5.5 0 0 1 .5-.5h9a.5.5 0 0 1 0 1H5a.5.5 0 0 1-.5-.5ZM3.356 3.568a.5.5 0 0 1 0 .708l-1.5 1.5a.5.5 0 0 1-.708 0l-.5-.5a.5.5 0 0 1 .708-.708l.146.147 1.146-1.147a.5.5 0 0 1 .708 0Zm0 4a.5.5 0 0 1 0 .708l-1.5 1.5a.5.5 0 0 1-.708 0l-.5-.5a.5.5 0 0 1 .708-.708l.146.147 1.146-1.147a.5.5 0 0 1 .708 0Zm0 4a.5.5 0 0 1 0 .708l-1.5 1.5a.5.5 0 0 1-.708 0l-.5-.5a.5.5 0 1 1 .708-.708l.146.147 1.146-1.147a.5.5 0 0 1 .708 0Z"/></svg><svg fill="none" viewBox="0 0 35 36" id="mail" xmlns="http://www.w3.org/2000/svg"><path d="M4.375 13.674v14.219a1.094 1.094 0 0 0 1.094 1.093H29.53a1.094 1.094 0 0 0 1.094-1.093v-14.22L17.5 4.924l-13.125 8.75ZM15.107 21.33l-10.39 7.342M30.283 28.672l-10.39-7.342" stroke="#fff" stroke-width="2" stroke-linecap="round" stroke-linejoin="round"/><path d="M30.625 13.674 19.893 21.33h-4.786L4.375 13.674" stroke="#fff" stroke-width="2" stroke-linecap="round" stroke-linejoin="round"/></svg><svg fill="none" viewBox="0 0 29 24" id="menu" xmlns="http://www.w3.org/2000/svg"><path d="M1.73 3.342c5.32-8.119 20.078 9.448 26.27 0M1.73 11.558c5.32-8.119 20.078 9.448 26.27 0M1.73 20.123c5.32-8.118 20.078 9.448 26.27 0"/></svg><svg fill="none" viewBox="0 0 48 49" id="nav" xmlns="http://www.w3.org/2000/svg"><path d="m30 12.706-12 12 12 12"/></svg><svg fill="none" viewBox="0 0 19 16" id="quote" xmlns="http://www.w3.org/2000/svg"><path d="m5.453.925 2.483.858-2.483 6.005c1.806.361 3.025 1.806 3.025 3.702 0 2.167-1.67 3.748-3.928 3.748S.667 13.658.667 11.49c0-.993.316-1.941.948-3.07L5.453.925Zm9.753 0 2.483.858-2.483 6.005c1.806.361 3.025 1.806 3.025 3.702 0 2.167-1.626 3.748-3.883 3.748-2.303 0-3.928-1.58-3.928-3.748 0-.993.316-1.941.948-3.07L15.206.925Z" fill="#0096FE"/></svg><svg fill="none" viewBox="0 0 17 17" id="search" xmlns="http://www.w3.org/2000/svg"><path fill-rule="evenodd" clip-rule="evenodd" d="m12.127 10.738 4.303 4.304a.807.807 0 0 1-1.141 1.141l-4.304-4.304a6.4 6.4 0 1 1 1.14-1.14h.002Zm-5.06.881a4.8 4.8 0 1 0 0-9.6 4.8 4.8 0 0 0 0 9.6Z" fill="#2798D5"/></svg><svg fill="none" viewBox="0 0 35 36" id="telegram" xmlns="http://www.w3.org/2000/svg"><path d="m12.031 18.992 12.291 10.815a1.094 1.094 0 0 0 1.791-.575l5.14-22.449a1.093 1.093 0 0 0-1.462-1.258L4.553 15.438c-1.012.396-.875 1.873.191 2.091l7.287 1.463ZM12.031 18.992 30.64 5.552" stroke="#fff" stroke-width="2" stroke-linecap="round" stroke-linejoin="round"/><path d="m18.17 24.393-4.266 4.265a1.094 1.094 0 0 1-1.873-.765v-8.9" stroke="#fff" stroke-width="2" stroke-linecap="round" stroke-linejoin="round"/></svg><svg fill="none" viewBox="0 0 35 36" id="whatsapp" xmlns="http://www.w3.org/2000/svg"><path d="M6.207 24.748a13.111 13.111 0 1 1 4.594 4.594v0l-4.54 1.285a1.08 1.08 0 0 1-1.34-1.34l1.286-4.539Z" stroke="#fff" stroke-width="2" stroke-linecap="round" stroke-linejoin="round"/><path d="M20.795 25.705A10.923 10.923 0 0 1 9.844 14.754a3.828 3.828 0 0 1 3.828-3.814v0a.93.93 0 0 1 .82.478l1.6 2.79a1.106 1.106 0 0 1-.014 1.107l-1.285 2.146a6.563 6.563 0 0 0 3.295 3.295l2.146-1.285a1.107 1.107 0 0 1 1.108-.014l2.789 1.6a.93.93 0 0 1 .478.82 3.842 3.842 0 0 1-3.814 3.828v0Z" stroke="#fff" stroke-width="2" stroke-linecap="round" stroke-linejoin="round"/></svg><svg fill="none" viewBox="0 0 35 36" id="youtube" xmlns="http://www.w3.org/2000/svg"><path d="m21.875 18.049-6.562-4.375v8.75l6.562-4.375Z" stroke="#fff" stroke-width="2" stroke-linecap="round" stroke-linejoin="round"/><path d="M3.281 18.049c0 4.074.424 6.453.739 7.684a2.2 2.2 0 0 0 1.312 1.49c4.58 1.75 12.168 1.709 12.168 1.709s7.588.04 12.168-1.71a2.2 2.2 0 0 0 1.313-1.49c.314-1.23.738-3.609.738-7.683s-.424-6.453-.739-7.684a2.201 2.201 0 0 0-1.312-1.49C25.088 7.125 17.5 7.166 17.5 7.166s-7.588-.04-12.168 1.71a2.201 2.201 0 0 0-1.312 1.49c-.315 1.23-.739 3.609-.739 7.683Z" stroke="#fff" stroke-width="2" stroke-linecap="round" stroke-linejoin="round"/></svg></svg>