<svg width="100" height="100" viewBox="0 0 100 100" fill="none" xmlns="http://www.w3.org/2000/svg">
<g clip-path="url(#clip0_172_878)">
<rect width="100" height="100" rx="12" fill="#2798D5"/>
<path d="M28.9361 36.374C27.7193 35.7022 26.2646 35.304 24.963 34.8008L16.2076 31.4232C15.3642 31.0981 11.4818 30.2594 12.6558 28.6181C13.1225 27.9656 14.4239 27.7678 15.1325 27.5047L35.7642 19.8397C39.3041 18.5059 42.8482 17.1678 46.4077 15.8873C47.5254 15.4851 48.869 14.823 50.014 14.626C50.6352 14.6512 55.4925 16.6263 56.5127 17.0117L82.9771 27.0412C83.8841 27.3826 84.8323 27.6901 85.7158 28.0826C86.7928 28.561 86.4366 29.9292 86.4332 30.8898L86.4297 34.7177C87.3785 35.7041 88.6835 38.2633 89.0745 39.6338C89.8673 42.4118 81.6906 42.3183 81.359 40.4329C81.1128 39.0327 83.1724 35.9118 84.1208 34.6229V31.1485C79.6264 32.5831 75.3243 34.6093 70.8438 36.1056L69.3382 40.8974C71.3247 44.2649 71.8539 46.9501 72.4688 50.6398L79.7938 50.6377C80.7422 50.6379 82.3271 50.5417 83.1978 50.683C84.5656 50.9048 84.5238 52.8079 83.1886 52.9912C82.2853 53.1151 80.8403 53.003 79.8853 53.0022L72.4688 53.004C72.2007 58.2423 70.2081 62.4484 67.0025 66.4413C68.4711 68.0376 70.6329 69.9793 72.2351 71.4872C72.921 72.1328 73.747 72.7813 74.3325 73.5096C75.1246 74.495 73.7948 75.9804 72.7708 75.3109C72.0963 74.8699 71.1103 73.6915 70.4977 73.0785C68.885 71.4656 67.1569 69.7114 65.4222 68.2415C64.4677 68.7934 63.6354 69.6246 62.7238 70.2561C60.1579 72.0335 57.328 73.1581 54.2929 73.833C53.2842 74.0304 52.1901 74.0437 51.2081 74.3221L51.2089 80.621C51.2102 81.5511 51.307 82.5707 51.2016 83.4903C51.0991 84.3835 49.8686 84.9085 49.2151 84.2201C48.4924 83.4588 48.798 81.3258 48.7978 80.3587L48.7993 74.3221C44.1614 73.2841 42.3249 73.5321 37.7429 70.5546C36.6819 69.8651 35.7644 68.948 34.699 68.2821L34.6335 68.2415C33.8449 68.717 33.1962 69.4361 32.5386 70.0762L28.926 73.6428C28.3063 74.2541 27.2844 75.6918 26.2904 75.5585C25.3235 75.4289 25.0785 74.2753 25.6264 73.5905C26.0672 73.0398 26.6682 72.5744 27.1662 72.0679C28.7914 70.4145 31.196 67.8549 32.9948 66.4413C32.4223 65.5273 31.6803 64.7188 31.09 63.8084C29.0401 60.6478 27.6383 56.8019 27.6364 53.004L18.0692 53.0097C17.4036 53.0122 16.574 53.1464 16.0271 52.6748C15.5661 52.277 15.579 51.4395 15.9986 51.015C16.7129 50.2928 19.4263 50.6364 20.3866 50.6366L27.6364 50.6398C27.7647 47.6948 28.8675 42.9706 30.7853 40.8974C29.9228 39.5073 29.5895 37.8623 28.9361 36.374ZM50.014 17.0823C47.7444 17.8549 45.5 18.7218 43.2506 19.5522L28.6707 24.9782C25.2794 26.2326 20.1831 27.7214 17.0501 29.3187C18.43 29.7423 19.7629 30.278 21.107 30.802L26.0437 32.7263C27.3984 33.2518 29.6231 33.9265 30.7853 34.6229C35.48 31.948 43.8918 27.8877 48.7993 26.8925C48.7961 25.8723 48.3822 23.4181 49.277 22.741C51.7804 21.5595 51.215 25.6417 51.2081 26.8925C56.6803 28.2155 61.8117 30.8323 66.8097 33.3778C67.4765 33.7174 68.1447 34.0956 68.86 34.3237C70.2232 33.9667 71.503 33.4362 72.8152 32.9298L76.8931 31.3659C78.6788 30.6634 80.5013 30.0615 82.2715 29.3187C79.6104 28.2685 76.925 27.2946 74.255 26.2711L52.502 17.9736C51.7581 17.6882 50.7799 17.186 50.014 17.0823ZM51.2081 29.3187C51.2106 30.5242 51.3427 33.139 51.1018 34.1678C50.8284 35.3361 48.9582 35.2635 48.8012 34.0887C48.6439 32.9118 48.7999 30.595 48.7993 29.3187C43.9254 30.601 37.8767 33.4746 33.3814 35.93C37.1578 37.0916 41.282 38.916 44.9964 40.3413C46.6311 40.9455 48.2432 41.6973 49.8959 42.2373C51.1757 41.8605 52.44 41.2952 53.6873 40.8191L64.4122 36.6336C65.0971 36.3669 65.7357 36.0569 66.4651 35.93C65.4459 35.2036 64.2155 34.7032 63.0917 34.1519C60.367 32.815 54.2035 29.7383 51.2081 29.3187ZM85.3641 37.0082C84.7838 37.6559 84.3197 38.561 84.1208 39.4076C84.5482 39.5149 84.9205 39.5653 85.3641 39.5588C85.7228 39.5202 86.0752 39.4756 86.4297 39.4076C86.1506 38.5634 85.6875 37.8271 85.3641 37.0082ZM32.0142 37.8806C32.3797 39.2226 33.8218 42.6684 34.4102 43.8478C35.5069 44.443 36.8062 44.7918 37.9871 45.194L42.311 46.6468C45.9188 47.8376 47.0749 48.3987 50.014 50.9529C55.3247 46.5792 59.4844 45.9765 65.6603 44.5717C65.864 43.8974 66.0816 43.2279 66.2992 42.5577C66.7998 40.9957 67.2868 39.4179 67.8587 37.8806C66.5695 38.1971 65.3344 38.7681 64.1021 39.2568L53.6684 43.3686C52.9146 43.6683 50.7673 44.657 50.1141 44.7112C49.5322 44.7593 33.3619 38.4124 32.0142 37.8806ZM31.8 43.8478C29.6174 48.388 29.4591 53.8726 31.1152 58.5903C32.0107 61.1419 33.1493 62.5423 34.6335 64.7268C34.9346 64.3912 35.2415 64.0711 35.5693 63.7616C36.1369 63.1941 36.6838 62.5692 37.3645 62.1357C33.7424 57.1303 32.974 52.8579 34.6335 46.6783C33.9976 46.3394 33.3083 46.1237 32.6707 45.7955C32.3488 45.2244 32.1495 44.3306 31.8 43.8478ZM68.2514 43.8478C67.5023 45.9284 67.7268 46.5536 65.4222 46.9873C66.9366 52.5233 66.131 57.6262 62.636 62.1357C63.2303 62.7363 63.8305 63.3731 64.5305 63.8515C64.81 64.1787 65.087 64.4555 65.4222 64.7268C69.0642 59.5391 70.8902 55.2049 69.7255 48.5577C69.5201 47.3857 68.8613 44.8185 68.2514 43.8478ZM37.0209 47.3432C35.79 51.0304 35.8257 54.6923 37.5929 58.2207C42.6143 68.2466 56.3489 68.4305 62.0171 58.9261C63.9664 55.374 64.3207 51.4918 63.1425 47.6213C59.947 47.6986 55.1506 50.0372 52.5496 51.8975C51.8707 52.3833 50.8221 53.8311 49.8903 53.6135C49.1101 53.4312 46.3146 50.868 45.093 50.2185C42.9131 49.0599 39.4139 48.195 37.0209 47.3432ZM38.8616 63.8515C37.9892 64.7232 37.1292 65.6426 36.1899 66.4413C39.7724 69.0942 41.9303 70.7858 46.6778 71.6164C47.3836 71.713 48.0949 71.7785 48.7993 71.8791V68.2415C44.946 67.9861 41.7499 66.3493 38.8616 63.8515ZM61.0166 63.8515C57.7262 66.4732 55.7208 67.816 51.2081 68.2415V71.8791C51.9883 71.7754 52.7932 71.6033 53.5818 71.6164C56.7673 70.643 58.659 70.2211 61.5824 68.1737C62.3535 67.6335 63.0444 66.9899 63.8085 66.4413C62.8401 65.7245 61.8256 64.3826 61.0166 63.8515Z" fill="white"/>
</g>
<defs>
<clipPath id="clip0_172_878">
<rect width="100" height="100" rx="12" fill="white"/>
</clipPath>
</defs>
</svg>
