<svg width="101" height="100" viewBox="0 0 101 100" fill="none" xmlns="http://www.w3.org/2000/svg">
<rect x="0.333008" width="100" height="100" rx="12" fill="#2798D5"/>
<path d="M50.6885 30.4489C48.8416 30.5213 46.9687 29.1037 47.4563 27.0658C47.5895 26.5095 47.985 26.0647 48.2037 25.5445C48.7232 24.31 48.6555 23.2698 50.2474 22.9751C51.9666 22.8836 52.0888 24.4009 52.5761 25.5849C52.8098 26.1529 53.2251 26.605 53.3378 27.2277C53.6387 28.8887 52.1968 30.1837 50.6885 30.4489ZM50.3783 25.1571C50.0566 26.0055 49.58 26.7876 49.265 27.6275C49.4914 28.168 49.7831 28.5077 50.3783 28.5447C51.004 28.4436 51.2094 28.1545 51.4686 27.6275C51.0676 26.8224 50.7501 25.8796 50.3783 25.1571Z" fill="white"/>
<path d="M37.9139 36.4066L37.9069 33.7138C37.9045 32.6439 37.5902 31.3483 39.0402 31.2712L59.9214 31.2703C62.6792 31.2673 63.1755 30.5765 63.1703 33.5807L63.1637 36.4066C66.4206 37.9707 66.6536 38.6117 66.6517 42.3756L66.6495 45.4434C69.5028 46.5368 73.5826 48.2826 76.3321 49.7085C77.0306 50.0707 77.3008 50.4446 77.0086 51.2202C76.068 53.7174 74.5225 56.5699 73.4095 59.0759L70.8539 64.8217C70.2884 66.1147 69.7738 68.4401 68.3776 68.7687C67.6146 68.5887 66.9957 68.0113 66.3217 67.6324C62.9844 65.7564 59.2414 65.8992 55.8571 67.6659C52.3613 69.6142 52.052 72.416 50.913 73.2166C49.6562 74.1 48.924 71.8389 48.4398 71.0911C45.2584 66.1796 39.2997 64.9799 34.274 67.7268C33.8039 67.9837 32.5722 69.0331 32.0349 68.8561C31.3022 68.6147 29.935 65.0553 29.588 64.2705L24.3562 52.6677C23.0702 49.7538 22.9818 50.1283 25.6933 48.9205L28.9168 47.4718C30.6808 46.6761 32.4191 45.7698 34.221 45.0667L34.2178 42.2475C34.2159 39.1471 34.6137 37.3439 37.9139 36.4066ZM40.4731 33.226H39.825C39.8241 34.2833 39.7938 35.3502 39.825 36.4066L44.4087 36.403C45.1557 36.4028 45.9667 36.337 46.7062 36.4271C47.4707 36.5202 47.8374 37.4808 47.2472 38.0305C46.431 38.7905 39.3074 37.8596 37.6178 38.5282C35.5252 39.3558 36.1349 42.3973 36.1263 44.1583C40.4424 42.3596 43.1846 41.5575 47.9231 43.4941C48.7189 43.8192 49.4583 44.2576 50.2469 44.5931L50.3133 44.5679C52.2338 43.8307 53.1441 43.1157 55.4443 42.7254C59.6261 42.038 61.3199 43.4032 64.7637 44.5931C64.7688 42.1902 65.5546 38.2899 61.9499 38.2993L59.2829 38.3153C58.7229 38.319 57.6567 38.483 57.2204 38.0258C56.6632 37.4417 56.999 36.5136 57.8055 36.4049C58.1933 36.3524 58.6335 36.3996 59.0256 36.4038L61.2414 36.4066V33.226H40.4731ZM41.9409 44.3103C38.5561 44.7103 35.2525 46.7232 32.1976 48.1256C30.06 49.1069 27.7955 49.9752 25.7369 51.1153L26.0315 51.7554C27.8719 51.2091 29.7208 50.6718 31.5506 50.0916C37.3153 48.2886 43.3189 46.4232 49.4209 46.4854C47.3809 44.9587 44.4766 44.1073 41.9409 44.3103ZM56.6504 44.5931C54.5963 44.8353 52.6968 45.3975 50.8918 46.4217C56.7546 46.9204 60.6092 47.7173 66.3591 49.3965L70.5366 50.5821C71.8706 50.9866 73.203 51.4199 74.5564 51.7554C74.6769 51.541 74.7913 51.3193 74.9287 51.1153C73.9993 50.6808 73.0428 50.3013 72.101 49.8951L63.9336 46.3182C61.5899 45.2937 59.2692 44.3518 56.6504 44.5931ZM48.4856 48.359C43.6159 48.7372 40.0037 49.6224 35.2762 51.0171L26.899 53.5549C27.3427 54.9031 28.0889 56.2329 28.6742 57.5304L32.6819 66.4182C38.4203 62.9471 45.1588 63.8774 49.4209 69.116C49.4647 65.653 49.4215 62.1835 49.422 58.7197L49.4149 56.1383C49.4091 55.5944 49.3671 55.0244 49.4237 54.4835C49.5388 53.3852 50.9764 53.2998 51.3149 54.3107V69.116C55.184 63.8566 62.7279 63.014 68.0799 66.4182C68.5155 65.5672 68.842 64.6562 69.2196 63.778C70.6839 60.3726 72.4474 57.0424 73.6913 53.5549C71.5847 52.7953 69.3625 52.2751 67.2097 51.6544C60.3801 49.685 55.5797 48.3071 48.4856 48.359Z" fill="white"/>
<path d="M54.5908 38.3131C53.7017 38.3262 50.5833 38.411 49.9471 38.2344C48.8917 37.9414 49.1266 36.8127 49.9599 36.4068C50.5766 36.376 54.2422 36.35 54.6384 36.4689C55.6098 36.7598 55.3854 37.9736 54.5908 38.3131Z" fill="white"/>
<path d="M9.83789 69.4095C9.96403 68.8404 10.1644 68.5647 10.7682 68.4726C16.7931 67.9661 17.8858 71.4933 21.8096 73.2466C24.2685 74.3455 27.3558 74.123 29.6531 72.7272C30.8347 72.0092 31.5779 71.2618 32.9354 70.7448C36.3306 69.4515 40.219 69.7208 43.2373 71.8093C44.3085 72.5504 45.1827 73.4919 46.3974 74.0237C50.1754 75.6782 53.798 74.7741 56.8561 72.3281C60.2599 69.6055 65.0737 69.1547 68.8852 71.3887C71.4527 72.8935 72.0346 73.9327 75.4798 73.8586C80.2123 73.7569 81.3343 70.663 85.2224 69.2068C86.1242 68.869 89.1797 68.1418 90.0484 68.5738C91.0773 69.0853 90.5565 70.1118 89.6017 70.351C83.5418 70.7566 84.1265 72.8651 79.6904 74.8693C76.6358 76.2493 72.8555 76.0821 69.9399 74.4206C68.7656 73.7514 67.8089 72.8794 66.5173 72.3941C63.8874 71.406 60.7942 71.8356 58.5104 73.4624C57.1871 74.4049 56.8796 75.0075 55.2658 75.7254C51.954 77.1981 47.3607 77.1186 44.2824 75.0914C42.9334 74.2028 41.9206 73.0385 40.3685 72.4447C36.7998 71.0796 34.0518 72.0284 31.1685 74.0535C27.7118 76.4814 22.7164 76.487 19.2535 74.0662C16.782 72.3385 15.778 70.9304 12.6213 70.4589C11.3297 70.266 10.2235 70.7521 9.83789 69.4095Z" fill="white"/>
</svg>
