<svg width="101" height="100" viewBox="0 0 101 100" fill="none" xmlns="http://www.w3.org/2000/svg">
<g clip-path="url(#clip0_192_264)">
<rect x="0.666992" width="100" height="100" rx="12" fill="#2798D5"/>
<path d="M47.1861 29.2952C39.8014 24.9946 42.2137 15.0027 50.3084 14.4089C55.4159 14.0531 59.5583 19.1041 58.3985 24.0274C57.786 26.6277 56.2955 27.945 54.1222 29.2952C54.1101 30.0566 54.122 30.8197 54.1222 31.5812L55.8181 31.5767C56.8579 31.5717 57.7513 31.5409 58.5598 32.3168C59.639 33.3522 59.7785 35.1894 58.6793 36.2699C57.5563 37.3738 55.5632 37.0657 54.1222 37.0687V48.3078C55.6663 47.8214 57.179 47.2261 58.7103 46.7007C63.3011 45.1258 58.2323 50.9369 57.6177 51.8555L49.9351 63.2926C49.4812 63.9619 48.564 65.6508 47.9847 66.0677C47.2968 66.5622 46.3657 66.017 46.3963 65.2025C46.493 62.64 47.4989 58.6224 47.8878 55.9354C46.733 56.218 42.9041 58.2455 42.3787 57.1229C42.0516 56.4241 42.9924 52.4728 43.1572 51.5688L45.2801 39.8332C45.4407 38.9117 45.5527 37.9551 45.855 37.0687C44.6994 37.0751 43.4606 37.1906 42.5551 36.3213C41.4711 35.2806 41.4699 33.3966 42.5286 32.3346C43.5579 31.3022 45.406 31.5752 46.7476 31.5812C46.9462 30.8407 47.052 30.0511 47.1861 29.2952ZM56.7986 49.5467C56.0691 49.765 55.3299 50.0292 54.6171 50.2989C51.7181 51.3958 52.1497 50.6543 52.1632 48.1864L52.1678 27.9965C52.6819 27.7242 53.2291 27.5173 53.7353 27.2351C60.3041 23.5734 54.6056 13.3543 47.7358 17.0946C44.0805 19.0848 43.7126 24.5446 47.1861 26.942C47.8913 27.4082 48.6215 27.6987 49.4095 27.9965L45.299 51.1156C45.0624 52.383 44.7818 53.6563 44.6004 54.9324C45.6198 54.6493 46.613 54.2479 47.6051 53.8817C48.5821 53.5212 49.5068 52.913 50.1584 54.0828C49.8862 56.2807 49.4668 58.9541 49.0095 61.1165C51.1119 58.0645 53.3164 54.8106 55.3081 51.6998C55.7725 50.9743 56.3746 50.2884 56.7986 49.5467ZM44.283 33.487C44.0628 33.5724 43.8662 33.655 43.7594 33.8799C43.0703 35.3308 45.05 35.152 45.855 35.1368C46.4889 35.103 46.3109 33.9572 46.3858 33.487C45.6866 33.4862 44.9814 33.4658 44.283 33.487ZM54.1222 33.487C54.1561 34.0434 54.1549 34.5812 54.1222 35.1368C54.8699 35.1422 56.6772 35.2985 57.2708 34.924C58.6107 33.0583 54.9312 33.4812 54.1222 33.487Z" fill="white"/>
<path d="M51.2738 25.8278C46.6038 26.4966 45.1914 19.4967 50.1588 18.5385C54.9295 18.0485 56.2119 24.6908 51.2738 25.8278ZM50.4595 20.4357C48.0342 21.0947 48.8261 24.2198 50.9238 23.8813C53.2151 23.3526 52.7807 20.3914 50.4595 20.4357Z" fill="white"/>
<path d="M26.3038 41.8003C24.9212 41.7155 25.0797 40.6104 25.6284 39.7049C28.7541 34.5472 34.5998 28.7448 40.6943 27.2559C41.7226 27.2046 42.2308 28.5131 41.2292 29.0385C40.6715 29.331 40.0292 29.5046 39.4495 29.7618C34.2746 32.0568 30.4605 35.6975 27.4746 40.5227C27.1441 41.0567 26.9319 41.5848 26.3038 41.8003Z" fill="white"/>
<path d="M75.3446 41.8001C74.2161 41.842 73.7241 40.2215 73.2025 39.4306C70.5883 35.466 66.8812 32.2279 62.6481 30.0885C61.9456 29.7336 60.3033 29.2884 60.8374 28.1704C61.0019 27.8267 61.2665 27.6661 61.6112 27.5391C62.3005 27.6219 63.7113 28.4265 64.3719 28.773C68.5909 30.9857 72.2381 34.4605 74.8943 38.3925C75.4257 39.1792 77.2461 41.3814 75.3446 41.8001Z" fill="white"/>
<path d="M73.1801 60.7906C71.9696 60.4646 70.3033 57.9064 70.4748 57.3203C70.5973 56.9009 73.1702 53.3296 73.6082 52.6875L76.1274 48.9934C76.5499 48.38 76.8941 47.5812 77.5724 47.2237C78.5222 47.1925 79.1066 48.5577 79.561 49.2265L83.9991 55.6195C85.6776 58.068 85.8443 57.5348 83.7635 59.6657C82.4236 61.0379 82.5171 61.1367 80.677 60.2325C77.1854 70.182 69.0082 77.6286 58.6955 80.0358C56.4684 80.5557 54.3112 80.9295 52.7022 82.7051C51.493 84.0393 51.0415 86.3826 49.2998 83.6414C47.5431 80.8763 44.6306 80.5984 41.732 79.7716C31.0528 76.7258 24.7192 70.2455 20.7983 60.2325C20.1711 60.4077 19.3033 60.9405 18.6637 60.5662C18.0526 60.2084 16.0638 58.779 15.9053 58.0167C15.8105 57.5611 17.1263 55.92 17.4528 55.4612C18.2861 54.3176 22.4471 47.8504 23.2306 47.2872C24.2603 47.0894 25.3095 49.3417 25.8375 50.128L29.1296 55.0321C29.6657 55.8332 30.7928 57.2443 31.1311 58.038C30.8398 58.5879 29.1563 60.3282 28.6204 60.6127C28.0682 60.9056 27.0284 60.4188 26.4742 60.2325C29.3451 66.9285 37.1525 71.8935 44.2701 72.6564C46.4887 72.8944 47.5957 71.3612 49.0699 69.7381C51.0139 67.5977 50.8439 67.9796 52.1838 69.812C52.8633 70.7411 55.1059 72.6058 56.3185 72.7389C57.7089 72.8912 61.2597 71.8187 62.6218 71.305C67.7934 69.3544 72.4885 65.2956 74.7727 60.2325C74.2384 60.4112 73.7208 60.6279 73.1801 60.7906ZM77.7298 50.2191C76.0776 52.6571 74.4619 55.1296 72.7393 57.5183C72.9913 57.8902 73.246 58.2607 73.4895 58.6385C76.4881 57.0305 78.096 56.8881 76.5807 60.946C74.5405 66.4104 69.3781 70.5221 64.2145 72.8755C62.4005 73.7023 57.1689 75.3508 55.3672 74.6674C53.7739 74.063 51.5646 72.5286 50.6475 71.0839C47.017 74.4564 47.2216 75.3662 42.484 74.3964C35.0317 72.8706 27.17 67.7834 24.5216 60.3298C23.0736 56.2542 25.6552 57.9403 27.8228 58.6385C28.1722 58.3579 28.4458 58.0539 28.7159 57.6979C28.0078 57.087 27.5212 56.2415 27.0097 55.4671L25 52.4771C24.5224 51.7738 24.0446 50.991 23.4582 50.3739C22.6951 51.2266 22.0836 52.2417 21.4443 53.1891C20.4131 54.6958 19.4262 56.2651 18.2944 57.6979C18.6279 58.0113 18.9551 58.3381 19.3 58.6385C20.0413 58.2702 20.5972 57.8152 21.4443 57.6979C22.5704 58.0352 22.6848 59.5688 23.04 60.5334C26.4122 69.6921 34.3789 76.1022 43.8206 78.2927C46.7827 78.98 48.6116 79.2844 50.6475 82.0394C52.7571 79.1077 55.1068 78.7774 58.3385 78.004C67.9701 75.6993 76.1949 68.2866 79.0411 58.7405C79.6251 56.7813 80.7986 57.9816 82.012 58.6385C82.301 58.3055 82.5894 57.9924 82.9193 57.6979C82.2827 56.6542 78.2421 50.6397 77.7298 50.2191Z" fill="white"/>
</g>
<defs>
<clipPath id="clip0_192_264">
<rect x="0.666992" width="100" height="100" rx="12" fill="white"/>
</clipPath>
</defs>
</svg>
