<svg width="101" height="100" viewBox="0 0 101 100" fill="none" xmlns="http://www.w3.org/2000/svg">
<g clip-path="url(#clip0_192_282)">
<rect x="0.333008" width="100" height="100" rx="12" fill="#2798D5"/>
<path d="M43.57 21.0444C43.5742 18.2729 42.5772 14.5765 46.2543 13.7135C47.6624 13.6555 49.0911 13.7158 50.5011 13.714C52.2614 13.7118 54.7085 13.2554 56.1227 14.5858C57.6186 15.9928 57.1309 19.0919 57.1624 21.0444C59.9768 21.5211 63.5837 23.3612 65.9868 24.7838C66.9993 23.7283 69.4621 20.9258 70.7414 20.6477C72.8327 20.1928 73.7641 21.6587 75.0819 22.9505L77.6468 25.4809C82.4764 30.2615 78.1521 30.7481 75.5776 34.5556C77.3164 36.5935 78.5948 40.7248 79.2319 43.2479L81.9327 43.2431C84.6617 43.2382 86.6077 43.363 86.6167 46.5896L86.6209 51.9163C86.6205 53.7746 86.8979 55.9705 84.5792 56.6043C83.5672 56.8809 80.4641 56.7408 79.2319 56.7383C78.5183 59.2254 77.722 61.5874 76.4405 63.84C76.1385 64.3709 75.7678 64.8984 75.5776 65.481C76.544 67.4677 81.235 69.4284 79.1979 72.7079C78.7117 73.4906 74.3339 77.8178 73.3349 78.6201C70.678 80.7536 67.4724 77.0324 65.9868 75.131C64.9095 75.5825 63.9019 76.274 62.8468 76.7917C61.0291 77.6836 59.113 78.2309 57.1624 78.7442L57.1668 81.3737C57.1813 83.701 57.2584 85.8394 54.3764 86.2268L48.9867 86.2306C42.5426 86.2302 43.5611 84.0841 43.57 78.7442C41.0265 78.4716 36.9883 76.3593 34.8098 75.131C32.8742 76.6449 30.5229 80.7042 27.7579 78.9439C26.5957 78.2038 23.0375 74.4186 21.9096 73.2018C19.2 70.2793 23.0827 67.3938 25.2063 65.481C23.745 63.2898 21.8079 59.342 21.469 56.7383C18.3331 56.7223 14.125 57.823 14.0423 53.3338C14.0136 51.7787 14.0399 50.2194 14.0376 48.6638C14.0343 46.5427 13.6714 43.9086 16.363 43.2284C17.3595 42.9764 20.303 43.1162 21.469 43.1183C21.9033 40.477 23.7316 36.7985 25.2063 34.5556C22.201 31.3775 18.8132 29.5975 22.7063 25.6749L24.8545 23.5347C26.2612 22.1377 28.1895 19.4372 30.4843 20.6926C31.3825 21.1839 34.0368 23.9289 34.8098 24.7838C37.0802 23.105 40.7941 21.6524 43.57 21.0444ZM46.5431 15.9151C44.6236 16.5353 46.2747 20.951 45.5071 22.5306C45.1621 23.2407 43.6256 23.2611 42.9597 23.4633C41.0236 24.0507 39.1673 24.7975 37.389 25.7627C33.3141 27.9741 34.7059 27.8101 30.6605 23.7302C28.7048 21.7578 28.9144 22.5691 27.055 24.4193C26.3876 25.0835 23.1919 27.9647 22.981 28.6745C22.8139 29.2373 24.1111 30.3197 24.4507 30.6601L26.3466 32.5607C28.7109 34.9002 27.583 34.5514 25.9056 37.5354C25.2424 38.7153 23.1429 44.9301 22.989 45.0525C21.6762 46.0973 16.5039 44.2412 16.226 46.1977C16.0615 47.3565 16.11 52.3655 16.2151 53.5579C16.2971 54.4883 16.8023 54.6342 17.6886 54.6527C18.5246 54.6701 22.5564 54.445 23.0153 54.8881C23.4149 55.2741 23.8904 57.5334 24.1126 58.2283C24.6422 59.8863 25.3159 61.5001 26.1975 63.0035C26.548 63.6016 27.5296 64.9079 27.7188 65.3913C28.1607 66.5216 23.8236 69.4958 23.203 70.7258C22.8361 71.4531 23.8513 72.0772 24.3049 72.5216L26.2498 74.4302C26.7148 74.8901 28.6992 77.26 29.2849 77.2218C30.0321 77.1729 33.1381 73.2898 34.1743 72.7114C35.0293 72.2343 37.0023 73.8772 37.7573 74.2859C39.862 75.425 42.1921 76.186 44.5293 76.6724C45.081 76.7873 45.3109 76.8444 45.656 77.2859C46.0556 78.4352 45.3874 83.4992 46.1581 83.9035C46.6708 84.1723 52.323 84.0457 53.2861 84.0448C54.656 84.0539 54.9445 83.9728 54.9479 82.4994L54.9391 79.5298C54.9292 76.1682 55.1696 77.0368 58.0896 76.1896C60.1723 75.5854 62.1978 74.7183 64.06 73.6048C66.2468 72.2973 65.9295 72.0755 68.0178 74.1525C69.0208 75.1499 70.8738 77.666 72.1872 76.667C72.9862 76.0592 76.283 72.7635 77.0048 71.9119C77.9223 70.8293 76.6944 69.8893 75.9449 69.1547L74.0707 67.3129C71.8955 65.1607 73.3118 64.9343 74.7302 62.3456C75.55 60.849 76.1689 59.2372 76.6524 57.6027C77.4964 54.7491 76.7223 54.4954 79.8739 54.5101L82.6536 54.5252C85.1872 54.5439 84.4437 53.6644 84.4412 51.1854C84.4402 50.2152 84.6685 46.3875 84.2701 45.6888C83.5848 45.1029 78.9856 45.8241 77.8253 45.3535C76.9823 45.0116 76.938 43.3745 76.7549 42.6267C76.2643 40.6232 75.4028 38.4851 74.3767 36.7103C73.7097 35.5569 72.3925 34.4638 73.5558 33.2485C74.3874 32.3795 75.2619 31.5331 76.1242 30.6937C76.9418 29.8978 78.2701 29.147 77.0865 28.0121C76.3733 27.3285 72.074 22.7346 71.4952 22.7478C70.5342 22.7696 67.6745 26.7344 66.4228 27.2525C65.5744 27.6036 64.4941 26.5097 63.8126 26.108C61.8551 24.9531 59.7955 24.0772 57.6077 23.4534C56.7092 23.1972 55.0877 23.1733 54.9428 22.0214C54.7192 20.2436 55.5529 17.3253 54.3764 15.9151C51.7673 15.8785 49.1529 15.9155 46.5431 15.9151Z" fill="white"/>
<path d="M51.4321 71.1548C45.8614 71.2048 41.2087 69.9233 36.7907 66.2654C21.8105 53.8614 29.74 30.532 49.2397 28.7318C60.4275 27.9881 70.6514 37.0272 71.4942 48.1707C72.4241 60.4657 63.6096 70.2247 51.4321 71.1548ZM49.2397 30.9384C43.8233 31.4472 39.1806 33.6198 35.6375 37.8939C29.0522 45.8379 29.9528 57.7591 37.9768 64.3698C38.7119 64.9753 39.5179 65.4934 40.2113 66.1471C39.8726 65.1145 38.3208 61.1269 38.727 60.2606C39.1035 59.4579 40.2145 59.5073 40.6091 60.2465C40.9434 60.8727 41.1158 61.7342 41.3301 62.4174L42.6792 66.6843L42.7711 66.7079C43.8966 67.0004 44.9685 67.4778 46.1011 67.7726C50.3647 68.8823 53.8025 68.2806 57.8074 66.6843C59.2363 63.3391 60.2689 59.4583 61.6132 55.9854H39.0745C38.858 58.8619 35.5109 56.3485 36.8197 54.2375C37.7152 53.3729 39.3961 53.7719 40.5272 53.7696C41.5058 51.2858 43.5925 48.6518 46.2539 47.8719L46.2476 43.9495C46.2401 40.8168 46.1105 40.8832 49.2397 40.9119C49.2352 39.4343 48.6132 36.9278 50.3097 36.4891C52.1262 36.957 51.4307 39.1775 51.4321 40.9119C54.7511 40.8788 54.3828 41.1173 54.379 44.1688L54.3761 47.8719C56.9903 48.6554 59.527 51.248 60.5598 53.7696C61.9286 53.7639 63.6745 53.2695 64.2312 54.8152C64.0126 56.2628 63.2859 57.8219 62.7765 59.2055C61.9375 61.4841 61.0708 63.8198 60.3746 66.1471C69.6322 60.2427 72.086 48.6439 66.1652 39.4387C62.6456 33.9669 55.7932 30.3812 49.2397 30.9384ZM48.42 43.1185V47.1072C49.7023 47.0862 50.9895 47.14 52.2688 47.1072C52.2787 45.7779 52.2506 44.4477 52.2688 43.1185C50.9876 43.1307 49.701 43.1433 48.42 43.1185ZM49.6177 49.3228C46.7754 49.4875 44.1532 51.1804 42.9425 53.7696H51.4321L55.814 53.7668C56.5833 53.766 57.3576 53.7381 58.126 53.7696C56.5702 51.1896 52.7792 48.6928 49.6177 49.3228Z" fill="white"/>
</g>
<defs>
<clipPath id="clip0_192_282">
<rect x="0.333008" width="100" height="100" rx="12" fill="white"/>
</clipPath>
</defs>
</svg>
