<svg width="101" height="100" viewBox="0 0 101 100" fill="none" xmlns="http://www.w3.org/2000/svg">
<g clip-path="url(#clip0_172_905)">
<rect x="0.333008" width="100" height="100" rx="12" fill="#2798D5"/>
<path d="M19.8496 56.7972C19.1025 55.8783 18.072 55.1054 17.1902 54.3169L12.8262 50.3826C10.4085 48.2138 8.25789 45.5005 11.1111 42.2632C12.0402 41.2091 13.4971 40.7997 14.734 40.2338C21.9192 36.946 28.6849 32.9178 35.6114 29.1404C40.1877 26.6446 43.8998 25.0552 49.241 24.7022C59.0294 24.2318 67.0496 30.318 75.2452 34.7667C78.8795 36.7394 82.5174 38.8412 86.3173 40.487C87.4533 40.9791 88.697 41.3336 89.572 42.2597C91.0295 43.8022 91.1882 46.3728 90.0105 48.1274C89.2691 49.232 87.7829 50.3821 86.7954 51.3097L80.6921 57.0279C80.6964 58.8235 81.0725 60.4629 79.6498 61.8328C79.7928 62.5752 80.0549 63.3153 80.0571 64.0762C80.0815 72.7481 57.3809 74.5305 51.4737 74.4555C43.4861 74.4563 35.0488 74.038 27.5857 70.9526C23.7633 69.3722 19.025 66.6004 21.0651 61.8328C19.4725 60.2516 19.8657 58.9039 19.8496 56.7972ZM50.1442 26.8496C42.9268 26.8766 37.5594 30.466 31.5144 33.9371C27.0361 36.5083 22.4684 38.9989 17.7912 41.1955C16.6902 41.7126 13.5453 42.9435 12.8063 43.6705C11.5986 44.8585 11.8128 46.5282 12.9764 47.6351C14.5595 49.1409 19.2932 53.6869 21.0651 54.7232C26.0242 51.6247 37.9942 49.1804 44.4035 49.0673C42.6602 47.5396 41.5028 46.2025 40.7775 43.9558C38.6286 37.2985 43.2999 29.8422 50.5773 30.1584C58.7966 30.2452 63.3061 40.3703 58.5051 46.8923C57.9345 47.6672 57.2599 48.3641 56.6052 49.0673C64.9931 49.8558 72.1885 50.8819 79.6498 54.9013C81.9321 52.9189 84.1529 50.8155 86.3427 48.7327C87.5716 47.5638 89.9971 45.8891 88.1616 43.8927C87.3067 42.9627 85.7852 42.6104 84.6695 42.1041C78.5359 39.3215 72.7637 35.8562 66.8937 32.5715C61.7868 29.7135 56.2244 26.4449 50.1442 26.8496ZM49.5277 32.3402C42.0908 33.2632 39.9288 42.8326 45.4868 47.1323C47.4484 48.6496 48.9851 48.8104 51.3634 48.8133C53.177 48.9722 53.4788 48.7238 54.8602 47.5654C58.5993 44.4303 59.5967 39.0531 56.3314 35.1825C54.7883 33.353 51.9878 31.9153 49.5277 32.3402ZM48.5116 50.959C40.3947 50.9518 29.304 52.9791 21.9986 56.5797C21.9959 57.4969 21.9002 58.7588 21.9986 59.6275C23.029 60.8799 25.3907 59.7019 27.0587 59.4135C35.6941 57.9203 43.4273 57.4734 52.0893 57.4767C58.9034 57.4577 65.7349 58.1079 72.4596 59.1849C74.3024 59.4799 76.1075 59.9895 77.9456 60.2755C78.9278 59.7918 78.4823 57.8304 78.487 56.7972C70.7264 52.3318 57.6329 50.9408 48.5116 50.959ZM47.3754 59.6275C46.0562 59.7417 44.7364 59.7613 43.4143 59.8182C37.3568 60.0796 29.1673 60.8713 23.2108 62.4558C21.5749 65.5482 24.8685 67.261 27.3282 68.4402C35.1867 72.2081 44.6455 72.1954 53.2029 72.3155C55.421 72.0838 57.6487 72.0209 59.8709 71.7647C63.1286 71.3893 81.1172 68.695 77.2231 62.4558C76.464 62.2066 75.6594 62.0691 74.8764 61.9161C65.5192 60.0881 56.8123 59.624 47.3754 59.6275Z" fill="white"/>
<path d="M49.2404 37.1911C49.2623 35.9426 48.7337 34.5912 50.1436 33.9773C51.9227 33.9538 51.4647 35.9733 51.4731 37.1911C52.0629 37.2102 52.9226 37.1329 53.3714 37.5687C54.7712 38.9281 52.72 39.5466 51.4731 39.5213V43.2338C52.2415 42.665 53.3615 41.5552 54.1631 41.1858C55.0518 40.7762 56.1294 41.6758 55.6924 42.6153C55.359 43.3313 51.1418 46.2727 50.5767 46.4616C48.9433 46.4544 48.2127 45.4308 47.1098 44.3928C46.4412 43.7634 44.4186 42.4438 45.3294 41.3651C46.4744 40.0092 48.4376 42.6514 49.2404 43.4016V39.5213C48.663 39.4761 47.7221 39.6171 47.265 39.2077C46.8028 38.7935 46.7385 37.9897 47.1823 37.538C47.6419 37.0702 48.6325 37.19 49.2404 37.1911Z" fill="white"/>
</g>
<defs>
<clipPath id="clip0_172_905">
<rect x="0.333008" width="100" height="100" rx="12" fill="white"/>
</clipPath>
</defs>
</svg>
