<svg width="101" height="100" viewBox="0 0 101 100" fill="none" xmlns="http://www.w3.org/2000/svg">
<g clip-path="url(#clip0_172_891)">
<rect x="0.666992" width="100" height="100" rx="12" fill="#2798D5"/>
<path d="M43.904 21.0449C43.9082 18.2734 42.9112 14.577 46.5883 13.714C47.9964 13.656 49.4251 13.7163 50.8351 13.7145C52.5954 13.7123 55.0424 13.2559 56.4567 14.5863C57.9526 15.9933 57.4649 19.0924 57.4964 21.0449C60.3108 21.5216 63.9177 23.3617 66.3208 24.7843C67.3333 23.7288 69.7961 20.9262 71.0754 20.6482C73.1667 20.1933 74.0981 21.6592 75.4159 22.9509L77.9808 25.4814C82.8104 30.262 78.4861 30.7486 75.9115 34.5561C77.6504 36.594 78.9287 40.7253 79.5659 43.2484L82.2666 43.2436C84.9957 43.2387 86.9417 43.3635 86.9507 46.5901L86.9549 51.9168C86.9545 53.7751 87.2319 55.971 84.9132 56.6048C83.9012 56.8814 80.798 56.7413 79.5659 56.7388C78.8523 59.2259 78.056 61.5879 76.7745 63.8405C76.4725 64.3714 76.1018 64.8989 75.9115 65.4815C76.878 67.4682 81.569 69.4288 79.5319 72.7084C79.0457 73.4911 74.6679 77.8183 73.6688 78.6206C71.012 80.754 67.8064 77.0329 66.3208 75.1314C65.2435 75.583 64.2358 76.2745 63.1808 76.7922C61.3631 77.6841 59.447 78.2314 57.4964 78.7447L57.5008 81.3742C57.5153 83.7015 57.5924 85.8398 54.7104 86.2273L49.3207 86.2311C42.8766 86.2307 43.8951 84.0846 43.904 78.7447C41.3605 78.4721 37.3222 76.3598 35.1438 75.1314C33.2082 76.6454 30.8569 80.7047 28.0919 78.9444C26.9297 78.2043 23.3715 74.4191 22.2435 73.2023C19.534 70.2798 23.4167 67.3943 25.5403 65.4815C24.079 63.2902 22.1419 59.3425 21.8029 56.7388C18.6671 56.7228 14.459 57.8235 14.3763 53.3343C14.3476 51.7792 14.3739 50.2199 14.3716 48.6643C14.3683 46.5432 14.0054 43.9091 16.697 43.2289C17.6935 42.9768 20.637 43.1167 21.8029 43.1188C22.2372 40.4775 24.0656 36.799 25.5403 34.5561C22.535 31.378 19.1472 29.598 23.0403 25.6754L25.1885 23.5352C26.5952 22.1382 28.5235 19.4377 30.8182 20.6931C31.7165 21.1843 34.3708 23.9294 35.1438 24.7843C37.4142 23.1055 41.128 21.6529 43.904 21.0449ZM46.8771 15.9156C44.9576 16.5358 46.6087 20.9514 45.8411 22.5311C45.496 23.2412 43.9596 23.2615 43.2937 23.4638C41.3576 24.0512 39.5013 24.798 37.7229 25.7632C33.6481 27.9746 35.0399 27.8106 30.9944 23.7307C29.0388 21.7583 29.2484 22.5696 27.389 24.4198C26.7216 25.084 23.5259 27.9651 23.315 28.675C23.1478 29.2378 24.4451 30.3202 24.7847 30.6606L26.6806 32.5612C29.0449 34.9007 27.917 34.5519 26.2396 37.5359C25.5764 38.7157 23.4769 44.9306 23.323 45.053C22.0102 46.0978 16.8379 44.2417 16.56 46.1982C16.3954 47.357 16.444 52.366 16.5491 53.5584C16.6311 54.4887 17.1363 54.6347 18.0226 54.6532C18.8586 54.6706 22.8904 54.4455 23.3492 54.8886C23.7489 55.2746 24.2244 57.5339 24.4465 58.2288C24.9762 59.8868 25.6499 61.5005 26.5315 63.004C26.882 63.6021 27.8636 64.9084 28.0528 65.3918C28.4947 66.5221 24.1576 69.4963 23.537 70.7263C23.1701 71.4535 24.1853 72.0777 24.6389 72.5221L26.5838 74.4306C27.0488 74.8906 29.0332 77.2605 29.6189 77.2223C30.3661 77.1734 33.4721 73.2903 34.5083 72.7119C35.3633 72.2348 37.3363 73.8777 38.0913 74.2864C40.196 75.4255 42.5261 76.1865 44.8633 76.6729C45.415 76.7878 45.6449 76.8449 45.99 77.2864C46.3896 78.4357 45.7214 83.4997 46.4921 83.904C47.0047 84.1728 52.657 84.0462 53.6201 84.0453C54.99 84.0543 55.2785 83.9733 55.2819 82.4998L55.273 79.5303C55.2632 76.1687 55.5036 77.0373 58.4236 76.1901C60.5063 75.5859 62.5318 74.7188 64.394 73.6053C66.5808 72.2978 66.2635 72.076 68.3518 74.153C69.3548 75.1503 71.2077 77.6665 72.5211 76.6675C73.3202 76.0597 76.617 72.764 77.3388 71.9124C78.2563 70.8298 77.0284 69.8898 76.2788 69.1552L74.4047 67.3134C72.2294 65.1612 73.6457 64.9348 75.0642 62.346C75.884 60.8495 76.5029 59.2377 76.9864 57.6032C77.8304 54.7496 77.0563 54.4959 80.2079 54.5106L82.9876 54.5257C85.5212 54.5444 84.7777 53.6649 84.7752 51.1859C84.7742 50.2157 85.0024 46.388 84.6041 45.6893C83.9188 45.1034 79.3196 45.8246 78.1593 45.3539C77.3163 45.0121 77.272 43.375 77.0889 42.6272C76.5983 40.6237 75.7368 38.4856 74.7107 36.7108C74.0437 35.5574 72.7265 34.4643 73.8898 33.249C74.7214 32.38 75.5959 31.5336 76.4582 30.6942C77.2758 29.8983 78.6041 29.1475 77.4205 28.0126C76.7073 27.329 72.4079 22.7351 71.8292 22.7483C70.8682 22.7701 68.0085 26.7349 66.7568 27.253C65.9084 27.6041 64.8281 26.5102 64.1466 26.1084C62.1891 24.9536 60.1295 24.0776 57.9416 23.4539C57.0432 23.1977 55.4217 23.1738 55.2768 22.0219C55.0532 20.2441 55.8869 17.3258 54.7104 15.9156C52.1013 15.879 49.4869 15.916 46.8771 15.9156Z" fill="white"/>
<path d="M51.7661 71.1551C46.1954 71.205 41.5427 69.9236 37.1247 66.2656C22.1445 53.8616 30.074 30.5322 49.5736 28.732C60.7615 27.9884 70.9854 37.0274 71.8282 48.171C72.7581 60.466 63.9436 70.2249 51.7661 71.1551ZM49.5736 30.9386C44.1573 31.4475 39.5146 33.62 35.9715 37.8941C29.3862 45.8382 30.2868 57.7594 38.3108 64.3701C39.0458 64.9755 39.8519 65.4936 40.5453 66.1474C40.2066 65.1148 38.6548 61.1271 39.061 60.2608C39.4375 59.4581 40.5485 59.5075 40.9431 60.2467C41.2774 60.873 41.4498 61.7344 41.664 62.4176L43.0131 66.6846L43.1051 66.7081C44.2306 67.0006 45.3025 67.478 46.435 67.7729C50.6987 68.8825 54.1365 68.2809 58.1414 66.6846C59.5703 63.3393 60.6029 59.4586 61.9472 55.9856H39.4085C39.192 58.8621 35.8449 56.3487 37.1537 54.2377C38.0491 53.3731 39.7301 53.7721 40.8612 53.7698C41.8398 51.286 43.9265 48.6521 46.5879 47.8721L46.5816 43.9498C46.5741 40.817 46.4445 40.8834 49.5736 40.9122C49.5692 39.4346 48.9472 36.9281 50.6436 36.4894C52.4602 36.9573 51.7647 39.1777 51.7661 40.9122C55.0851 40.879 54.7168 41.1176 54.713 44.169L54.7101 47.8721C57.3243 48.6557 59.861 51.2482 60.8938 53.7698C62.2626 53.7642 64.0084 53.2698 64.5652 54.8155C64.3466 56.2631 63.6199 57.8222 63.1104 59.2057C62.2715 61.4843 61.4047 63.8201 60.7086 66.1474C69.9662 60.243 72.42 48.6441 66.4992 39.439C62.9796 33.9672 56.1272 30.3815 49.5736 30.9386ZM48.754 43.1188V47.1075C50.0363 47.0865 51.3234 47.1402 52.6028 47.1075C52.6127 45.7781 52.5845 44.4479 52.6028 43.1188C51.3215 43.1309 50.035 43.1435 48.754 43.1188ZM49.9517 49.3231C47.1094 49.4877 44.4872 51.1806 43.2765 53.7698H51.7661L56.148 53.7671C56.9173 53.7663 57.6916 53.7383 58.46 53.7698C56.9042 51.1898 53.1131 48.693 49.9517 49.3231Z" fill="white"/>
</g>
<defs>
<clipPath id="clip0_172_891">
<rect x="0.666992" width="100" height="100" rx="12" fill="white"/>
</clipPath>
</defs>
</svg>
