<svg width="101" height="100" viewBox="0 0 101 100" fill="none" xmlns="http://www.w3.org/2000/svg">
<g clip-path="url(#clip0_192_122)">
<rect x="0.666992" width="100" height="100" rx="12" fill="#2798D5"/>
<path d="M43.904 21.0444C43.9082 18.2729 42.9112 14.5765 46.5883 13.7135C47.9964 13.6555 49.4251 13.7158 50.8351 13.714C52.5954 13.7118 55.0424 13.2554 56.4567 14.5858C57.9526 15.9928 57.4649 19.0919 57.4964 21.0444C60.3108 21.5211 63.9177 23.3612 66.3208 24.7838C67.3333 23.7283 69.7961 20.9258 71.0754 20.6477C73.1667 20.1928 74.0981 21.6587 75.4159 22.9505L77.9808 25.4809C82.8104 30.2615 78.4861 30.7481 75.9115 34.5556C77.6504 36.5935 78.9287 40.7248 79.5659 43.2479L82.2666 43.2431C84.9957 43.2382 86.9417 43.363 86.9507 46.5896L86.9549 51.9163C86.9545 53.7746 87.2319 55.9705 84.9132 56.6043C83.9012 56.8809 80.798 56.7408 79.5659 56.7383C78.8523 59.2254 78.056 61.5874 76.7745 63.84C76.4725 64.3709 76.1018 64.8984 75.9115 65.481C76.878 67.4677 81.569 69.4284 79.5319 72.7079C79.0457 73.4906 74.6679 77.8178 73.6688 78.6201C71.012 80.7536 67.8064 77.0324 66.3208 75.131C65.2435 75.5825 64.2358 76.274 63.1808 76.7917C61.3631 77.6836 59.447 78.2309 57.4964 78.7442L57.5008 81.3737C57.5153 83.701 57.5924 85.8394 54.7104 86.2268L49.3207 86.2306C42.8766 86.2302 43.8951 84.0841 43.904 78.7442C41.3605 78.4716 37.3222 76.3593 35.1438 75.131C33.2082 76.6449 30.8569 80.7042 28.0919 78.9439C26.9297 78.2038 23.3715 74.4186 22.2435 73.2018C19.534 70.2793 23.4167 67.3938 25.5403 65.481C24.079 63.2898 22.1419 59.342 21.8029 56.7383C18.6671 56.7223 14.459 57.823 14.3763 53.3338C14.3476 51.7787 14.3739 50.2194 14.3716 48.6638C14.3683 46.5427 14.0054 43.9086 16.697 43.2284C17.6935 42.9764 20.637 43.1162 21.8029 43.1183C22.2372 40.477 24.0656 36.7985 25.5403 34.5556C22.535 31.3775 19.1472 29.5975 23.0403 25.6749L25.1885 23.5347C26.5952 22.1377 28.5235 19.4372 30.8182 20.6926C31.7165 21.1839 34.3708 23.9289 35.1438 24.7838C37.4142 23.105 41.128 21.6524 43.904 21.0444ZM46.8771 15.9151C44.9576 16.5353 46.6087 20.951 45.8411 22.5306C45.496 23.2407 43.9596 23.2611 43.2937 23.4633C41.3576 24.0507 39.5013 24.7975 37.7229 25.7627C33.6481 27.9741 35.0399 27.8101 30.9944 23.7302C29.0388 21.7578 29.2484 22.5691 27.389 24.4193C26.7216 25.0835 23.5259 27.9647 23.315 28.6745C23.1478 29.2373 24.4451 30.3197 24.7847 30.6601L26.6806 32.5607C29.0449 34.9002 27.917 34.5514 26.2396 37.5354C25.5764 38.7153 23.4769 44.9301 23.323 45.0525C22.0102 46.0973 16.8379 44.2412 16.56 46.1977C16.3954 47.3565 16.444 52.3655 16.5491 53.5579C16.6311 54.4883 17.1363 54.6342 18.0226 54.6527C18.8586 54.6701 22.8904 54.445 23.3492 54.8881C23.7489 55.2741 24.2244 57.5334 24.4465 58.2283C24.9762 59.8863 25.6499 61.5001 26.5315 63.0035C26.882 63.6016 27.8636 64.9079 28.0528 65.3913C28.4947 66.5216 24.1576 69.4958 23.537 70.7258C23.1701 71.4531 24.1853 72.0772 24.6389 72.5216L26.5838 74.4302C27.0488 74.8901 29.0332 77.26 29.6189 77.2218C30.3661 77.1729 33.4721 73.2898 34.5083 72.7114C35.3633 72.2343 37.3363 73.8772 38.0913 74.2859C40.196 75.425 42.5261 76.186 44.8633 76.6724C45.415 76.7873 45.6449 76.8444 45.99 77.2859C46.3896 78.4352 45.7214 83.4992 46.4921 83.9035C47.0047 84.1723 52.657 84.0457 53.6201 84.0448C54.99 84.0539 55.2785 83.9728 55.2819 82.4994L55.273 79.5298C55.2632 76.1682 55.5036 77.0368 58.4236 76.1896C60.5063 75.5854 62.5318 74.7183 64.394 73.6048C66.5808 72.2973 66.2635 72.0755 68.3518 74.1525C69.3548 75.1499 71.2077 77.666 72.5211 76.667C73.3202 76.0592 76.617 72.7635 77.3388 71.9119C78.2563 70.8293 77.0284 69.8893 76.2788 69.1547L74.4047 67.3129C72.2294 65.1607 73.6457 64.9343 75.0642 62.3456C75.884 60.849 76.5029 59.2372 76.9864 57.6027C77.8304 54.7491 77.0563 54.4954 80.2079 54.5101L82.9876 54.5252C85.5212 54.5439 84.7777 53.6644 84.7752 51.1854C84.7742 50.2152 85.0024 46.3875 84.6041 45.6888C83.9188 45.1029 79.3196 45.8241 78.1593 45.3535C77.3163 45.0116 77.272 43.3745 77.0889 42.6267C76.5983 40.6232 75.7368 38.4851 74.7107 36.7103C74.0437 35.5569 72.7265 34.4638 73.8898 33.2485C74.7214 32.3795 75.5959 31.5331 76.4582 30.6937C77.2758 29.8978 78.6041 29.147 77.4205 28.0121C76.7073 27.3285 72.4079 22.7346 71.8292 22.7478C70.8682 22.7696 68.0085 26.7344 66.7568 27.2525C65.9084 27.6036 64.8281 26.5097 64.1466 26.108C62.1891 24.9531 60.1295 24.0772 57.9416 23.4534C57.0432 23.1972 55.4217 23.1733 55.2768 22.0214C55.0532 20.2436 55.8869 17.3253 54.7104 15.9151C52.1013 15.8785 49.4869 15.9155 46.8771 15.9151Z" fill="white"/>
<path d="M51.7661 71.1548C46.1954 71.2048 41.5427 69.9233 37.1247 66.2654C22.1445 53.8614 30.074 30.532 49.5736 28.7318C60.7615 27.9881 70.9854 37.0272 71.8282 48.1707C72.7581 60.4657 63.9436 70.2247 51.7661 71.1548ZM49.5736 30.9384C44.1573 31.4472 39.5146 33.6198 35.9715 37.8939C29.3862 45.8379 30.2868 57.7591 38.3108 64.3698C39.0458 64.9753 39.8519 65.4934 40.5453 66.1471C40.2066 65.1145 38.6548 61.1269 39.061 60.2606C39.4375 59.4579 40.5485 59.5073 40.9431 60.2465C41.2774 60.8727 41.4498 61.7342 41.664 62.4174L43.0131 66.6843L43.1051 66.7079C44.2306 67.0004 45.3025 67.4778 46.435 67.7726C50.6987 68.8823 54.1365 68.2806 58.1414 66.6843C59.5703 63.3391 60.6029 59.4583 61.9472 55.9854H39.4085C39.192 58.8619 35.8449 56.3485 37.1537 54.2375C38.0491 53.3729 39.7301 53.7719 40.8612 53.7696C41.8398 51.2858 43.9265 48.6518 46.5879 47.8719L46.5816 43.9495C46.5741 40.8168 46.4445 40.8832 49.5736 40.9119C49.5692 39.4343 48.9472 36.9278 50.6436 36.4891C52.4602 36.957 51.7647 39.1775 51.7661 40.9119C55.0851 40.8788 54.7168 41.1173 54.713 44.1688L54.7101 47.8719C57.3243 48.6554 59.861 51.248 60.8938 53.7696C62.2626 53.7639 64.0084 53.2695 64.5652 54.8152C64.3466 56.2628 63.6199 57.8219 63.1104 59.2055C62.2715 61.4841 61.4047 63.8198 60.7086 66.1471C69.9662 60.2427 72.42 48.6439 66.4992 39.4387C62.9796 33.9669 56.1272 30.3812 49.5736 30.9384ZM48.754 43.1185V47.1072C50.0363 47.0862 51.3234 47.14 52.6028 47.1072C52.6127 45.7779 52.5845 44.4477 52.6028 43.1185C51.3215 43.1307 50.035 43.1433 48.754 43.1185ZM49.9517 49.3228C47.1094 49.4875 44.4872 51.1804 43.2765 53.7696H51.7661L56.148 53.7668C56.9173 53.766 57.6916 53.7381 58.46 53.7696C56.9042 51.1896 53.1131 48.6928 49.9517 49.3228Z" fill="white"/>
</g>
<defs>
<clipPath id="clip0_192_122">
<rect x="0.666992" width="100" height="100" rx="12" fill="white"/>
</clipPath>
</defs>
</svg>
