<svg width="100" height="100" viewBox="0 0 100 100" fill="none" xmlns="http://www.w3.org/2000/svg">
<g clip-path="url(#clip0_192_114)">
<rect width="100" height="100" rx="12" fill="#2798D5"/>
<path d="M19.5166 56.7974C18.7695 55.8786 17.739 55.1057 16.8572 54.3171L12.4932 50.3828C10.0755 48.214 7.92488 45.5008 10.7781 42.2635C11.7072 41.2094 13.1641 40.7999 14.401 40.234C21.5862 36.9462 28.3519 32.9181 35.2784 29.1406C39.8547 26.6449 43.5668 25.0554 48.908 24.7025C58.6964 24.232 66.7165 30.3182 74.9122 34.7669C78.5465 36.7396 82.1844 38.8414 85.9843 40.4872C87.1203 40.9793 88.364 41.3339 89.239 42.26C90.6965 43.8024 90.8552 46.373 89.6774 48.1276C88.9361 49.2322 87.4499 50.3824 86.4624 51.3099L80.3591 57.0281C80.3634 58.8238 80.7395 60.4631 79.3167 61.833C79.4598 62.5754 79.7218 63.3155 79.7241 64.0765C79.7484 72.7483 57.0479 74.5308 51.1407 74.4557C43.1531 74.4565 34.7158 74.0382 27.2527 70.9529C23.4303 69.3725 18.6919 66.6007 20.7321 61.833C19.1395 60.2518 19.5327 58.9042 19.5166 56.7974ZM49.8111 26.8498C42.5937 26.8768 37.2264 30.4662 31.1814 33.9373C26.7031 36.5085 22.1354 38.9991 17.4582 41.1958C16.3572 41.7128 13.2123 42.9438 12.4733 43.6707C11.2656 44.8588 11.4798 46.5285 12.6434 47.6353C14.2264 49.1411 18.9602 53.6871 20.7321 54.7235C25.6912 51.6249 37.6612 49.1807 44.0705 49.0675C42.3272 47.5399 41.1698 46.2027 40.4445 43.956C38.2955 37.2987 42.9669 29.8424 50.2443 30.1587C58.4636 30.2454 62.9731 40.3705 58.1721 46.8925C57.6015 47.6675 56.9269 48.3643 56.2722 49.0675C64.6601 49.8561 71.8555 50.8821 79.3167 54.9016C81.5991 52.9192 83.8199 50.8157 86.0097 48.7329C87.2386 47.564 89.664 45.8894 87.8286 43.8929C86.9737 42.963 85.4522 42.6106 84.3365 42.1043C78.2029 39.3218 72.4306 35.8565 66.5607 32.5717C61.4537 29.7138 55.8914 26.4451 49.8111 26.8498ZM49.1947 32.3404C41.7578 33.2634 39.5958 42.8329 45.1538 47.1325C47.1154 48.6498 48.6521 48.8106 51.0304 48.8135C52.8439 48.9725 53.1458 48.724 54.5272 47.5656C58.2663 44.4306 59.2637 39.0534 55.9984 35.1827C54.4553 33.3533 51.6548 31.9155 49.1947 32.3404ZM48.1786 50.9592C40.0617 50.952 28.971 52.9794 21.6656 56.5799C21.6629 57.4971 21.5672 58.759 21.6656 59.6278C22.696 60.8802 25.0577 59.7022 26.7257 59.4138C35.3611 57.9206 43.0943 57.4736 51.7563 57.4769C58.5704 57.458 65.4019 58.1082 72.1266 59.1852C73.9694 59.4802 75.7745 59.9898 77.6126 60.2757C78.5948 59.7921 78.1493 57.8307 78.154 56.7974C70.3934 52.332 57.2999 50.9411 48.1786 50.9592ZM47.0424 59.6278C45.7232 59.742 44.4034 59.7616 43.0813 59.8185C37.0238 60.0799 28.8343 60.8715 22.8778 62.4561C21.2419 65.5484 24.5355 67.2612 26.9952 68.4404C34.8537 72.2084 44.3125 72.1956 52.8699 72.3158C55.088 72.0841 57.3157 72.0212 59.5379 71.7649C62.7956 71.3895 80.7842 68.6952 76.8901 62.4561C76.131 62.2068 75.3263 62.0693 74.5434 61.9163C65.1862 60.0883 56.4793 59.6243 47.0424 59.6278Z" fill="white"/>
<path d="M48.9074 37.1911C48.9293 35.9426 48.4007 34.5912 49.8106 33.9773C51.5897 33.9538 51.1317 35.9733 51.1401 37.1911C51.7299 37.2102 52.5896 37.1329 53.0384 37.5687C54.4382 38.9281 52.387 39.5466 51.1401 39.5213V43.2338C51.9085 42.665 53.0285 41.5552 53.8301 41.1858C54.7188 40.7762 55.7964 41.6758 55.3593 42.6153C55.026 43.3313 50.8088 46.2727 50.2437 46.4616C48.6103 46.4544 47.8797 45.4308 46.7768 44.3928C46.1082 43.7634 44.0856 42.4438 44.9964 41.3651C46.1414 40.0092 48.1046 42.6514 48.9074 43.4016V39.5213C48.33 39.4761 47.389 39.6171 46.932 39.2077C46.4698 38.7935 46.4055 37.9897 46.8493 37.538C47.3089 37.0702 48.2994 37.19 48.9074 37.1911Z" fill="white"/>
</g>
<defs>
<clipPath id="clip0_192_114">
<rect width="100" height="100" rx="12" fill="white"/>
</clipPath>
</defs>
</svg>
