<svg width="100" height="100" viewBox="0 0 100 100" fill="none" xmlns="http://www.w3.org/2000/svg">
<rect width="100" height="100" rx="12" fill="#2798D5"/>
<path d="M50.3564 30.4489C48.5096 30.5213 46.6367 29.1037 47.1243 27.0658C47.2575 26.5095 47.653 26.0647 47.8717 25.5445C48.3911 24.31 48.3234 23.2698 49.9154 22.9751C51.6345 22.8836 51.7568 24.4009 52.244 25.5849C52.4778 26.1529 52.8931 26.605 53.0057 27.2277C53.3066 28.8887 51.8647 30.1837 50.3564 30.4489ZM50.0463 25.1571C49.7245 26.0055 49.248 26.7876 48.933 27.6275C49.1594 28.168 49.4511 28.5077 50.0463 28.5447C50.672 28.4436 50.8774 28.1545 51.1365 27.6275C50.7356 26.8224 50.4181 25.8796 50.0463 25.1571Z" fill="white"/>
<path d="M37.5818 36.4066L37.5749 33.7138C37.5724 32.6439 37.2582 31.3483 38.7082 31.2712L59.5894 31.2703C62.3472 31.2673 62.8435 30.5765 62.8382 33.5807L62.8316 36.4066C66.0886 37.9707 66.3216 38.6117 66.3197 42.3756L66.3175 45.4434C69.1708 46.5368 73.2505 48.2826 76.0001 49.7085C76.6985 50.0707 76.9688 50.4446 76.6765 51.2202C75.736 53.7174 74.1905 56.5699 73.0775 59.0759L70.5219 64.8217C69.9564 66.1147 69.4418 68.4401 68.0456 68.7687C67.2826 68.5887 66.6637 68.0113 65.9897 67.6324C62.6524 65.7564 58.9093 65.8992 55.5251 67.6659C52.0293 69.6142 51.7199 72.416 50.581 73.2166C49.3241 74.1 48.592 71.8389 48.1077 71.0911C44.9264 66.1796 38.9677 64.9799 33.942 67.7268C33.4718 67.9837 32.2402 69.0331 31.7029 68.8561C30.9702 68.6147 29.6029 65.0553 29.2559 64.2705L24.0241 52.6677C22.7381 49.7538 22.6497 50.1283 25.3613 48.9205L28.5847 47.4718C30.3488 46.6761 32.0871 45.7698 33.889 45.0667L33.8858 42.2475C33.8839 39.1471 34.2816 37.3439 37.5818 36.4066ZM40.141 33.226H39.493C39.492 34.2833 39.4617 35.3502 39.493 36.4066L44.0767 36.403C44.8237 36.4028 45.6347 36.337 46.3741 36.4271C47.1386 36.5202 47.5054 37.4808 46.9152 38.0305C46.099 38.7905 38.9754 37.8596 37.2858 38.5282C35.1932 39.3558 35.8029 42.3973 35.7943 44.1583C40.1104 42.3596 42.8526 41.5575 47.5911 43.4941C48.3868 43.8192 49.1263 44.2576 49.9149 44.5931L49.9812 44.5679C51.9018 43.8307 52.812 43.1157 55.1123 42.7254C59.2941 42.038 60.9878 43.4032 64.4317 44.5931C64.4368 42.1902 65.2225 38.2899 61.6179 38.2993L58.9509 38.3153C58.3908 38.319 57.3247 38.483 56.8884 38.0258C56.3311 37.4417 56.667 36.5136 57.4734 36.4049C57.8612 36.3524 58.3015 36.3996 58.6936 36.4038L60.9094 36.4066V33.226H40.141ZM41.6089 44.3103C38.2241 44.7103 34.9205 46.7232 31.8656 48.1256C29.728 49.1069 27.4635 49.9752 25.4049 51.1153L25.6994 51.7554C27.5398 51.2091 29.3887 50.6718 31.2186 50.0916C36.9832 48.2886 42.9869 46.4232 49.0889 46.4854C47.0489 44.9587 44.1446 44.1073 41.6089 44.3103ZM56.3183 44.5931C54.2643 44.8353 52.3648 45.3975 50.5597 46.4217C56.4225 46.9204 60.2771 47.7173 66.0271 49.3965L70.2046 50.5821C71.5386 50.9866 72.871 51.4199 74.2243 51.7554C74.3449 51.541 74.4592 51.3193 74.5967 51.1153C73.6673 50.6808 72.7108 50.3013 71.7689 49.8951L63.6016 46.3182C61.2579 45.2937 58.9372 44.3518 56.3183 44.5931ZM48.1536 48.359C43.2838 48.7372 39.6716 49.6224 34.9442 51.0171L26.567 53.5549C27.0106 54.9031 27.7569 56.2329 28.3421 57.5304L32.3498 66.4182C38.0883 62.9471 44.8267 63.8774 49.0889 69.116C49.1327 65.653 49.0894 62.1835 49.09 58.7197L49.0829 56.1383C49.077 55.5944 49.0351 55.0244 49.0917 54.4835C49.2068 53.3852 50.6444 53.2998 50.9829 54.3107V69.116C54.852 63.8566 62.3959 63.014 67.7479 66.4182C68.1834 65.5672 68.5099 64.6562 68.8876 63.778C70.3519 60.3726 72.1154 57.0424 73.3592 53.5549C71.2527 52.7953 69.0305 52.2751 66.8777 51.6544C60.0481 49.685 55.2477 48.3071 48.1536 48.359Z" fill="white"/>
<path d="M54.2588 38.3131C53.3696 38.3262 50.2513 38.411 49.6151 38.2344C48.5596 37.9414 48.7945 36.8127 49.6279 36.4068C50.2445 36.376 53.9101 36.35 54.3064 36.4689C55.2777 36.7598 55.0534 37.9736 54.2588 38.3131Z" fill="white"/>
<path d="M9.50586 69.4095C9.632 68.8404 9.83234 68.5647 10.4362 68.4726C16.4611 67.9661 17.5538 71.4933 21.4775 73.2466C23.9365 74.3455 27.0238 74.123 29.321 72.7272C30.5027 72.0092 31.2459 71.2618 32.6034 70.7448C35.9985 69.4515 39.887 69.7208 42.9053 71.8093C43.9765 72.5504 44.8506 73.4919 46.0653 74.0237C49.8434 75.6782 53.466 74.7741 56.5241 72.3281C59.9279 69.6055 64.7417 69.1547 68.5532 71.3887C71.1207 72.8935 71.7026 73.9327 75.1478 73.8586C79.8803 73.7569 81.0023 70.663 84.8904 69.2068C85.7921 68.869 88.8476 68.1418 89.7163 68.5738C90.7452 69.0853 90.2245 70.1118 89.2697 70.351C83.2098 70.7566 83.7945 72.8651 79.3584 74.8693C76.3038 76.2493 72.5235 76.0821 69.6079 74.4206C68.4336 73.7514 67.4769 72.8794 66.1853 72.3941C63.5553 71.406 60.4622 71.8356 58.1783 73.4624C56.8551 74.4049 56.5476 75.0075 54.9338 75.7254C51.622 77.1981 47.0286 77.1186 43.9503 75.0914C42.6013 74.2028 41.5886 73.0385 40.0365 72.4447C36.4677 71.0796 33.7197 72.0284 30.8365 74.0535C27.3798 76.4814 22.3844 76.487 18.9215 74.0662C16.45 72.3385 15.4459 70.9304 12.2892 70.4589C10.9976 70.266 9.89143 70.7521 9.50586 69.4095Z" fill="white"/>
</svg>
