<svg width="17" height="20" viewBox="0 0 17 20" fill="none" xmlns="http://www.w3.org/2000/svg">
<g clip-path="url(#clip0_307_255)">
<path d="M8.76562 8.7249C8.76562 8.00882 8.48116 7.32206 7.97481 6.81571C7.46846 6.30937 6.78171 6.0249 6.06562 6.0249H2.01562V16.1499H6.74062C7.27769 16.1499 7.79275 16.3632 8.17252 16.743C8.55228 17.1228 8.76562 17.6378 8.76562 18.1749M8.76562 8.7249V18.1749M8.76562 8.7249C8.76562 8.00882 9.05009 7.32206 9.55644 6.81571C10.0628 6.30937 10.7495 6.0249 11.4656 6.0249H15.5156V16.1499H10.7906C10.2536 16.1499 9.73849 16.3632 9.35873 16.743C8.97897 17.1228 8.76562 17.6378 8.76562 18.1749" stroke="#191919" stroke-width="1.35" stroke-linecap="round" stroke-linejoin="round"/>
</g>
<defs>
<clipPath id="clip0_307_255">
<rect width="16" height="20" fill="white" transform="translate(0.666016)"/>
</clipPath>
</defs>
</svg>
