<svg width="17" height="18" viewBox="0 0 17 18" fill="none" xmlns="http://www.w3.org/2000/svg">
<g clip-path="url(#clip0_307_205)">
<path d="M1.00977 1.57471L15.8598 16.4247M11.6208 8.36521C12.1737 8.63504 12.6907 8.97291 13.1598 9.37096M3.70977 9.37096C4.71017 8.53452 5.91423 7.9779 7.19952 7.75771M7.56402 4.30846C9.01014 4.19193 10.4649 4.36797 11.8415 4.82606C13.2181 5.28415 14.4883 6.01491 15.5763 6.97471M1.29327 6.97471C2.2296 6.14706 3.30321 5.48918 4.46577 5.03071M6.09252 11.774C6.77778 11.2871 7.59754 11.0256 8.43814 11.0256C9.27874 11.0256 10.0985 11.2871 10.7838 11.774M8.43477 14.3997H8.44152" stroke="#191919" stroke-width="1.35" stroke-linecap="round" stroke-linejoin="round"/>
</g>
<defs>
<clipPath id="clip0_307_205">
<rect width="16.2" height="16.2" fill="white" transform="translate(0.333984 0.899902)"/>
</clipPath>
</defs>
</svg>
