<svg width="25" height="24" viewBox="0 0 25 24" fill="none" xmlns="http://www.w3.org/2000/svg">
<path fill-rule="evenodd" clip-rule="evenodd" d="M12.334 2C17.8568 2 22.334 6.47715 22.334 12C22.334 17.5228 17.8568 22 12.334 22C6.81114 22 2.33398 17.5228 2.33398 12C2.33398 6.47715 6.81114 2 12.334 2ZM12.334 4C7.91571 4 4.33398 7.58172 4.33398 12C4.33398 16.4183 7.91571 20 12.334 20C16.7523 20 20.334 16.4183 20.334 12C20.334 7.58172 16.7523 4 12.334 4ZM15.2869 8.71077C15.6679 8.32113 16.2952 8.322 16.6751 8.71269C17.0417 9.0896 17.0411 9.69001 16.6737 10.0662L10.878 16L7.99124 13.0318C7.62533 12.6556 7.62533 12.0565 7.99124 11.6803C8.37179 11.289 9.00022 11.2889 9.38083 11.6801L10.878 13.219L15.2869 8.71077Z" fill="#00A911"/>
</svg>
