<svg width="1440" height="81" viewBox="0 0 1440 81" fill="none" xmlns="http://www.w3.org/2000/svg">
<g opacity="0.2" clip-path="url(#clip0_231_20)">
<path d="M745.421 313.098C752.919 315.055 760.699 316.468 768.876 317.958C776.067 319.261 783.497 320.618 790.794 322.383L791.864 322.645C795.462 323.523 799.181 324.433 802.991 324.462C807.953 324.479 812.385 323.122 815.686 321.94C825.857 318.289 833.817 313.149 841.515 308.175C846.453 304.985 851.119 301.967 856.091 299.543C866.069 294.668 877.364 291.242 890.637 289.07C898.514 287.778 906.398 286.792 914.75 285.745C927.167 284.186 940.008 282.571 955.017 279.74C994.78 272.238 1041.66 277.212 1071.67 292.123C1073.46 293.017 1075.04 294.264 1076.71 295.579C1077.87 296.489 1079.06 297.436 1080.35 298.26C1088.13 303.263 1100.23 309.866 1115.55 318.231C1143.34 333.388 1181.4 354.148 1219.46 379.675L1219.95 380.003C1277.58 418.664 1332.02 455.187 1394.69 471.544C1395.58 471.777 1396.51 471.236 1396.74 470.34C1396.97 469.445 1396.43 468.521 1395.54 468.287C1333.42 452.075 1279.21 415.707 1221.83 377.205L1221.34 376.878C1183.15 351.257 1145.02 330.46 1117.17 315.269C1101.91 306.946 1089.85 300.364 1082.18 295.431C1081.03 294.689 1079.95 293.841 1078.8 292.933C1077.07 291.558 1075.27 290.141 1073.17 289.097C1042.55 273.896 994.825 268.797 954.405 276.423C939.495 279.237 926.71 280.84 914.338 282.394C905.959 283.442 898.046 284.438 890.098 285.738C876.498 287.963 864.892 291.482 854.623 296.507C849.47 299.024 844.729 302.091 839.7 305.335C832.167 310.205 824.374 315.241 814.567 318.761C811.517 319.852 807.451 321.104 803.028 321.089C799.618 321.06 796.086 320.199 792.676 319.37L791.597 319.105C784.211 317.317 776.73 315.956 769.49 314.64C760.506 313.008 752.022 311.464 743.932 309.204C729.326 305.123 717.264 297.861 710.827 289.302C707.205 284.487 705.005 279.486 702.674 274.19C700.532 269.335 698.331 264.308 694.849 258.955C690.506 252.273 684.311 246.517 675.911 241.35C641.233 220.011 628.044 223.561 605.857 232.267C591.456 237.927 575.068 241.407 555.755 242.898C544.766 243.752 516.709 244.691 493.473 235.026C492.373 234.574 491.292 234.118 490.225 233.674C482.484 230.445 475.175 227.398 466.503 225.004C455.36 221.913 442.176 218.116 428.959 213.344C407.234 205.517 388.976 196.169 374.672 185.565C369.303 181.581 364.261 177.274 359.381 173.113C357.255 171.297 355.064 169.429 352.893 167.619C345.403 161.394 337.862 155.669 330.487 150.605C323.268 145.642 314.733 140.327 304.693 140.107C298.97 139.979 293.341 141.588 288.064 143.246C274.349 147.58 259.292 153.79 251.618 167.033C251.156 167.834 251.425 168.87 252.227 169.331C253.034 169.803 254.063 169.523 254.525 168.722C261.625 156.478 275.971 150.595 289.07 146.456C294.072 144.883 299.4 143.361 304.616 143.47C313.729 143.674 321.769 148.686 328.581 153.377C335.864 158.391 343.327 164.052 350.739 170.205C352.899 171.995 355.081 173.86 357.194 175.664C362.116 179.862 367.2 184.207 372.665 188.259C387.23 199.061 405.786 208.566 427.812 216.506C441.143 221.307 454.398 225.132 465.606 228.24C474.076 230.572 481.291 233.586 488.93 236.771C490.005 237.217 491.086 237.673 492.186 238.125C516.099 248.063 544.793 247.116 556.021 246.246C575.665 244.72 592.376 241.168 607.094 235.391C627.171 227.507 639.284 222.746 674.149 244.204C682.113 249.109 687.968 254.533 692.032 260.785C695.365 265.908 697.521 270.81 699.601 275.536C702.016 281.01 704.291 286.187 708.145 291.315C715.02 300.458 727.734 308.16 743.035 312.44C743.837 312.667 744.633 312.883 745.439 313.094L745.421 313.098Z" fill="white"/>
<path d="M764.965 311.589C770.509 313.036 776.217 314.291 782.123 315.589C787.963 316.87 793.999 318.202 799.918 319.746L800.878 319.997C804.494 320.941 808.243 321.902 812.099 321.856C817.006 321.78 821.397 320.152 824.671 318.736C834.823 314.359 842.842 308.391 850.602 302.615C855.598 298.901 860.317 295.384 865.413 292.418C875.39 286.613 887.179 282.063 901.455 278.51C913.203 275.584 925.22 273.224 937.944 270.718C947.442 268.849 957.258 266.924 967.969 264.571C1006.2 256.189 1053.02 263.593 1081.83 282.574C1083.64 283.768 1085.2 285.28 1086.85 286.885C1087.87 287.871 1088.92 288.884 1090.03 289.818C1100.91 298.998 1122.86 311.901 1150.66 328.253C1173.24 341.538 1198.82 356.591 1225.07 373.494C1282.39 410.413 1338.78 444.846 1398.39 460.406C1399.29 460.639 1400.21 460.098 1400.45 459.202C1400.68 458.307 1400.14 457.383 1399.24 457.149C1340.11 441.715 1283.97 407.435 1226.89 370.665C1200.6 353.731 1174.97 338.652 1152.36 325.358C1124.71 309.088 1102.86 296.247 1092.19 287.252C1091.17 286.395 1090.22 285.458 1089.2 284.478C1087.5 282.836 1085.75 281.137 1083.68 279.768C1054.16 260.325 1006.28 252.724 967.236 261.283C956.554 263.626 946.753 265.556 937.276 267.413C924.507 269.924 912.442 272.298 900.621 275.24C886.028 278.875 873.948 283.54 863.694 289.508C858.433 292.571 853.641 296.138 848.569 299.91C840.969 305.571 833.102 311.423 823.313 315.643C820.324 316.932 816.345 318.416 812.03 318.49C808.627 318.532 805.107 317.622 801.704 316.734L800.841 316.509C794.808 314.934 788.729 313.6 782.824 312.302C772.658 310.066 763.051 307.959 754.018 304.784C739.42 299.669 727.809 291.212 722.157 281.58C719.116 276.403 717.448 271.132 715.679 265.548C713.896 259.917 712.052 254.088 708.673 248.109C704.696 241.088 698.746 235.161 690.481 229.977C655.069 207.786 641.643 214.474 621.311 224.604L620.353 225.076C606.13 232.156 589.911 236.785 570.774 239.234C548.345 242.103 525.32 239.824 509.167 233.139C508.013 232.664 506.875 232.193 505.753 231.726C498.205 228.591 491.074 225.625 482.548 223.339C472.259 220.575 458.761 216.783 445.528 211.972C424.137 204.198 406.307 194.674 392.524 183.676C387.17 179.4 382.193 174.744 377.378 170.235C375.476 168.46 373.59 166.69 371.687 164.949C364.572 158.457 357.352 152.398 350.224 146.955C343.256 141.632 334.982 135.915 325.043 135.513C319.459 135.282 314.076 136.781 308.601 138.466C294.219 142.922 279.898 148.811 272.528 161.689C272.064 162.499 272.345 163.52 273.155 163.983C273.965 164.447 274.986 164.166 275.45 163.356C282.242 151.493 295.878 145.929 309.596 141.682C314.778 140.087 319.855 138.663 324.906 138.869C333.872 139.235 341.625 144.615 348.18 149.622C355.227 155.009 362.37 160.996 369.415 167.426C371.311 169.156 373.191 170.916 375.077 172.687C379.943 177.236 384.968 181.939 390.423 186.293C404.486 197.521 422.643 207.225 444.375 215.124C457.726 219.982 471.316 223.79 481.668 226.579C489.976 228.8 497.014 231.724 504.45 234.821C505.571 235.288 506.709 235.759 507.872 236.236C524.543 243.135 548.208 245.494 571.185 242.559C590.708 240.063 607.277 235.325 621.838 228.081L622.798 227.601C642.793 217.635 654.866 211.629 688.68 232.812C696.461 237.687 702.033 243.228 705.723 249.748C708.932 255.413 710.725 261.072 712.454 266.542C714.197 272.058 716.006 277.757 719.239 283.262C725.381 293.718 737.328 302.489 752.889 307.942C756.818 309.315 760.825 310.491 764.928 311.562L764.965 311.589Z" fill="white"/>
<path d="M812.21 317.963C815.125 318.724 818.113 319.338 821.192 319.237C826.047 319.061 830.388 317.159 833.623 315.525C843.664 310.44 851.714 303.688 859.498 297.154C864.6 292.867 869.42 288.829 874.689 285.299C884.794 278.536 896.721 273.022 912.23 267.947C930.952 261.823 949.924 257.104 971.901 251.639C974.858 250.906 977.862 250.159 980.912 249.399C1018 240.13 1064.73 250.064 1092.01 273.013C1093.91 274.612 1095.51 276.49 1097.2 278.481C1098.02 279.432 1098.85 280.425 1099.72 281.364C1113.31 296.138 1150.04 318.36 1192.57 344.105C1204.91 351.57 1217.67 359.292 1230.67 367.32C1284.98 400.818 1343.33 433.927 1402.1 449.268C1403 449.501 1403.92 448.96 1404.16 448.064C1404.39 447.169 1403.85 446.245 1402.95 446.011C1344.61 430.783 1286.52 397.811 1232.44 364.451C1219.42 356.418 1206.65 348.694 1194.31 341.221C1152.01 315.613 1115.47 293.501 1102.2 279.08C1101.37 278.185 1100.56 277.226 1099.77 276.297C1098.06 274.288 1096.29 272.216 1094.18 270.439C1066.14 246.848 1018.16 236.621 980.095 246.133C977.044 246.894 974.04 247.64 971.092 248.375C949.06 253.852 930.022 258.589 911.188 264.744C895.376 269.914 883.188 275.56 872.82 282.498C867.394 286.126 862.515 290.227 857.337 294.572C849.699 300.979 841.803 307.606 832.105 312.511C829.179 313.991 825.278 315.712 821.072 315.866C817.642 315.98 814.098 314.994 810.667 314.047L810.122 313.904C805.585 312.625 800.96 311.452 796.492 310.312C785.028 307.39 774.19 304.631 764.146 300.366C749.565 294.186 738.393 284.513 733.499 273.843C730.91 268.202 729.707 262.548 728.426 256.561C727.072 250.251 725.68 243.721 722.531 237.264C718.945 229.91 713.24 223.812 705.099 218.617C670.417 196.494 657.369 204.368 637.604 216.29C636.727 216.818 635.829 217.357 634.92 217.911C625.838 223.351 610.876 231.099 585.84 235.592C568.86 238.639 543.937 239.1 524.916 231.275C523.707 230.777 522.522 230.285 521.36 229.807C513.999 226.756 507.056 223.9 498.656 221.699C488.56 219.064 475.286 215.443 462.167 210.628C441.111 202.906 423.71 193.207 410.455 181.816C405.163 177.269 400.285 172.266 395.568 167.417C393.902 165.703 392.233 163.998 390.561 162.309C383.828 155.552 376.928 149.168 370.047 143.345C363.329 137.661 355.343 131.541 345.479 130.95C340.033 130.624 334.687 132.081 329.223 133.725C314.869 138.075 300.608 143.833 293.515 156.383C293.059 157.194 293.341 158.216 294.15 158.679C294.962 159.135 295.983 158.853 296.447 158.044C302.956 146.533 316.513 141.105 330.198 136.954C335.552 135.333 340.382 134.02 345.271 134.313C354.099 134.843 361.558 140.582 367.863 145.915C374.671 151.683 381.511 157.999 388.175 164.687C389.841 166.366 391.504 168.06 393.162 169.771C397.928 174.668 402.862 179.721 408.267 184.367C421.834 196.031 439.584 205.925 461.02 213.789C474.284 218.651 487.622 222.289 497.822 224.96C497.887 224.977 497.944 224.992 498.01 225.009C506.086 227.117 512.89 229.936 520.079 232.917C521.247 233.404 522.432 233.896 523.651 234.388C543.347 242.494 569.006 242.043 586.452 238.908C612.034 234.323 627.362 226.375 636.669 220.803C637.585 220.259 638.485 219.711 639.362 219.184C658.714 207.511 670.388 200.47 703.302 221.47C710.906 226.325 716.205 231.978 719.515 238.755C722.483 244.844 723.834 251.162 725.142 257.278C726.402 263.181 727.707 269.279 730.451 275.257C735.767 286.845 747.274 296.867 762.838 303.477C773.126 307.84 784.078 310.629 795.673 313.586C800.125 314.722 804.723 315.896 809.239 317.153L809.785 317.295C810.594 317.524 811.404 317.753 812.219 317.965L812.21 317.963Z" fill="white"/>
<path d="M822.152 315.592C824.79 316.28 827.503 316.78 830.299 316.631C835.1 316.362 839.39 314.186 842.591 312.317C852.468 306.563 860.501 299.076 868.278 291.836C873.529 286.944 878.493 282.318 883.979 278.192C894.219 270.481 906.259 264.066 923.021 257.388C942.511 249.621 963.695 242.696 993.872 234.232C1030.06 224.074 1076.64 236.641 1102.23 263.452C1104.37 265.697 1106.21 268.308 1107.99 270.843C1108.48 271.536 1108.96 272.218 1109.45 272.903C1125 294.537 1178.32 326.985 1236.29 361.143C1303.42 400.692 1358.88 425.881 1405.82 438.134C1406.72 438.367 1407.64 437.826 1407.88 436.93C1408.11 436.035 1407.57 435.111 1406.68 434.877C1360.03 422.703 1304.85 397.639 1237.99 358.248C1180.35 324.288 1127.34 292.052 1112.18 270.945C1111.7 270.271 1111.22 269.59 1110.74 268.908C1108.89 266.276 1106.98 263.56 1104.66 261.13C1092.17 248.033 1074.19 237.696 1054.04 232.012C1033.21 226.139 1011.52 225.776 992.963 230.985C962.662 239.487 941.375 246.446 921.77 254.252C911.191 258.466 895.546 265.262 881.954 275.49C876.326 279.726 871.065 284.623 865.985 289.359C858.346 296.47 850.451 303.828 840.901 309.397C837.846 311.174 834.177 313.034 830.117 313.262C826.684 313.453 823.126 312.393 819.677 311.38L819.408 311.31C816.368 310.395 813.318 309.521 810.276 308.648C797.457 304.981 785.354 301.509 774.261 295.961C759.493 288.568 749.033 277.967 744.814 266.108C742.61 259.924 741.795 253.519 741.003 247.321C740.12 240.411 739.21 233.268 736.376 226.432C733.172 218.717 727.722 212.442 719.707 207.263C685.703 185.108 672.994 194.115 653.74 207.743C652.365 208.715 650.956 209.713 649.491 210.73C640.318 217.12 625.304 226.264 600.89 231.936C584.994 235.632 559.674 237.181 540.647 229.38C539.397 228.871 538.182 228.362 536.981 227.866C529.79 224.894 522.992 222.085 514.74 220.018C499.993 216.308 488.91 212.989 478.775 209.24C457.965 201.539 441 191.667 428.345 179.911C423.151 175.12 418.426 169.8 413.867 164.644C412.376 162.959 410.891 161.284 409.386 159.622C403.033 152.607 396.453 145.897 389.815 139.677C383.364 133.637 375.672 127.124 365.869 126.331C360.534 125.913 355.434 127.26 349.798 128.929C336.458 132.892 321.623 138.186 314.463 151.023C314.008 151.835 314.297 152.858 315.109 153.314C315.923 153.761 316.946 153.471 317.4 152.668C323.948 140.941 338.047 135.933 350.754 132.161C356.061 130.59 360.836 129.322 365.599 129.696C374.311 130.404 381.479 136.493 387.509 142.146C394.079 148.296 400.605 154.947 406.888 161.892C408.38 163.542 409.865 165.217 411.343 166.881C415.966 172.097 420.743 177.483 426.056 182.383C439.033 194.441 456.383 204.535 477.603 212.395C487.849 216.191 499.051 219.55 513.914 223.281C521.939 225.288 528.312 227.926 535.691 230.974C536.901 231.472 538.116 231.98 539.374 232.491C559.127 240.578 584.498 239.198 601.655 235.206C626.633 229.402 642.021 220.025 651.415 213.485C652.883 212.459 654.302 211.456 655.677 210.484C674.453 197.191 685.781 189.173 717.868 210.079C725.3 214.889 730.327 220.653 733.258 227.715C735.915 234.13 736.765 240.736 737.66 247.735C738.476 254.105 739.314 260.69 741.635 267.227C746.143 279.909 757.195 291.177 772.738 298.964C784.107 304.653 796.931 308.331 809.328 311.88C812.362 312.75 815.404 313.622 818.44 314.519L818.709 314.589C819.836 314.935 820.984 315.27 822.14 315.571L822.152 315.592Z" fill="white"/>
<path d="M831.798 313.152C834.265 313.796 836.789 314.22 839.397 314.023C844.11 313.661 848.179 311.332 851.543 309.105C861.226 302.692 869.252 294.499 877.014 286.584C882.191 281.309 887.54 275.843 893.243 271.088C906.481 260.115 921.854 252.361 933.775 246.837C955.92 236.562 979.813 227.484 1006.82 219.07C1042.84 207.851 1088.26 222.827 1112.47 253.896C1115.15 257.336 1117.35 261.145 1119.2 264.446C1131.11 285.679 1172.4 316.136 1241.91 354.974C1302.21 388.948 1361.74 414.522 1409.55 427C1410.44 427.234 1411.37 426.692 1411.6 425.796C1411.83 424.901 1411.29 423.977 1410.4 423.743C1362.87 411.337 1303.62 385.873 1243.56 352.04C1175.57 314.05 1133.59 283.194 1122.14 262.796C1120.23 259.393 1117.96 255.451 1115.13 251.825C1103.43 236.816 1086.09 224.785 1066.29 217.945C1045.73 210.851 1024.27 210.109 1005.83 215.854C978.677 224.309 954.646 233.447 932.364 243.781C920.262 249.397 904.639 257.278 891.1 268.502C885.263 273.371 879.855 278.899 874.618 284.237C866.973 292.034 859.079 300.088 849.69 306.308C846.692 308.3 843.09 310.369 839.148 310.679C835.715 310.94 832.154 309.819 828.706 308.737C827.189 308.253 825.685 307.783 824.182 307.312C810.58 303.049 796.512 298.638 784.368 291.59C769.64 283.041 759.604 271.247 756.11 258.377C754.26 251.572 753.877 244.61 753.511 237.88C753.09 230.099 752.684 222.758 750.214 215.625C747.432 207.594 742.235 201.15 734.319 195.927C700.837 173.77 688.446 183.824 669.704 199.056C667.905 200.518 666.04 202.031 664.087 203.583C653.973 211.579 639.363 221.61 615.955 228.328C600.358 232.807 575.407 235.278 556.381 227.538C555.098 227.021 553.842 226.502 552.619 225.991C545.599 223.098 538.964 220.366 530.827 218.39C516.341 214.879 505.411 211.643 495.395 207.899C474.96 200.261 458.422 190.222 446.247 178.061C441.089 172.932 436.452 167.173 431.964 161.61C430.723 160.069 429.482 158.527 428.228 157C422.13 149.608 415.862 142.571 409.589 136.081C402.948 129.208 395.528 122.715 386.268 121.776C380.649 121.214 374.956 122.868 370.385 124.188C357.07 128.053 342.296 133.215 335.415 145.716C334.968 146.53 335.265 147.556 336.079 148.003C336.885 148.448 337.919 148.153 338.366 147.339C344.62 135.97 358.659 131.094 371.323 127.424C375.839 126.116 380.956 124.634 385.933 125.124C394.517 125.99 401.392 132.437 407.171 138.416C413.383 144.837 419.589 151.814 425.626 159.138C426.866 160.653 428.101 162.185 429.336 163.716C433.874 169.353 438.572 175.179 443.861 180.438C456.373 192.94 473.315 203.232 494.202 211.04C504.343 214.835 515.396 218.102 530.019 221.649C537.904 223.559 544.123 226.122 551.324 229.088C552.557 229.593 553.813 230.112 555.102 230.639C574.912 238.706 600.758 236.172 616.871 231.55C640.841 224.675 655.804 214.396 666.158 206.21C668.13 204.655 670.007 203.127 671.816 201.66C690.027 186.863 701.02 177.931 732.457 198.729C739.832 203.593 744.463 209.306 747.033 216.717C749.35 223.401 749.736 230.52 750.152 238.055C750.532 244.964 750.922 252.101 752.864 259.252C756.588 272.973 767.182 285.496 782.68 294.489C795.149 301.726 809.402 306.194 823.181 310.512C824.685 310.983 826.18 311.451 827.681 311.93C829.048 312.357 830.422 312.793 831.814 313.157L831.798 313.152Z" fill="white"/>
<path d="M841.282 310.671C843.586 311.272 846.017 311.654 848.499 311.406C853.141 310.948 857.166 308.355 860.481 305.881C869.852 298.899 877.778 290.123 885.436 281.643C890.853 275.647 896.446 269.445 902.485 263.968C915.565 252.102 931.071 243.305 944.513 236.255C968.653 223.597 993.967 212.707 1019.75 203.878C1059.86 190.144 1110.9 214.483 1128.96 255.966C1139.21 279.513 1179.93 311.995 1240.68 345.104C1297.37 375.997 1361.88 402.445 1413.24 415.849C1414.14 416.083 1415.06 415.542 1415.29 414.646C1415.53 413.75 1414.99 412.826 1414.09 412.593C1363.74 399.452 1297.91 372.46 1242.28 342.149C1182.18 309.399 1142 277.492 1132.04 254.631C1123.36 234.693 1106.18 217.243 1084.9 206.749C1062.73 195.815 1039.2 193.674 1018.66 200.705C992.712 209.587 967.24 220.55 942.947 233.29C929.315 240.437 913.583 249.367 900.226 261.492C894.064 267.075 888.409 273.348 882.94 279.408C875.39 287.778 867.576 296.427 858.466 303.207C855.519 305.403 851.989 307.699 848.158 308.082C844.738 308.425 841.123 307.212 837.942 306.138C823.07 301.143 807.686 295.98 794.439 287.192C779.769 277.458 770.149 264.468 767.365 250.609C765.853 243.109 765.915 235.542 765.974 228.218C766.103 211.763 766.223 196.21 748.901 184.575C715.87 162.387 703.812 173.433 685.556 190.166C673.278 201.424 657.996 215.429 630.976 224.691C614.461 230.356 589.85 232.855 572.082 225.661C570.777 225.129 569.496 224.604 568.246 224.095C561.381 221.277 554.896 218.602 546.876 216.743C532.627 213.424 521.857 210.274 511.968 206.545C491.9 198.968 475.796 188.765 464.1 176.198C459.143 170.869 454.737 164.858 450.47 159.048C449.323 157.479 448.174 155.918 447.014 154.363C441.43 146.87 435.473 139.506 429.319 132.464C422.962 125.196 415.808 118.32 406.627 117.211C401.156 116.548 395.728 118.088 390.94 119.439C377.059 123.373 362.947 128.23 356.343 140.404C355.904 141.219 356.202 142.245 357.018 142.684C357.832 143.131 358.859 142.826 359.298 142.01C365.28 130.987 378.657 126.416 391.851 122.677C396.332 121.403 401.421 119.965 406.217 120.547C414.269 121.518 420.861 127.918 426.783 134.681C432.879 141.647 438.776 148.943 444.308 156.37C445.461 157.914 446.602 159.473 447.743 161.032C452.067 166.926 456.528 173.022 461.623 178.491C473.672 191.437 490.204 201.935 510.764 209.692C520.795 213.476 531.686 216.666 546.091 220.017C553.854 221.826 559.917 224.321 566.947 227.208C568.203 227.727 569.483 228.253 570.796 228.787C589.359 236.302 614.932 233.749 632.047 227.884C659.726 218.394 675.295 204.125 687.81 192.659C706.099 175.9 716.171 166.666 747.002 187.384C762.828 198.02 762.716 212.009 762.592 228.213C762.533 235.703 762.476 243.454 764.048 251.291C767.012 266.023 777.136 279.78 792.563 290.015C806.181 299.048 821.773 304.283 836.852 309.349C838.251 309.819 839.722 310.316 841.252 310.715L841.282 310.671Z" fill="white"/>
<path d="M843.083 298.705C845.387 299.306 847.816 299.696 850.298 299.483C854.898 299.084 858.918 296.645 862.256 294.316C871.82 287.629 879.969 279.129 887.855 270.907C889.838 268.842 891.822 266.768 893.836 264.72C898.076 260.4 901.436 257.189 904.734 254.319C917.997 242.753 933.416 234.124 946.749 227.22C975.361 212.39 999.162 202.469 1021.63 195.993C1039.02 190.982 1059.28 192.914 1078.68 201.431C1084.32 203.902 1089.93 206.992 1095.35 209.973L1097.48 211.136C1102.83 214.073 1108.04 216.98 1112.83 220.301C1124.64 228.471 1133.94 239.106 1139.72 251.05C1150.73 273.841 1190.63 305.186 1249.17 337.031C1304.19 366.967 1366.54 392.547 1415.97 405.448C1416.89 405.686 1417.81 405.136 1418.05 404.233C1418.28 403.329 1417.74 402.395 1416.83 402.159C1367.65 389.324 1305.58 363.861 1250.79 334.046C1192.86 302.525 1153.49 271.735 1142.78 249.572C1136.75 237.1 1127.06 226.006 1114.77 217.503C1109.84 214.094 1104.56 211.131 1099.11 208.155L1097 206.994C1091.51 203.97 1085.82 200.841 1080.06 198.31C1059.92 189.473 1038.84 187.484 1020.69 192.713C998.001 199.253 974.006 209.253 945.184 224.185C931.676 231.191 916.044 239.939 902.501 251.745C899.136 254.676 895.71 257.939 891.407 262.329C889.384 264.384 887.397 266.466 885.402 268.545C877.634 276.649 869.594 285.03 860.316 291.523C857.357 293.594 853.818 295.758 850.019 296.088C846.611 296.382 843.017 295.191 839.846 294.146C825.822 289.503 809.918 284.231 796.521 275.551C784.997 268.09 776.12 258.251 771.525 247.868C770.398 245.322 769.512 242.716 768.888 240.11C767.162 232.928 766.904 225.686 766.652 218.689C766.091 202.845 765.562 187.88 748.365 176.73C715.597 155.472 703.274 166.431 684.626 183.036C681.194 186.088 677.649 189.242 673.658 192.505C665.271 199.317 651.697 209.175 630.719 215.98C614.338 221.297 589.904 223.416 572.233 216.186C570.794 215.602 569.406 215.022 568.034 214.447C561.352 211.659 555.046 209.031 547.28 207.1C533.533 203.659 522.606 200.242 512.91 196.373C494.965 189.193 480.243 179.889 469.146 168.696C468.099 167.641 467.064 166.544 466.065 165.44C461.349 160.217 457.14 154.353 453.063 148.68C451.832 146.967 450.601 145.254 449.357 143.556C446.559 139.747 443.685 135.996 440.802 132.417C437.906 128.818 434.867 125.233 431.764 121.762C425.433 114.666 418.306 107.953 409.047 106.841C403.531 106.184 397.933 107.74 393.43 109C380.317 112.657 365.765 117.599 359.066 129.939C358.615 130.769 358.92 131.797 359.75 132.248C360.572 132.697 361.608 132.394 362.06 131.564C368.124 120.389 381.902 115.749 394.341 112.273C398.768 111.037 403.787 109.634 408.637 110.212C416.768 111.178 423.331 117.422 429.218 124.02C432.279 127.454 435.285 130.995 438.143 134.541C440.992 138.085 443.842 141.794 446.599 145.558C447.837 147.246 449.062 148.949 450.286 150.66C454.412 156.407 458.688 162.349 463.523 167.716C464.556 168.855 465.626 169.987 466.713 171.088C478.133 182.609 493.248 192.171 511.627 199.525C521.462 203.457 532.536 206.913 546.427 210.399C553.925 212.26 559.845 214.736 566.693 217.584C568.065 218.16 569.469 218.744 570.908 219.328C589.381 226.889 614.766 224.722 631.737 219.211C653.249 212.224 667.173 202.126 675.772 195.135C679.827 191.828 683.397 188.646 686.851 185.573C705.576 168.91 715.883 159.738 746.473 179.584C762.179 189.78 762.66 203.228 763.212 218.809C763.465 225.971 763.729 233.389 765.533 240.904C766.21 243.707 767.165 246.513 768.365 249.244C773.228 260.236 782.552 270.592 794.626 278.413C808.396 287.329 824.515 292.676 838.739 297.388C840.116 297.843 841.556 298.323 843.054 298.714L843.083 298.705Z" fill="white"/>
<path d="M844.875 286.736C847.179 287.338 849.612 287.747 852.098 287.552C856.649 287.209 860.679 284.93 864.016 282.74C873.791 276.342 882.205 268.094 890.331 260.118C892.189 258.298 894.057 256.472 895.939 254.659C898.866 251.84 902.768 248.154 906.959 244.656C920.514 233.305 936.526 224.535 948.956 218.161C972.296 206.207 997.478 194.29 1023.48 188.085C1041.85 183.705 1063.17 186.937 1083.49 197.199C1086.65 198.789 1089.86 200.61 1092.96 202.374C1096.36 204.306 1099.87 206.299 1103.42 208.052C1105.86 209.263 1108.23 210.361 1110.53 211.422C1113.91 212.981 1117.1 214.457 1120.21 216.138C1133.19 223.171 1143.93 233.817 1150.44 246.126C1162.11 268.183 1201.14 298.382 1257.53 328.987C1310.86 357.933 1371.1 382.63 1418.67 395.047C1419.59 395.287 1420.53 394.733 1420.77 393.813C1421.01 392.893 1420.46 391.949 1419.54 391.708C1372.22 379.358 1312.27 354.78 1259.17 325.954C1203.37 295.666 1164.85 265.976 1153.48 244.512C1146.66 231.617 1135.42 220.457 1121.85 213.106C1118.64 211.365 1115.41 209.876 1111.97 208.294C1109.69 207.237 1107.34 206.154 1104.95 204.964C1101.48 203.25 1098.01 201.275 1094.66 199.373C1091.52 197.59 1088.27 195.75 1085.03 194.123C1063.99 183.498 1041.84 180.161 1022.67 184.733C996.313 191.021 970.904 203.043 947.373 215.095C934.773 221.555 918.545 230.452 904.735 242.014C900.465 245.579 896.506 249.32 893.542 252.181C891.649 254 889.779 255.834 887.909 257.668C879.528 265.891 871.606 273.65 862.115 279.861C859.146 281.808 855.598 283.839 851.829 284.116C848.433 284.369 844.859 283.201 841.71 282.171C827.847 277.64 812.134 272.504 798.554 263.924C787.079 256.676 778.079 247.144 773.215 237.091C772.028 234.642 771.068 232.122 770.357 229.614C768.41 222.749 767.844 215.852 767.298 209.179C766.047 193.946 764.861 179.566 747.784 168.891C715.267 148.568 702.668 159.455 683.601 175.933C680.32 178.773 676.928 181.705 673.148 184.728C659.945 195.231 646.359 202.4 630.414 207.282C614.184 212.256 589.931 214.014 572.338 206.717C570.767 206.073 569.249 205.424 567.759 204.801C561.256 202.06 555.107 199.464 547.641 197.48C534.19 193.874 523.436 190.293 513.812 186.216C496.239 178.777 481.83 169.276 471 157.988C469.983 156.923 468.974 155.824 468.001 154.718C463.527 149.602 459.504 143.891 455.622 138.373C454.309 136.508 452.995 134.643 451.661 132.791C448.884 128.935 446.043 125.193 443.216 121.664C440.371 118.104 437.326 114.543 434.173 111.094C428.169 104.509 420.767 97.6203 411.436 96.5157C406.289 95.9115 401.36 97.1036 395.899 98.6004C381.996 102.425 368.241 107.609 361.775 119.523C361.321 120.361 361.631 121.408 362.469 121.861C363.299 122.313 364.354 122.005 364.807 121.167C370.658 110.38 383.651 105.544 396.822 101.929C401.927 100.53 406.516 99.406 411.038 99.9425C419.239 100.909 425.774 106.989 431.637 113.415C434.741 116.817 437.732 120.32 440.532 123.816C443.319 127.3 446.128 130.999 448.873 134.811C450.201 136.654 451.508 138.508 452.816 140.362C456.756 145.957 460.821 151.74 465.425 156.994C466.429 158.143 467.479 159.287 468.531 160.387C479.687 172.022 494.481 181.779 512.485 189.4C522.26 193.534 533.15 197.159 546.762 200.816C554 202.74 560.031 205.288 566.424 207.983C567.92 208.617 569.448 209.259 571.025 209.914C590.669 218.05 615.844 215.359 631.431 210.583C647.81 205.57 661.751 198.207 675.306 187.422C679.134 184.351 682.556 181.4 685.86 178.54C704.41 162.51 715.605 152.839 745.968 171.817C761.579 181.579 762.641 194.501 763.875 209.468C764.439 216.303 765.021 223.369 767.057 230.562C767.821 233.266 768.855 235.97 770.134 238.6C775.276 249.221 784.72 259.252 796.73 266.848C810.667 275.66 826.606 280.864 840.659 285.462C842.006 285.901 843.416 286.364 844.889 286.749L844.875 286.736Z" fill="white"/>
<path d="M846.661 274.766C848.965 275.368 851.396 275.785 853.889 275.627C858.399 275.343 862.423 273.219 865.773 271.18C875.796 265.064 884.504 257.058 892.917 249.313C894.621 247.749 896.327 246.177 898.047 244.617C901.251 241.705 905.072 238.293 909.182 235.009C922.969 223.936 938.861 215.36 951.169 209.12C975.758 196.674 999.931 185.095 1025.34 180.187C1044.77 176.43 1067.14 180.972 1088.32 192.979C1090.64 194.289 1093.01 195.742 1095.3 197.149C1099.81 199.91 1104.48 202.771 1109.37 204.971C1113.09 206.646 1116.65 207.913 1120.09 209.141C1122.69 210.074 1125.15 210.95 1127.6 211.963C1141.84 217.888 1153.77 228.271 1161.17 241.206C1188.11 288.206 1329.13 360.579 1421.38 384.658C1422.31 384.9 1423.27 384.34 1423.51 383.412C1423.75 382.484 1423.19 381.529 1422.26 381.287C1376.74 369.406 1318.88 345.713 1267.48 317.913C1213.75 288.854 1176.12 260.264 1164.2 239.482C1156.41 225.89 1143.89 214.979 1128.93 208.754C1126.4 207.702 1123.9 206.806 1121.25 205.86C1117.87 204.658 1114.38 203.416 1110.79 201.801C1106.09 199.687 1101.52 196.887 1097.11 194.186C1094.79 192.764 1092.39 191.294 1090.02 189.953C1068.12 177.541 1044.91 172.866 1024.67 176.776C998.814 181.777 974.398 193.458 949.584 206.027C937.126 212.342 921.021 221.036 906.992 232.306C902.814 235.651 898.937 239.109 895.698 242.056C893.968 243.622 892.259 245.202 890.545 246.772C881.87 254.753 873.677 262.285 863.944 268.224C860.81 270.136 857.391 271.94 853.66 272.175C850.274 272.387 846.72 271.242 843.583 270.232C827.596 265.077 813.327 260.17 800.599 252.326C789.167 245.281 780.043 236.055 774.908 226.34C773.655 223.978 772.625 221.561 771.829 219.145C769.676 212.6 768.805 206.041 767.954 199.705C766.005 185.082 764.166 171.27 747.196 161.084C714.997 141.74 702.145 152.5 682.69 168.764C679.521 171.407 676.25 174.145 672.643 176.969C659.69 187.111 646.174 193.985 630.104 198.609C615.191 202.9 591.146 205.13 572.428 197.279C570.719 196.563 569.061 195.852 567.441 195.16C561.128 192.46 555.168 189.904 547.992 187.875C534.836 184.102 524.256 180.358 514.701 176.081C497.492 168.381 483.407 158.704 472.834 147.3C471.837 146.222 470.856 145.114 469.911 144.006C465.668 139.003 461.839 133.447 458.138 128.072C456.742 126.055 455.357 124.032 453.938 122.036C451.18 118.142 448.374 114.4 445.595 110.918C442.772 107.373 439.735 103.849 436.55 100.426C430.573 94.0049 423.195 87.2874 413.793 86.1903C408.611 85.5857 403.521 86.7965 398.336 88.2003C384.607 91.9221 370.996 97.0228 364.443 109.105C363.987 109.951 364.294 111.006 365.139 111.47C365.985 111.925 367.039 111.618 367.505 110.765C373.435 99.8421 386.262 95.0761 399.249 91.5691C404.095 90.2599 408.828 89.1209 413.394 89.6517C421.683 90.6149 428.46 96.8364 434.009 102.798C437.134 106.153 440.119 109.611 442.881 113.088C445.619 116.525 448.387 120.213 451.099 124.052C452.511 126.038 453.891 128.05 455.272 130.054C459.026 135.496 462.905 141.126 467.258 146.271C468.236 147.422 469.249 148.573 470.281 149.686C481.172 161.434 495.644 171.395 513.283 179.285C522.993 183.629 533.716 187.428 547.043 191.245C554.007 193.219 559.867 195.723 566.071 198.377C567.707 199.073 569.365 199.784 571.09 200.504C590.64 208.702 615.623 206.413 631.072 201.966C647.356 197.285 661.656 190.007 674.794 179.722C678.444 176.865 681.738 174.107 684.929 171.444C703.895 155.592 715.343 146.013 745.406 164.078C760.931 173.4 762.589 185.808 764.5 200.178C765.37 206.675 766.26 213.395 768.516 220.245C769.369 222.842 770.481 225.446 771.828 227.98C778.781 241.126 790.311 250.093 798.768 255.309C811.835 263.355 826.309 268.341 842.514 273.562C843.83 273.984 845.209 274.431 846.642 274.805L846.661 274.766Z" fill="white"/>
<path d="M580.021 194.008C595.132 197.952 614.056 197.786 630.769 193.295C647.099 188.904 661.348 181.926 674.331 171.965C677.744 169.352 680.856 166.824 683.867 164.384C703.315 148.614 715.061 139.096 744.894 156.274C760.357 165.171 762.599 177.071 765.204 190.848C766.365 196.995 767.565 203.361 770.033 209.866C770.972 212.364 772.171 214.868 773.573 217.295C780.883 229.97 792.446 238.649 800.851 243.695C814.076 251.634 829.003 256.687 844.413 261.587C847.818 262.667 851.673 263.891 855.69 263.695C860.147 263.476 864.176 261.501 867.533 259.603C877.857 253.766 886.889 245.983 895.629 238.455C897.132 237.16 898.646 235.859 900.167 234.56C903.649 231.582 907.427 228.402 911.424 225.349C922.384 216.913 935.332 209.117 953.409 200.069C975.744 188.896 1001.06 176.232 1027.24 172.271C1053.56 168.288 1077.63 179.031 1093.18 188.743C1095.07 189.924 1097.02 191.205 1098.88 192.449C1104.09 195.895 1109.48 199.459 1115.35 201.877C1119.9 203.753 1124.21 204.86 1128.38 205.932C1130.68 206.531 1132.85 207.08 1135.02 207.752C1150.23 212.46 1163.69 222.853 1171.94 236.26C1184.63 256.878 1221.86 284.84 1274.08 312.956C1323.99 339.837 1380.09 362.748 1424.13 374.242C1425.07 374.489 1426.04 373.923 1426.28 372.979C1426.53 372.034 1425.96 371.069 1425.02 370.823C1381.24 359.396 1325.44 336.596 1275.76 309.847C1224.07 282.015 1187.33 254.512 1174.95 234.409C1166.25 220.277 1152.08 209.334 1136.07 204.381C1133.82 203.68 1131.5 203.084 1129.27 202.51C1125.22 201.462 1121.02 200.384 1116.69 198.601C1111.14 196.317 1105.9 192.854 1100.83 189.495C1098.94 188.245 1096.97 186.941 1095.04 185.742C1078.99 175.716 1054.09 164.628 1026.7 168.776C999.985 172.821 974.4 185.615 951.833 196.909C933.545 206.068 920.428 213.976 909.286 222.547C905.223 225.653 901.41 228.867 897.885 231.877C896.363 233.176 894.849 234.477 893.336 235.778C884.329 243.532 875.824 250.861 865.805 256.526C862.662 258.306 859.235 259.977 855.524 260.165C852.14 260.334 848.607 259.212 845.492 258.216C830.292 253.379 815.581 248.401 802.679 240.659C791.295 233.826 782.05 224.9 776.638 215.513C775.327 213.24 774.22 210.916 773.338 208.598C770.988 202.376 769.815 196.173 768.677 190.171C766.031 176.149 763.531 162.904 746.663 153.196C714.728 134.808 701.568 145.479 681.657 161.624C678.658 164.05 675.566 166.566 672.197 169.147C659.584 178.822 645.735 185.6 629.863 189.867C610.41 195.095 587.925 194.279 572.595 187.774C570.762 187 568.996 186.234 567.261 185.486C561.121 182.822 555.324 180.309 548.424 178.222C535.909 174.425 525.195 170.393 515.671 165.899C498.832 157.947 485.067 148.076 474.751 136.556C473.788 135.479 472.828 134.358 471.903 133.239C467.892 128.348 464.256 122.955 460.74 117.732C459.299 115.591 457.807 113.375 456.301 111.217C453.574 107.305 450.81 103.566 448.068 100.11C445.267 96.5792 442.226 93.072 439.017 89.704C433.067 83.4462 425.714 76.9004 416.233 75.8086C411.006 75.2097 405.77 76.4435 400.854 77.752C387.946 81.1925 373.855 86.3679 367.193 98.6307C366.727 99.4831 367.047 100.558 367.899 101.024C368.76 101.492 369.827 101.17 370.292 100.318C376.309 89.2261 389.577 84.4096 401.764 81.1637C406.541 79.8884 411.22 78.7877 415.837 79.3231C424.187 80.2849 430.956 86.3389 436.468 92.1432C439.599 95.439 442.576 98.8598 445.31 102.313C448.006 105.712 450.725 109.388 453.414 113.246C454.901 115.382 456.386 117.587 457.821 119.719C461.381 125.005 465.068 130.472 469.184 135.494C470.141 136.657 471.127 137.81 472.13 138.933C482.764 150.805 496.907 160.958 514.173 169.108C523.859 173.68 534.724 177.768 547.408 181.617C554.114 183.646 559.823 186.128 565.864 188.739C567.605 189.498 569.387 190.267 571.228 191.044C573.97 192.203 576.929 193.192 580.047 194.006L580.021 194.008Z" fill="white"/>
<path d="M580.679 184.788C595.604 188.683 614.096 188.735 630.434 184.65C646.808 180.558 661.004 173.879 673.843 164.237C676.99 161.876 679.892 159.589 682.703 157.383C702.68 141.682 714.738 132.202 744.366 148.501C759.782 156.977 762.626 168.372 765.92 181.573C767.373 187.37 768.868 193.369 771.523 199.524C772.552 201.914 773.821 204.315 775.299 206.649C781.377 216.315 790.924 225.12 802.914 232.128C816.338 239.971 831.088 244.899 846.291 249.658C849.668 250.714 853.495 251.913 857.482 251.762C861.882 251.597 865.752 249.867 869.285 248.024C879.956 242.46 888.952 235.216 898.476 227.544C899.732 226.533 900.997 225.515 902.261 224.506C905.651 221.781 909.604 218.63 913.635 215.682C924.689 207.548 938.022 199.714 955.609 191.007C979.332 179.283 1003.82 167.186 1029.09 164.345C1056.92 161.216 1081.92 173.577 1098 184.496C1099.63 185.601 1101.31 186.794 1102.93 187.948C1108.65 192.025 1114.58 196.234 1121.27 198.752C1126.48 200.712 1131.37 201.546 1136.11 202.348C1138.28 202.714 1140.32 203.065 1142.38 203.515C1158.72 207.076 1173.4 217.202 1182.65 231.306C1195.73 251.235 1232.03 278.075 1282.23 304.96C1330.4 330.761 1384.46 352.766 1426.81 363.82C1427.76 364.069 1428.74 363.497 1428.99 362.545C1429.24 361.592 1428.67 360.617 1427.71 360.368C1385.62 349.382 1331.86 327.488 1283.91 301.816C1234.22 275.203 1198.4 248.791 1185.64 229.345C1175.87 214.464 1160.37 203.782 1143.14 200.025C1141 199.562 1138.81 199.192 1136.71 198.834C1132.14 198.058 1127.41 197.26 1122.52 195.418C1116.26 193.063 1110.53 188.983 1104.98 185.04C1103.35 183.874 1101.65 182.675 1099.99 181.545C1083.41 170.288 1057.59 157.547 1028.67 160.802C1002.79 163.708 978.019 175.949 954.058 187.784C936.233 196.603 922.724 204.548 911.507 212.804C907.423 215.791 903.426 218.974 900.006 221.717C898.74 222.735 897.477 223.744 896.211 224.762C886.822 232.312 877.958 239.452 867.599 244.854C864.437 246.507 861.009 248.047 857.311 248.186C853.938 248.315 850.425 247.215 847.322 246.24C832.329 241.544 817.786 236.688 804.678 229.031C793.186 222.318 784.057 213.909 778.286 204.733C776.909 202.547 775.726 200.316 774.767 198.092C772.223 192.21 770.759 186.358 769.35 180.694C766.001 167.27 762.831 154.59 746.056 145.359C714.35 127.926 700.878 138.525 680.464 154.564C677.664 156.764 674.775 159.036 671.661 161.372C659.21 170.724 645.432 177.198 629.533 181.171C610.265 185.987 587.938 184.865 572.664 178.312C570.66 177.459 568.734 176.609 566.847 175.777C560.926 173.171 555.339 170.721 548.754 168.594C536.545 164.659 526.006 160.456 516.54 155.742C500.072 147.53 486.624 137.481 476.564 125.845C475.614 124.754 474.69 123.626 473.8 122.506C470.01 117.734 466.562 112.486 463.222 107.422C461.709 105.123 460.146 102.75 458.565 100.441C455.835 96.4413 453.174 92.8074 450.442 89.3463C447.666 85.8215 444.616 82.3469 441.387 79.0256C435.813 73.2921 428.194 66.5639 418.58 65.481C413.308 64.8877 408.128 66.0752 403.282 67.3497C391.286 70.4976 376.637 75.71 369.86 88.2125C369.39 89.0811 369.71 90.1559 370.578 90.6262C371.447 91.0964 372.53 90.779 373 89.9103C379.131 78.6136 392.895 73.7614 404.2 70.7982C408.727 69.6143 413.532 68.4944 418.195 69.0242C426.675 69.9853 433.689 76.1989 438.843 81.5097C441.989 84.7485 444.959 88.1325 447.656 91.5585C450.342 94.9641 452.95 98.5321 455.638 102.46C457.207 104.748 458.756 107.109 460.265 109.39C463.647 114.525 467.139 119.837 471.028 124.731C471.95 125.894 472.916 127.059 473.89 128.191C484.259 140.177 498.08 150.532 514.972 158.95C524.598 163.75 535.302 168.022 547.682 172.001C554.092 174.065 559.6 176.486 565.435 179.052C567.339 179.888 569.273 180.741 571.285 181.596C574.195 182.843 577.345 183.9 580.667 184.767L580.679 184.788Z" fill="white"/>
<path d="M581.786 175.745C598.665 180.15 617.094 179.012 630.096 176.013C646.511 172.227 660.664 165.85 673.343 156.523C676.193 154.432 678.855 152.396 681.439 150.427C701.98 134.768 714.386 125.318 743.836 140.736C759.229 148.797 762.686 159.709 766.684 172.345C768.406 177.778 770.183 183.399 773.03 189.185C774.155 191.471 775.495 193.768 777.033 196.005C783.401 205.294 793.065 213.782 804.975 220.56C818.599 228.308 833.787 233.289 848.167 237.738C851.347 238.716 855.306 239.941 859.27 239.845C863.621 239.737 867.492 238.164 871.022 236.468C882.111 231.17 891.541 224.091 901.524 216.6L904.356 214.478C907.851 211.85 911.81 208.874 915.852 206.051C927.184 198.085 940.519 190.443 957.824 181.984L958.971 181.422C982.232 170.066 1006.29 158.325 1030.95 156.457C1060.36 154.226 1086.27 168.19 1102.84 180.299C1104.3 181.367 1105.77 182.472 1107.25 183.596C1113.41 188.274 1119.78 193.112 1127.21 195.684C1132.98 197.687 1138.38 198.176 1143.61 198.654C1145.74 198.851 1147.74 199.027 1149.76 199.309C1167.17 201.716 1183.08 211.589 1193.4 226.397C1206.81 245.638 1242.15 271.385 1290.36 297.029C1336.79 321.731 1388.81 342.814 1429.53 353.441C1430.49 353.692 1431.47 353.114 1431.73 352.154C1431.98 351.193 1431.4 350.207 1430.44 349.957C1389.98 339.397 1338.25 318.425 1292.05 293.844C1244.33 268.458 1209.44 243.116 1196.35 224.333C1185.46 208.697 1168.65 198.274 1150.25 195.732C1148.15 195.445 1146.01 195.252 1143.94 195.059C1138.92 194.603 1133.74 194.129 1128.38 192.27C1121.5 189.882 1115.36 185.219 1109.42 180.71C1107.92 179.58 1106.44 178.455 1104.96 177.374C1087.9 164.911 1061.17 150.542 1030.68 152.846C1005.33 154.77 980.955 166.663 957.386 178.165L956.239 178.727C938.764 187.271 925.273 195.012 913.782 203.084C909.689 205.938 905.707 208.934 902.19 211.582L899.357 213.703C889.525 221.086 880.234 228.062 869.464 233.209C866.293 234.729 862.854 236.145 859.179 236.229C855.808 236.315 852.317 235.23 849.233 234.286C835.036 229.902 820.074 224.988 806.759 217.426C795.315 210.925 786.067 202.807 780.007 193.972C778.572 191.876 777.312 189.738 776.268 187.604C773.55 182.06 771.809 176.57 770.125 171.26C766.059 158.415 762.222 146.291 745.503 137.544C714.012 121.055 700.188 131.605 679.248 147.559C676.677 149.514 674.027 151.536 671.205 153.618C658.925 162.649 645.208 168.826 629.281 172.505C610.199 176.908 588.03 175.479 572.812 168.881C570.623 167.936 568.521 166.995 566.448 166.072C560.77 163.538 555.402 161.145 549.159 159.011C537.237 154.943 526.873 150.568 517.482 145.63C501.383 137.176 488.257 126.923 478.451 115.18C477.535 114.089 476.631 112.957 475.763 111.818C472.194 107.164 468.936 102.087 465.774 97.1745C464.189 94.7172 462.558 92.1695 460.892 89.6909C458.193 85.673 455.575 82.0416 452.871 78.6053C450.117 75.0949 447.069 71.6469 443.805 68.3599C438.27 62.7758 430.672 56.2357 420.978 55.158C415.653 54.5683 410.33 55.7706 405.752 56.95C393.91 60.0075 379.431 65.134 372.561 77.7946C372.089 78.6715 372.412 79.7647 373.289 80.237C374.166 80.7094 375.259 80.386 375.732 79.5091C381.934 68.0743 395.516 63.3142 406.651 60.437C410.912 59.3401 415.861 58.2054 420.576 58.7317C429.136 59.6874 436.125 65.7294 441.24 70.8908C444.409 74.0747 447.363 77.4197 450.024 80.8189C452.667 84.1872 455.242 87.7468 457.892 91.6907C459.532 94.1364 461.159 96.6656 462.73 99.1106C465.928 104.085 469.23 109.225 472.889 113.998C473.791 115.173 474.728 116.348 475.67 117.472C485.778 129.59 499.272 140.13 515.792 148.807C525.351 153.833 535.888 158.278 547.977 162.407C554.07 164.485 559.358 166.848 564.959 169.345C567.04 170.27 569.159 171.215 571.361 172.172C574.712 173.629 578.206 174.802 581.764 175.731L581.786 175.745Z" fill="white"/>
<path d="M582.431 166.512C596.875 170.282 614.077 170.684 629.761 167.368C646.227 163.891 660.317 157.82 672.856 148.795C675.373 146.983 677.754 145.221 680.07 143.512C701.235 127.86 714.022 118.422 743.317 132.964C758.722 140.612 762.796 151.059 767.527 163.155C769.502 168.219 771.552 173.459 774.551 178.86C775.757 181.035 777.186 183.226 778.784 185.365C785.442 194.277 795.224 202.448 807.057 208.989C820.912 216.649 836.522 221.68 850.064 225.806C853.222 226.769 857.147 227.959 861.072 227.913C865.381 227.864 869.241 226.436 872.781 224.899C884.369 219.853 894.313 212.909 904.841 205.559L907.694 203.556C911.06 201.191 914.54 198.751 918.087 196.389C929.598 188.671 943.323 181 960.049 172.929L961.71 172.128C984.751 161.018 1008.58 149.53 1032.83 148.529C1063.87 147.245 1090.68 162.793 1107.7 176.061C1109.03 177.095 1110.37 178.175 1111.71 179.256C1118.26 184.522 1125.03 189.968 1133.15 192.574C1139.44 194.59 1145.3 194.71 1150.96 194.832C1153.09 194.874 1155.1 194.919 1157.13 195.059C1175.3 196.297 1192.88 206.163 1204.14 221.452C1217.83 240.025 1252.2 264.676 1298.45 289.098C1343.11 312.667 1393.12 332.833 1432.24 343.044C1433.22 343.299 1434.22 342.715 1434.47 341.738C1434.73 340.761 1434.14 339.765 1433.17 339.51C1348.83 317.5 1234.73 256.83 1207.07 219.286C1195.18 203.146 1176.6 192.731 1157.37 191.416C1155.26 191.274 1153.1 191.225 1151.03 191.179C1145.62 191.064 1140.03 190.951 1134.25 189.095C1126.78 186.702 1120.27 181.473 1113.98 176.414C1112.62 175.32 1111.27 174.237 1109.93 173.19C1092.42 159.551 1064.81 143.569 1032.67 144.895C1007.66 145.924 983.483 157.582 960.113 168.85L958.452 169.651C941.567 177.802 927.698 185.557 916.051 193.362C912.465 195.739 908.97 198.202 905.584 200.579L902.733 202.574C892.363 209.817 882.559 216.659 871.306 221.557C868.118 222.943 864.667 224.234 861.014 224.272C857.648 224.306 854.175 223.252 851.104 222.32C837.737 218.258 822.344 213.292 808.802 205.801C797.417 199.507 788.04 191.686 781.685 183.183C780.183 181.173 778.849 179.12 777.719 177.086C774.837 171.899 772.835 166.776 770.9 161.827C766.11 149.558 761.587 137.968 744.918 129.695C713.612 114.158 699.399 124.668 677.88 140.575C675.583 142.28 673.203 144.033 670.707 145.834C658.593 154.561 644.946 160.435 628.988 163.801C609.808 167.848 588.321 166.171 572.918 159.412C570.513 158.366 568.211 157.322 565.95 156.288C560.538 153.832 555.421 151.514 549.532 149.386C537.889 145.182 527.703 140.627 518.394 135.476C502.672 126.772 489.855 116.339 480.309 104.464C479.429 103.373 478.553 102.231 477.697 101.078C474.348 96.5508 471.263 91.641 468.288 86.8814C466.641 84.2601 464.94 81.5464 463.204 78.9018C460.538 74.8576 457.953 71.2347 455.296 67.8193C452.566 64.3154 449.512 60.8918 446.224 57.6596C441.155 52.6579 433.261 45.8841 423.378 44.8004C418.002 44.2061 412.738 45.3804 408.23 46.5258C397.446 49.2596 382.304 54.3955 375.27 67.3525C374.787 68.2353 375.115 69.3469 376 69.8214C376.882 70.304 377.994 69.9767 378.469 69.0917C384.816 57.3992 399.001 52.631 409.116 50.0617C413.315 49.0009 418.192 47.9083 422.969 48.4332C431.719 49.395 438.967 55.6437 443.656 60.268C446.833 63.3929 449.78 66.6929 452.411 70.0754C455.009 73.4147 457.547 76.9555 460.155 80.9235C461.867 83.5271 463.564 86.2224 465.196 88.8312C468.21 93.6443 471.33 98.6157 474.762 103.26C475.65 104.457 476.56 105.633 477.467 106.757C487.317 118.999 500.491 129.733 516.63 138.668C526.114 143.917 536.473 148.543 548.297 152.82C554.051 154.896 559.097 157.187 564.448 159.61C566.734 160.65 569.052 161.698 571.465 162.746C574.861 164.232 578.542 165.489 582.417 166.5L582.431 166.512Z" fill="white"/>
<path d="M583.249 157.351C597.449 161.057 614.177 161.64 629.426 158.723C645.703 155.605 660.149 149.67 672.369 141.067C674.509 139.565 676.565 138.084 678.556 136.655C700.413 120.984 713.606 111.521 742.797 125.193C758.25 132.427 762.972 142.425 768.439 154.001C770.652 158.683 772.939 163.515 776.067 168.523C777.36 170.6 778.861 172.679 780.528 174.723C787.483 183.261 797.374 191.112 809.12 197.422C821.814 204.231 835.415 208.929 851.943 213.877C855.072 214.816 858.953 215.976 862.863 215.988C867.122 215.995 870.979 214.715 874.516 213.325C886.723 208.536 897.287 201.683 908.469 194.427L911.321 192.562C914.237 190.653 917.257 188.676 920.304 186.732C932.3 179.123 946.421 171.433 962.263 163.88L964.062 163.019C987.001 152.099 1010.72 140.811 1034.71 140.609C1067.45 140.337 1095.11 157.444 1112.56 171.834C1113.8 172.853 1115.03 173.896 1116.27 174.96C1123.17 180.813 1130.3 186.857 1139.08 189.462C1145.85 191.462 1152.13 191.207 1158.21 190.957C1160.37 190.869 1162.42 190.786 1164.48 190.793C1183.64 190.916 1202.47 200.527 1214.88 216.497C1228.79 234.407 1262.18 257.976 1306.52 281.166C1350.02 303.921 1396.83 322.671 1434.96 332.622C1435.95 332.879 1436.95 332.29 1437.21 331.305C1437.47 330.319 1436.88 329.313 1435.89 329.056C1398.03 319.173 1351.49 300.522 1308.23 277.9C1264.35 254.951 1231.39 231.746 1217.8 214.233C1204.71 197.372 1184.79 187.233 1164.51 187.097C1162.36 187.083 1160.18 187.175 1158.07 187.26C1152.29 187.5 1146.31 187.748 1140.14 185.911C1132.11 183.528 1125.27 177.735 1118.67 172.133C1117.41 171.065 1116.16 170.007 1114.91 168.978C1097 154.196 1068.53 136.628 1034.68 136.907C1009.89 137.114 985.788 148.583 962.482 159.675L960.684 160.537C944.702 168.158 930.457 175.92 918.336 183.609C915.261 185.563 912.23 187.547 909.304 189.461L906.47 191.322C895.446 198.472 885.037 205.235 873.172 209.878C869.975 211.131 866.514 212.297 862.873 212.286C859.752 212.28 856.685 211.436 853.006 210.337C836.696 205.454 823.292 200.834 810.874 194.166C799.546 188.088 790.05 180.556 783.391 172.383C781.823 170.461 780.41 168.509 779.197 166.558C776.178 161.734 773.935 157.001 771.773 152.419C766.239 140.704 761.02 129.645 744.367 121.846C713.215 107.254 698.577 117.757 676.417 133.654C674.429 135.074 672.383 136.549 670.253 138.045C658.468 146.345 644.5 152.083 628.739 155.092C609.745 158.726 588.415 156.751 573.07 149.937C570.427 148.769 567.871 147.597 565.395 146.455C560.28 144.094 555.444 141.867 549.94 139.761C538.568 135.419 528.557 130.692 519.34 125.321C503.987 116.375 491.495 105.757 482.2 93.7561C481.34 92.6533 480.49 91.5097 479.664 90.346C476.523 85.952 473.623 81.2034 470.821 76.6108C469.115 73.8175 467.347 70.9296 465.531 68.125C462.903 64.0649 460.352 60.4424 457.724 57.0517C455.011 53.552 451.956 50.1631 448.642 46.9674C440.637 39.2516 433.371 35.2681 425.775 34.4509C420.599 33.8913 415.472 34.9098 410.708 36.1016C393.798 40.3151 383.394 46.9225 377.981 56.9021C377.496 57.7931 377.829 58.915 378.72 59.3997C379.611 59.8845 380.733 59.5511 381.218 58.6601C386.107 49.6568 395.752 43.6253 411.594 39.6722C416.03 38.5689 420.767 37.6137 425.368 38.1102C432.1 38.841 438.685 42.499 446.071 49.6186C449.254 52.6844 452.194 55.9476 454.796 59.3053C457.36 62.6096 459.855 66.1479 462.418 70.1216C464.21 72.8852 465.956 75.7585 467.65 78.5313C470.49 83.1773 473.426 87.9875 476.635 92.4863C477.488 93.683 478.37 94.8697 479.256 96.0055C488.845 108.379 501.697 119.316 517.458 128.5C526.849 133.969 537.037 138.785 548.601 143.194C553.986 145.252 558.768 147.457 563.83 149.787C566.314 150.931 568.884 152.114 571.549 153.297C575.157 154.9 579.085 156.247 583.229 157.328L583.249 157.351Z" fill="white"/>
<path d="M584.136 148.225C598.067 151.861 614.305 152.62 629.089 150.087C645.411 147.294 659.813 141.66 671.88 133.347C673.588 132.167 675.245 131.017 676.871 129.884C699.498 114.127 713.155 104.62 742.286 117.424C757.827 124.254 763.216 133.827 769.457 144.9C771.871 149.183 774.36 153.607 777.598 158.192C778.982 160.153 780.552 162.137 782.281 164.075C789.54 172.249 799.534 179.771 811.195 185.84C824.9 192.974 839.784 197.789 853.826 201.933C856.919 202.844 860.771 203.98 864.652 204.036C868.87 204.102 872.715 202.966 876.254 201.733C888.204 197.565 898.469 191.625 910.649 184.308C912.374 183.262 914.112 182.202 915.854 181.126C918.049 179.778 920.274 178.419 922.525 177.058C935.135 169.461 949.254 161.98 964.482 154.814L966.158 154.025C989.083 143.259 1012.79 132.113 1036.59 132.673C1071.11 133.472 1099.6 152.111 1117.43 167.6C1118.59 168.606 1119.75 169.64 1120.92 170.675C1128.14 177.099 1135.6 183.744 1145.03 186.343C1152.23 188.328 1158.94 187.677 1165.41 187.043C1167.63 186.832 1169.72 186.623 1171.84 186.522C1191.94 185.542 1212.05 194.895 1225.63 211.547C1254.58 247.025 1359.61 301.842 1437.69 322.219C1438.68 322.478 1439.7 321.883 1439.96 320.889C1440.22 319.896 1439.62 318.88 1438.63 318.62C1361.15 298.399 1257.08 244.2 1228.52 209.205C1214.19 191.645 1192.94 181.776 1171.66 182.814C1169.45 182.924 1167.21 183.139 1165.05 183.35C1158.91 183.948 1152.56 184.586 1146.02 182.757C1137.43 180.395 1130.3 174.045 1123.4 167.896C1122.22 166.849 1121.05 165.804 1119.88 164.786C1101.59 148.898 1072.31 129.776 1036.68 128.949C1012 128.378 987.897 139.706 964.584 150.658L962.909 151.447C947.561 158.668 933.329 166.216 920.617 173.873C918.356 175.24 916.121 176.604 913.917 177.951C912.177 179.019 910.45 180.073 908.733 181.12C896.747 188.324 886.648 194.167 875.031 198.223C871.818 199.341 868.347 200.374 864.717 200.322C861.348 200.269 857.763 199.212 854.888 198.366C841.023 194.277 826.338 189.532 812.917 182.542C801.654 176.68 792.03 169.437 785.066 161.602C783.432 159.766 781.945 157.9 780.645 156.047C777.515 151.613 775.074 147.271 772.709 143.071C766.416 131.897 760.465 121.343 743.787 114.007C712.737 100.354 697.624 110.881 674.741 126.815C673.125 127.942 671.468 129.092 669.77 130.266C658.15 138.269 644.254 143.696 628.468 146.402C609.67 149.619 588.496 147.345 573.198 140.483C570.277 139.181 567.458 137.854 564.722 136.574C559.935 134.325 555.417 132.207 550.334 130.158C539.216 125.674 529.38 120.776 520.272 115.189C505.294 106.002 493.113 95.1954 484.068 83.0685C483.243 81.966 482.414 80.8104 481.607 79.6346C478.676 75.3734 475.949 70.7919 473.321 66.3665C471.556 63.4011 469.738 60.3352 467.852 57.3645C465.272 53.2906 462.754 49.6766 460.156 46.3026C457.459 42.8071 454.406 39.4447 451.069 36.3039C443.23 28.9184 435.746 24.9388 428.182 24.1301C422.937 23.5697 417.664 24.6113 413.196 25.7061C396.734 29.7324 386.106 36.5334 380.707 46.4907C380.218 47.398 380.549 48.528 381.457 49.017C382.356 49.5039 383.494 49.1748 383.983 48.2675C388.858 39.2865 398.702 33.0897 414.085 29.3298C418.443 28.2584 423.126 27.3414 427.789 27.8365C434.509 28.5467 441.286 32.2026 448.516 39.0206C451.714 42.0294 454.64 45.2455 457.212 48.5866C459.739 51.864 462.201 55.3937 464.719 59.3731C466.573 62.3006 468.389 65.34 470.134 68.2827C472.8 72.7616 475.554 77.4026 478.557 81.7605C479.389 82.9691 480.244 84.1577 481.094 85.3012C490.42 97.8147 502.945 108.937 518.337 118.372C527.626 124.066 537.646 129.056 548.953 133.615C553.941 135.63 558.412 137.728 563.154 139.948C565.896 141.238 568.74 142.571 571.692 143.89C575.538 145.615 579.735 147.059 584.164 148.215L584.136 148.225Z" fill="white"/>
<path d="M585.369 139.233C598.917 142.769 614.305 143.619 628.743 141.448C645.11 138.98 659.448 133.66 671.379 125.634C672.591 124.819 673.775 124.015 674.947 123.225C697.633 107.875 712.623 97.7245 741.759 109.677C757.447 116.111 763.542 125.277 770.609 135.887C773.175 139.749 775.838 143.74 779.122 147.884C780.593 149.746 782.243 151.621 784.027 153.451C791.594 161.244 801.696 168.455 813.253 174.289C827.282 181.378 842.587 186.215 855.699 190.02C859.46 191.106 862.873 192.023 866.43 192.125C870.598 192.248 874.439 191.259 877.975 190.173C890.538 186.321 901.575 180.452 912.719 174.273C915.388 172.778 918.078 171.236 920.808 169.671C922.108 168.923 923.416 168.177 924.734 167.425C938.036 159.844 952.538 152.358 966.691 145.781L968.057 145.146C991.019 134.503 1014.77 123.492 1038.45 124.759C1074.81 126.708 1104.11 146.842 1122.28 163.386C1123.37 164.385 1124.47 165.401 1125.57 166.429C1133.1 173.429 1140.89 180.688 1150.94 183.243C1158.59 185.203 1165.67 184.156 1172.52 183.135C1174.81 182.793 1176.97 182.479 1179.16 182.258C1200.17 180.202 1221.54 189.303 1236.36 206.606C1265.8 240.996 1364.95 292.129 1440.38 311.818C1441.39 312.081 1442.42 311.479 1442.68 310.47C1442.95 309.46 1442.35 308.433 1441.34 308.17C1406.51 299.079 1363.84 282.264 1324.28 262.034C1284.14 241.506 1253.14 220.413 1239.23 204.154C1223.62 185.914 1201.02 176.329 1178.8 178.512C1176.51 178.733 1174.21 179.079 1171.98 179.411C1165.5 180.372 1158.8 181.363 1151.89 179.593L1151.76 179.561C1142.69 177.194 1135.31 170.317 1128.15 163.665C1127.03 162.627 1125.92 161.597 1124.82 160.596C1098.1 136.273 1068.31 122.585 1038.65 120.993C1014.04 119.674 989.851 130.884 966.472 141.723L965.106 142.358C950.658 149.067 936.446 156.402 922.868 164.146C921.549 164.898 920.24 165.652 918.94 166.4C916.23 167.954 913.55 169.489 910.892 170.978C899.93 177.058 889.084 182.828 876.871 186.571C873.647 187.565 870.168 188.466 866.544 188.355C863.428 188.263 860.265 187.42 856.749 186.398C843.797 182.644 828.705 177.861 814.949 170.923C803.761 165.272 794 158.324 786.721 150.824C785.021 149.076 783.457 147.302 782.065 145.539C778.872 141.514 776.261 137.588 773.739 133.791C766.642 123.129 759.94 113.057 743.183 106.187C712.183 93.4788 695.677 104.642 672.83 120.107C671.658 120.897 670.474 121.701 669.27 122.518C657.812 130.233 643.987 135.356 628.173 137.733C609.297 140.582 588.783 138.08 573.295 131.046C570.043 129.58 566.911 128.084 563.881 126.632C559.666 124.619 555.314 122.535 550.698 120.565C539.974 116.001 530.038 110.79 521.174 105.067C506.57 95.6465 494.709 84.6457 485.916 72.3846C485.117 71.2804 484.317 70.1149 483.54 68.9293C480.812 64.8171 478.268 60.4048 475.806 56.1444C473.991 53.0009 472.108 49.7527 470.155 46.6078C467.619 42.5282 465.13 38.9043 462.56 35.5551C459.888 32.066 456.82 28.726 453.462 25.6319C445.686 18.4715 438.199 14.6041 430.556 13.8007C425.249 13.2418 420.046 14.2494 415.649 15.3021C399.402 19.2102 388.855 25.9977 383.392 36.0686C382.892 36.9819 383.238 38.1243 384.151 38.6236C385.066 39.1147 386.207 38.7775 386.706 37.8642C391.631 28.7919 401.385 22.6064 416.536 18.9686C420.618 17.9903 425.428 17.0541 430.17 17.5439C436.967 18.257 443.756 21.8028 450.915 28.3935C454.119 31.3432 457.032 34.5122 459.573 37.8367C462.072 41.0892 464.485 44.6063 466.959 48.5913C468.882 51.6848 470.745 54.9104 472.549 58.0252C475.042 62.337 477.618 66.7925 480.406 71.0073C481.218 72.228 482.044 73.4264 482.867 74.5717C491.933 87.2173 504.136 98.542 519.141 108.224C528.191 114.065 538.311 119.376 549.239 124.02C553.779 125.952 557.908 127.926 562.268 130.012C565.315 131.468 568.469 132.978 571.752 134.461C575.973 136.38 580.557 137.977 585.369 139.233Z" fill="white"/>
<path d="M586.405 130.163C599.628 133.614 614.482 134.612 628.407 132.803C644.808 130.674 659.102 125.656 670.891 117.906L672.749 116.686C696.409 101.102 712.043 90.816 741.257 101.902C757.162 107.94 764.024 116.732 771.969 126.911C774.642 130.33 777.398 133.867 780.672 137.548C782.217 139.291 783.946 141.064 785.796 142.808C793.667 150.236 803.888 157.122 815.333 162.718C829.778 169.784 845.502 174.645 857.596 178.088C861.32 179.147 864.697 180.037 868.23 180.194C872.357 180.375 876.187 179.531 879.717 178.6C891.591 175.455 902.342 170.582 914.821 164.221C918.547 162.306 922.231 160.319 926.127 158.223L926.958 157.77C941.805 149.765 955.922 142.692 968.921 136.736L969.83 136.321C992.887 125.781 1016.73 114.879 1040.35 116.843C1070.62 119.354 1100.64 133.989 1127.16 159.173C1128.21 160.16 1129.25 161.17 1130.3 162.194C1138.13 169.767 1146.21 177.598 1156.89 180.143C1164.96 182.067 1172.42 180.622 1179.64 179.218C1182 178.757 1184.24 178.323 1186.51 178.001C1208.37 174.882 1231.03 183.727 1247.12 201.666C1261.45 217.641 1291.87 238.008 1330.58 257.539C1368.47 276.656 1409.5 292.65 1443.11 301.425C1444.13 301.69 1445.17 301.083 1445.43 300.065C1445.7 299.047 1445.09 298.01 1444.07 297.744C1373.14 279.231 1278.8 231.311 1249.95 199.135C1233.02 180.245 1209.1 170.94 1185.96 174.242C1183.61 174.575 1181.22 175.038 1178.91 175.488C1172.08 176.812 1165.03 178.18 1157.77 176.441C1148.1 174.125 1140.4 166.674 1132.95 159.457C1131.88 158.432 1130.83 157.409 1129.79 156.414C1102.63 130.63 1071.81 115.629 1040.67 113.048C1016.05 111.006 991.755 122.12 968.255 132.858L967.347 133.273C954.278 139.263 940.089 146.378 925.164 154.414L924.333 154.867C920.456 156.96 916.792 158.934 913.097 160.831C900.84 167.077 890.304 171.858 878.755 174.923C875.521 175.783 872.025 176.549 868.404 176.396C865.273 176.265 862.134 175.429 858.646 174.431C846.707 171.028 831.184 166.229 817.018 159.297C805.903 153.865 796.014 147.205 788.416 140.03C786.642 138.367 785.004 136.679 783.525 135.014C780.331 131.424 777.614 127.941 774.981 124.566C766.686 113.931 759.517 104.746 742.615 98.3342C711.573 86.5537 694.412 97.8591 670.659 113.497L668.801 114.716C657.495 122.149 643.742 126.961 627.918 129.014C609.249 131.438 588.886 128.654 573.432 121.559C569.795 119.897 566.292 118.191 562.907 116.534C559.12 114.684 555.203 112.766 551.099 110.93C540.604 106.225 530.852 100.836 522.111 94.911C507.881 85.2573 496.33 74.0679 487.798 61.6748C487.036 60.5628 486.263 59.3955 485.495 58.2038C482.959 54.2284 480.584 49.9994 478.287 45.904C476.423 42.5825 474.501 39.1501 472.472 35.8289C469.978 31.7253 467.529 28.112 464.982 24.7773C462.326 21.2925 459.26 17.979 455.87 14.9376C448.166 8.00453 440.667 4.24726 432.952 3.45124C427.55 2.89341 422.194 3.92188 418.124 4.88606C402.315 8.61296 391.544 15.5942 386.1 25.6265C385.598 26.5479 385.939 27.7066 386.861 28.208C387.782 28.7094 388.941 28.3683 389.442 27.4468C394.35 18.405 404.294 12.0602 419 8.59334C422.773 7.69957 427.726 6.74855 432.562 7.24545C439.455 7.95748 446.245 11.3993 453.331 17.7708C456.544 20.6532 459.446 23.7936 461.962 27.0851C464.424 30.3108 466.797 33.8171 469.225 37.8078C471.21 41.0653 473.122 44.469 474.968 47.7597C477.296 51.8983 479.691 56.1846 482.292 60.2464C483.084 61.4792 483.882 62.6875 484.67 63.8325C493.473 76.6182 505.355 88.1376 519.984 98.0608C528.91 104.113 538.858 109.614 549.557 114.406C553.606 116.219 557.492 118.121 561.249 119.954C564.659 121.618 568.182 123.346 571.859 125.019C576.363 127.09 581.264 128.804 586.417 130.149L586.405 130.163Z" fill="white"/>
<path d="M587.519 121.131C600.383 124.489 614.672 125.618 628.054 124.162C644.496 122.374 658.733 117.672 670.391 110.192C695.038 94.3612 711.325 83.906 740.744 94.1411C756.968 99.7845 764.665 108.246 773.585 118.053C776.267 121.006 779.044 124.061 782.217 127.229C783.85 128.872 785.651 130.534 787.563 132.172C795.756 139.233 806.079 145.797 817.412 151.155C828.96 156.622 841.936 161.252 859.481 166.17C863.168 167.202 866.498 168.071 870.021 168.269C874.109 168.501 877.932 167.812 881.443 167.023C894.674 164.076 906.79 158.872 916.896 154.17C920.752 152.359 924.593 150.439 929.164 148.118C941.796 141.701 956.502 134.304 971.125 127.693L971.469 127.539C994.642 117.09 1018.61 106.292 1042.21 108.921C1074.05 112.475 1105.11 128.388 1132.02 154.962C1133.01 155.944 1134.01 156.952 1135.02 157.962C1143.13 166.106 1151.53 174.534 1162.8 177.048C1171.28 178.94 1179.12 177.09 1186.69 175.301C1189.14 174.722 1191.45 174.179 1193.81 173.75C1216.84 169.534 1240.19 177.915 1257.85 196.743C1287.26 228.1 1376.85 273.043 1445.82 291.041C1446.84 291.309 1447.9 290.698 1448.17 289.664C1448.44 288.63 1447.82 287.582 1446.79 287.312C1378.39 269.46 1289.68 225.035 1260.66 194.103C1242.08 174.305 1217.47 165.508 1193.13 169.955C1190.68 170.403 1188.21 170.986 1185.83 171.545C1178.67 173.234 1171.27 174.972 1163.65 173.279C1153.46 171.021 1145.48 162.989 1137.76 155.235C1136.75 154.215 1135.74 153.202 1134.74 152.21C1107.2 125.03 1075.35 108.735 1042.66 105.089C1018.01 102.342 993.554 113.362 969.907 124.027L969.561 124.189C954.861 130.831 940.103 138.259 927.44 144.694C922.897 147.005 919.088 148.906 915.283 150.688C905.366 155.3 893.485 160.4 880.614 163.267C877.372 163.995 873.867 164.629 870.25 164.424C867.113 164.249 863.989 163.424 860.527 162.46C843.192 157.605 830.408 153.042 819.06 147.672C808.038 142.456 798.019 136.093 790.073 129.253C788.24 127.679 786.517 126.081 784.946 124.506C781.835 121.398 779.092 118.377 776.436 115.458C767.165 105.264 759.164 96.4701 742.016 90.4988C710.82 79.6434 692.994 91.097 668.316 106.945C657.168 114.106 643.488 118.606 627.644 120.333C609.188 122.342 588.961 119.272 573.55 112.111C569.45 110.223 565.513 108.248 561.698 106.339C558.407 104.688 555.006 102.992 551.484 101.325C541.209 96.4777 531.643 90.9112 523.034 84.7769C509.17 74.8882 497.943 63.5225 489.66 50.9769C488.918 49.8528 488.171 48.6838 487.433 47.4822C485.09 43.6618 482.881 39.5979 480.748 35.6756C478.845 32.1699 476.868 28.5492 474.779 25.056C472.324 20.9365 469.908 17.3317 467.399 14.0157C464.759 10.5352 461.687 7.24605 458.277 4.25147C450.748 -2.35735 443.031 -6.11075 435.337 -6.8841C431.067 -7.32005 426.522 -6.89755 420.597 -5.52186C405.002 -1.91316 394.304 5.05245 388.803 15.2005C388.298 16.1382 388.647 17.2991 389.574 17.8107C390.512 18.3163 391.671 17.9752 392.184 17.0396C397.142 7.90644 406.994 1.58112 421.471 -1.77173C426.968 -3.04163 431.134 -3.44152 434.963 -3.05094C441.844 -2.35947 448.835 1.07416 455.755 7.15013C458.975 9.97339 461.863 13.0667 464.348 16.3416C466.775 19.5403 469.114 23.0382 471.492 27.0243C473.544 30.4559 475.495 34.0437 477.382 37.5103C479.539 41.4737 481.772 45.5787 484.169 49.4915C484.931 50.7341 485.703 51.9442 486.462 53.0991C495.009 66.0352 506.562 77.7472 520.808 87.9093C529.599 94.1781 539.375 99.8692 549.854 104.804C553.331 106.442 556.716 108.135 559.985 109.77C563.823 111.694 567.792 113.678 571.938 115.586C576.748 117.815 582.003 119.674 587.523 121.115L587.519 121.131Z" fill="white"/>
<path d="M588.969 112.239C601.328 115.465 614.77 116.643 627.709 115.515C644.183 114.074 658.374 109.682 669.894 102.461C695.088 86.6693 711.966 77.4469 740.241 86.3659C756.915 91.622 765.149 99.424 775.575 109.294C778.154 111.741 780.826 114.264 783.768 116.885C785.481 118.419 787.353 119.977 789.325 121.518C797.856 128.215 808.289 134.46 819.478 139.571C831.178 144.921 844.495 149.579 861.362 154.225C864.867 155.192 868.299 156.07 871.807 156.325C875.869 156.62 879.667 156.063 883.164 155.428C894.028 153.454 905.079 149.964 918.975 144.103C922.517 142.592 926.346 140.852 931.373 138.451C934.821 136.803 938.32 135.124 941.852 133.42C952.108 128.478 962.713 123.367 973.34 118.635C996.509 108.333 1020.46 97.6876 1044.09 100.977C1077.54 105.637 1109.63 122.847 1136.89 150.73C1137.86 151.712 1138.81 152.709 1139.79 153.711C1148.18 162.433 1156.86 171.438 1168.73 173.92C1177.62 175.769 1185.82 173.527 1193.75 171.351C1196.17 170.688 1198.69 169.998 1201.13 169.46C1224.96 164.226 1249.55 172.366 1268.59 191.782C1298 221.764 1382.09 263.286 1448.53 280.628C1449.57 280.9 1450.63 280.28 1450.9 279.238C1451.18 278.196 1450.56 277.138 1449.51 276.866C1383.62 259.669 1300.38 218.637 1271.37 189.064C1251.37 168.668 1225.47 160.141 1200.3 165.669C1197.76 166.225 1195.2 166.929 1192.72 167.606C1185.24 169.661 1177.49 171.779 1169.53 170.117C1158.83 167.89 1150.57 159.317 1142.58 151.024C1141.6 150.011 1140.64 149.003 1139.67 148.02C1111.8 119.518 1078.94 101.922 1044.63 97.1432C1019.9 93.6979 995.43 104.573 971.76 115.092C961.073 119.852 950.44 124.973 940.164 129.927C936.632 131.631 933.141 133.311 929.695 134.952C924.709 137.329 920.938 139.049 917.455 140.532C903.833 146.273 893.036 149.691 882.464 151.61C879.213 152.205 875.705 152.716 872.077 152.456C868.926 152.234 865.692 151.398 862.391 150.485C845.724 145.9 832.599 141.309 821.094 136.045C810.177 131.056 800.025 124.972 791.722 118.465C789.815 116.976 788.008 115.469 786.357 113.995C783.457 111.412 780.808 108.903 778.247 106.486C767.884 96.6765 758.93 88.1997 741.406 82.6695C711.483 73.2334 693.958 82.8002 667.83 99.1746C656.84 106.064 643.222 110.258 627.37 111.652C608.85 113.271 589.276 109.997 573.666 102.662C569.007 100.489 564.522 98.1796 560.19 95.9531C557.498 94.5721 554.714 93.1413 551.874 91.7302C541.818 86.7403 532.42 81 523.962 74.6531C510.478 64.5417 499.561 52.9874 491.533 40.2994C490.824 39.1839 490.099 37.9947 489.381 36.7811C487.217 33.1115 485.177 29.231 483.199 25.4797C481.258 21.79 479.244 17.977 477.098 14.3036C474.687 10.1784 472.308 6.56581 469.819 3.27252C467.196 -0.203787 464.125 -3.46635 460.684 -6.40822C453.237 -12.7958 445.515 -16.4288 437.724 -17.2011C433.461 -17.6268 428.805 -17.2156 423.065 -15.9135C407.897 -12.48 396.984 -5.31867 391.502 4.79082C390.986 5.73455 391.339 6.91379 392.283 7.42968C393.229 7.93745 394.406 7.59244 394.913 6.64658C401.147 -4.84097 414.128 -9.89716 423.919 -12.1248C429.243 -13.3271 433.5 -13.7118 437.341 -13.3354C444.318 -12.6449 451.321 -9.32136 458.157 -3.45854C461.384 -0.694406 464.267 2.35393 466.721 5.61217C469.119 8.78614 471.41 12.2713 473.751 16.2651C475.855 19.8667 477.844 23.6385 479.768 27.2974C481.77 31.0898 483.834 35.0114 486.038 38.761C486.772 40.0136 487.523 41.2357 488.248 42.3902C496.529 55.4746 507.762 67.3813 521.634 77.7762C530.29 84.262 539.881 90.1308 550.154 95.2209C552.972 96.6174 555.739 98.044 558.423 99.4229C562.786 101.666 567.303 103.984 572.032 106.192C577.307 108.674 583.013 110.702 588.973 112.258L588.969 112.239Z" fill="white"/>
<path d="M590.281 103.285C602.201 106.396 615.034 107.675 627.367 106.868C643.87 105.783 658.013 101.708 669.406 94.7414C695.316 78.9016 712.953 69.9033 739.674 78.5818C757.735 84.4524 767.559 92.3299 780 102.308C781.718 103.687 783.487 105.105 785.334 106.561C787.127 107.986 789.069 109.441 791.102 110.884C799.996 117.224 810.53 123.147 821.556 128.016C833.439 133.266 847.082 137.94 863.248 142.307C866.708 143.245 870.093 144.102 873.588 144.406C877.62 144.753 881.404 144.35 884.881 143.857C896.065 142.289 907.557 139.174 921.048 134.068C924.767 132.647 928.743 130.972 933.584 128.818C939.678 126.095 945.767 123.257 952.211 120.26C959.842 116.712 967.731 113.04 975.559 109.605C998.538 99.5308 1022.3 89.1222 1045.98 93.0669C1081.09 98.9256 1114.22 117.408 1141.77 146.531C1142.69 147.512 1143.62 148.501 1144.56 149.503C1152.82 158.356 1162.18 168.401 1174.66 170.821C1183.94 172.627 1192.5 169.983 1200.78 167.429C1203.3 166.651 1205.91 165.846 1208.44 165.202C1233.02 158.982 1258.87 166.868 1279.35 186.848C1311.59 218.299 1394.26 255.358 1451.25 270.231C1452.3 270.505 1453.37 269.879 1453.64 268.829C1453.91 267.778 1453.29 266.711 1452.24 266.436C1395.73 251.689 1313.87 215.062 1282.09 184.041C1260.61 163.085 1233.42 154.833 1207.48 161.394C1204.84 162.063 1202.19 162.885 1199.62 163.674C1191.81 166.088 1183.73 168.588 1175.41 166.966C1164.19 164.784 1155.67 155.647 1147.43 146.818C1146.49 145.808 1145.56 144.807 1144.63 143.826C1116.49 114.078 1082.6 95.19 1046.63 89.1938C1021.81 85.0535 996.404 96.182 973.994 106.004C966.125 109.464 958.217 113.14 950.566 116.7C944.132 119.691 938.064 122.516 931.991 125.227C927.217 127.356 923.3 129.003 919.657 130.401C906.455 135.399 895.233 138.445 884.345 139.978C881.095 140.434 877.579 140.812 873.929 140.503C870.756 140.231 867.552 139.412 864.269 138.529C848.298 134.213 834.838 129.605 823.133 124.437C812.349 119.674 802.057 113.892 793.378 107.695C791.404 106.293 789.512 104.878 787.77 103.492C785.931 102.039 784.17 100.622 782.458 99.2535C769.707 89.0294 759.633 80.9472 740.89 74.8553C710.553 65.0068 690.533 77.2357 667.357 91.3976C656.512 98.029 642.973 101.922 627.11 102.957C608.812 104.156 589.372 100.604 573.798 93.1994C568.432 90.6683 563.506 88.052 558.287 85.2897C556.3 84.2406 554.306 83.1811 552.27 82.1192C542.41 76.9803 533.197 71.0624 524.887 64.519C511.772 54.191 501.176 42.4419 493.396 29.6015C492.715 28.476 492.018 27.2851 491.32 26.0594C489.34 22.5509 487.453 18.8495 485.637 15.2795C483.658 11.3976 481.618 7.3864 479.407 3.53063C477.041 -0.600224 474.696 -4.21243 472.232 -7.49934C469.627 -10.9795 466.548 -14.2095 463.086 -17.1047C455.72 -23.271 447.985 -26.7858 440.114 -27.5528C435.798 -27.9749 431.165 -27.5839 425.535 -26.3399C415.105 -24.0269 401.206 -18.5578 394.203 -5.65356C393.685 -4.70169 394.042 -3.50404 394.996 -2.99415C395.948 -2.47611 397.138 -2.83529 397.656 -3.78716C403.953 -15.3883 416.751 -20.3709 426.388 -22.5083C431.594 -23.6629 435.837 -24.0252 439.737 -23.6421C446.818 -22.9505 453.824 -19.7392 460.569 -14.0916C463.802 -11.3867 466.669 -8.37724 469.095 -5.14378C471.463 -1.98646 473.721 1.49018 476.003 5.47729C478.164 9.25906 480.19 13.2232 482.145 17.064C483.985 20.6751 485.89 24.4073 487.91 27.9957C488.623 29.2604 489.339 30.4821 490.044 31.6487C498.067 44.8917 508.979 56.993 522.463 67.6084C530.968 74.3069 540.39 80.3577 550.457 85.6028C552.485 86.6626 554.472 87.7118 556.451 88.7588C561.709 91.5398 566.674 94.175 572.125 96.7457C577.765 99.4266 583.898 101.619 590.289 103.287L590.281 103.285Z" fill="white"/>
<path d="M591.707 94.3864C603.138 97.3699 615.323 98.7325 627.013 98.2266C643.54 97.5135 657.639 93.7403 668.907 87.0194C693.809 72.1774 712.178 63.0397 739.186 70.8191C758.639 76.4183 769.543 84.0559 784.635 94.639L786.906 96.2319C788.789 97.5494 790.802 98.9009 792.886 100.245C802.166 106.241 812.8 111.843 823.633 116.453C835.907 121.674 849.483 126.235 865.141 130.383C868.41 131.253 871.895 132.128 875.388 132.474C879.413 132.881 883.322 132.597 886.615 132.274C898.257 131.121 909.864 128.497 923.14 124.014C926.95 122.712 931.095 121.124 935.808 119.162C943.556 115.932 951.643 112.268 959.472 108.728C965.468 106.014 971.671 103.207 977.799 100.554C999.52 91.1689 1024.15 80.5427 1047.88 85.137C1084.72 92.2647 1118.88 112.041 1146.67 142.314C1147.56 143.287 1148.46 144.277 1149.36 145.279C1157.88 154.675 1167.52 165.325 1180.6 167.711C1190.28 169.48 1199.19 166.433 1207.82 163.492C1210.43 162.6 1213.13 161.679 1215.76 160.931C1241.06 153.748 1268.15 161.394 1290.11 181.908C1322.37 212.045 1400.29 245.825 1453.98 259.838C1455.03 260.114 1456.12 259.476 1456.4 258.418C1456.68 257.359 1456.04 256.271 1454.98 255.995C1401.76 242.105 1324.62 208.719 1292.81 179.005C1269.81 157.523 1241.33 149.541 1214.67 157.115C1211.94 157.889 1209.19 158.832 1206.53 159.737C1198.38 162.517 1189.97 165.391 1181.3 163.808C1169.56 161.664 1160.78 151.981 1152.3 142.611C1151.39 141.608 1150.49 140.606 1149.59 139.623C1121.21 108.72 1086.3 88.5297 1048.63 81.2362C1023.69 76.405 998.468 87.3026 976.22 96.9064C970.063 99.5696 963.842 102.381 957.834 105.109C949.679 108.799 941.977 112.285 934.286 115.495C929.652 117.425 925.592 118.983 921.869 120.255C908.89 124.634 897.567 127.201 886.228 128.329C882.977 128.655 879.46 128.902 875.79 128.535C872.587 128.213 869.411 127.418 866.167 126.554C850.698 122.447 837.302 117.96 825.193 112.808C814.564 108.286 804.144 102.792 795.043 96.9119C793.003 95.5968 791.035 94.2744 789.189 92.9838L786.926 91.393C772.097 81.0004 760.385 72.7952 740.292 67.0119C711.787 58.8068 691.885 68.7185 666.889 83.6228C656.187 90.0047 642.721 93.5864 626.853 94.2716C608.777 95.0586 589.48 91.2224 573.925 83.7449C567.638 80.7472 561.872 77.5813 555.773 74.2242L552.662 72.5165C543.006 67.2307 533.97 61.1329 525.817 54.387C513.071 43.8424 502.794 31.9069 495.262 18.9138C494.608 17.7866 493.939 16.5857 493.27 15.3501C491.458 11.9985 489.731 8.48656 488.059 5.09356C486.052 1.02152 483.985 -3.18789 481.721 -7.24014C479.402 -11.3848 477.09 -14.9885 474.656 -18.2588C472.068 -21.7348 468.982 -24.9403 465.491 -27.7908C458.314 -33.647 450.364 -37.1395 442.508 -37.8942C438.189 -38.3081 433.448 -37.9366 428.009 -36.7559C417.72 -34.5191 403.98 -29.1218 396.908 -16.0876C396.388 -15.1276 396.743 -13.9218 397.703 -13.4017C398.663 -12.8815 399.868 -13.2365 400.389 -14.1965C406.74 -25.9053 419.372 -30.8181 428.849 -32.8756C433.875 -33.9727 438.217 -34.3177 442.128 -33.9406C449.205 -33.2675 456.416 -30.0725 462.983 -24.7145C466.226 -22.0767 469.077 -19.1063 471.473 -15.8894C473.804 -12.759 476.021 -9.29302 478.258 -5.30024C480.47 -1.34854 482.513 2.81981 484.498 6.84264C486.185 10.2746 487.93 13.8174 489.777 17.2387C490.47 18.5154 491.155 19.7552 491.827 20.9132C499.591 34.3148 510.175 46.6086 523.285 57.457C531.632 64.358 540.873 70.6048 550.759 76.0114L553.862 77.717C560.015 81.0971 565.827 84.2839 572.207 87.3316C578.257 90.2412 584.847 92.6134 591.711 94.4048L591.707 94.3864Z" fill="white"/>
<path d="M593.396 85.6176C604.192 88.4353 615.522 89.8095 626.662 89.5775C643.205 89.2339 657.248 85.7766 668.41 79.2974C693.87 64.5142 712.621 57.546 738.766 63.0653C758.203 67.1642 770.491 74.763 786.044 84.3793L788.471 85.8739C790.449 87.0944 792.524 88.3404 794.66 89.585C804.39 95.2552 815.124 100.544 825.706 104.88C838.254 110.016 852.125 114.584 867.021 118.454C870.237 119.294 873.669 120.137 877.163 120.545C881.189 121.013 885.06 120.876 888.32 120.683C900.242 119.985 912.304 117.785 925.194 113.948C929.053 112.79 933.119 111.373 938 109.499C946.877 106.041 956.126 101.959 965.059 98.0199C969.953 95.8621 975.005 93.6324 979.995 91.5083C1000.49 82.7865 1024.83 74.2758 1049.94 77.2394C1085 81.3709 1119.18 101.85 1151.53 138.097C1152.4 139.071 1153.27 140.056 1154.15 141.05C1162.92 150.991 1172.85 162.263 1186.52 164.594C1196.58 166.317 1205.85 162.875 1214.81 159.551C1217.52 158.547 1220.33 157.504 1223.06 156.651C1249.39 148.426 1277.01 155.636 1300.85 176.955C1333.48 206.125 1405.49 236.068 1456.69 249.432C1457.77 249.713 1458.86 249.067 1459.14 248C1459.41 246.934 1458.77 245.835 1457.7 245.557C1406.96 232.311 1335.68 202.725 1303.53 173.974C1278.6 151.685 1249.59 144.174 1221.87 152.836C1219.04 153.723 1216.18 154.777 1213.42 155.806C1204.96 158.946 1196.2 162.2 1187.2 160.658C1174.94 158.564 1165.9 148.317 1157.16 138.41C1156.28 137.405 1155.41 136.412 1154.53 135.436C1121.51 98.4388 1086.48 77.5226 1050.42 73.2685C1024.37 70.1912 999.416 78.9057 978.433 87.8306C973.423 89.9669 968.352 92.2004 963.448 94.3642C954.551 98.2952 945.346 102.345 936.555 105.773C931.788 107.608 927.808 108.995 924.054 110.12C911.467 113.862 899.697 116.008 888.091 116.692C884.999 116.877 881.349 117.002 877.626 116.57C874.385 116.194 871.11 115.382 868.03 114.587L867.721 114.506C853.138 110.7 839.514 106.223 827.218 101.187C816.808 96.9223 806.243 91.721 796.671 86.1443C794.571 84.9266 792.519 83.6951 790.572 82.4912L788.144 80.9967C772.252 71.1788 759.695 63.414 739.582 59.1734C712.307 53.42 692.091 60.9364 666.384 75.864C655.818 81.9942 642.422 85.2725 626.568 85.6048C608.45 85.9811 589.793 81.9637 574.023 74.3086C566.517 70.6798 559.355 66.5668 553.031 62.942C543.562 57.5051 534.704 51.2275 526.721 44.2915C514.344 33.5385 504.376 21.4143 497.114 8.2567C496.48 7.11743 495.856 5.94559 495.197 4.6693C493.551 1.48267 491.975 -1.842 490.449 -5.058C488.423 -9.32617 486.332 -13.7419 484.018 -17.9723C481.753 -22.1204 479.475 -25.7238 477.058 -28.9898C474.485 -32.4616 471.393 -35.6427 467.879 -38.4384C460.8 -44.069 452.847 -47.4493 444.874 -48.1908C440.486 -48.6055 435.776 -48.2521 430.464 -47.1252C416.127 -44.075 405.161 -36.7447 399.596 -26.483C399.063 -25.5089 399.424 -24.2928 400.4 -23.7684C401.374 -23.2359 402.59 -23.5968 403.115 -24.5731C409.529 -36.3874 421.976 -41.2266 431.295 -43.2122C436.204 -44.2617 440.524 -44.5865 444.504 -44.2086C451.686 -43.5345 458.916 -40.4473 465.383 -35.3067C468.624 -32.7302 471.47 -29.8047 473.837 -26.6127C476.138 -23.4989 478.317 -20.0517 480.502 -16.0635C482.764 -11.9337 484.825 -7.56927 486.829 -3.35032C488.365 -0.10566 489.959 3.24983 491.633 6.49593C492.31 7.80301 492.95 9.01379 493.602 10.1839C501.097 23.75 511.361 36.2385 524.092 47.3014C532.273 54.4108 541.335 60.8375 551.04 66.4054C557.415 70.0695 564.646 74.2179 572.276 77.9051C578.898 81.1206 586.013 83.7167 593.381 85.6398L593.396 85.6176Z" fill="white"/>
<path d="M595.067 76.8177C605.277 79.4825 615.9 80.8984 626.311 80.9283C642.867 80.9706 656.864 77.823 667.913 71.5753C691.725 58.1099 711.811 50.6901 738.29 55.2964C757.991 58.7163 771.571 65.5305 790.05 75.5281C792.114 76.6495 794.268 77.7943 796.442 78.927C806.87 84.3881 817.411 89.2177 827.782 93.2985C840.834 98.4356 854.667 102.881 868.904 106.51C871.912 107.277 875.428 108.134 878.944 108.591C882.99 109.116 886.821 109.134 890.038 109.069C902.376 108.845 914.552 107.144 927.268 103.871C931.206 102.846 935.438 101.525 940.203 99.8287C949.983 96.311 960.098 91.9416 969.879 87.7198C973.918 85.9736 978.094 84.1676 982.204 82.4487C1004.03 73.2998 1027.56 65.3788 1051.78 69.2924C1089.2 75.3443 1124.4 97.0623 1156.4 133.871C1157.25 134.839 1158.09 135.825 1158.95 136.822C1167.96 147.306 1178.17 159.189 1192.42 161.473C1202.87 163.149 1212.49 159.319 1221.79 155.607C1224.59 154.487 1227.51 153.325 1230.34 152.368C1257.29 143.244 1286.14 150.217 1311.59 172C1344.45 200.117 1411.24 226.447 1459.4 239.017C1460.49 239.299 1461.59 238.647 1461.87 237.572C1462.15 236.498 1461.5 235.389 1460.42 235.108C1411.18 222.256 1345.15 195.395 1314.23 168.931C1287.65 146.186 1257.4 138.951 1229.05 148.544C1226.11 149.535 1223.16 150.72 1220.3 151.86C1211.51 155.368 1202.42 158.987 1193.07 157.494C1180.29 155.438 1171 144.647 1162.02 134.198C1161.16 133.2 1160.31 132.203 1159.46 131.233C1126.81 93.6932 1090.81 71.5198 1052.43 65.3131C1027.21 61.234 1003.01 69.3564 980.642 78.7364C976.511 80.4673 972.325 82.2794 968.278 84.0234C958.546 88.2233 948.491 92.5647 938.836 96.0368C934.186 97.693 930.066 98.9832 926.249 99.9786C913.85 103.169 901.973 104.826 889.957 105.047C886.891 105.099 883.248 105.096 879.465 104.596C876.167 104.17 872.8 103.344 869.897 102.603C855.823 99.0169 842.151 94.6224 829.258 89.544C819.029 85.5178 808.614 80.7385 798.316 75.3461C796.158 74.2176 794.027 73.0873 791.979 71.9702C773.15 61.7771 759.282 54.8355 738.982 51.3114C711.322 46.5011 690.515 54.1502 665.926 68.0566C655.499 73.9535 642.174 76.9284 626.322 76.8873C608.435 76.8455 589.917 72.5602 574.161 64.8215C566.666 61.152 559.768 57.1254 553.441 53.3088C544.152 47.7186 535.479 41.2633 527.668 34.1372C515.658 23.1757 506.009 10.865 498.997 -2.4533C498.392 -3.60249 497.788 -4.78637 497.156 -6.06442C495.673 -9.07791 494.24 -12.2174 492.857 -15.2483C490.815 -19.7207 488.707 -24.3407 486.349 -28.7654C484.122 -32.9295 481.888 -36.5304 479.491 -39.7738C476.936 -43.2494 473.838 -46.4061 470.293 -49.149C463.313 -54.5623 455.352 -57.8141 447.276 -58.5567C442.886 -58.9632 438.068 -58.6293 432.946 -57.5657C418.813 -54.6277 407.926 -47.3028 402.309 -36.9416C401.774 -35.9593 402.141 -34.733 403.123 -34.1983C404.105 -33.6637 405.332 -34.0306 405.866 -35.0129C410.912 -44.3146 420.825 -50.9107 433.773 -53.6018C438.499 -54.5858 442.919 -54.8932 446.912 -54.5295C454.216 -53.8581 461.451 -50.8914 467.823 -45.9498C471.07 -43.4324 473.902 -40.554 476.239 -37.3786C478.511 -34.2896 480.649 -30.853 482.782 -26.8613C485.085 -22.5556 487.162 -17.9868 489.176 -13.5739C490.569 -10.5144 492.012 -7.34619 493.525 -4.28135C494.173 -2.96437 494.795 -1.74967 495.418 -0.569697C502.652 13.1632 512.587 25.8442 524.941 37.1216C532.948 44.4292 541.839 51.046 551.363 56.7753C557.774 60.6316 564.753 64.7141 572.387 68.4544C579.502 71.9465 587.159 74.7625 595.073 76.828L595.067 76.8177Z" fill="white"/>
<path d="M596.9 68.0952C606.459 70.59 616.312 72.0224 625.959 72.2791C642.752 72.7137 656.316 69.9576 667.423 63.8554C694.22 49.1166 714.613 44.3859 737.815 47.5195C757.034 50.1181 772.104 55.9557 791.63 65.1743C793.783 66.1884 795.991 67.2256 798.232 68.2712C809.586 73.5827 819.935 77.9797 829.86 81.7354C843.492 86.8847 857.269 91.2109 870.79 94.5834C873.941 95.371 877.325 96.1672 880.727 96.6636C884.847 97.2695 888.774 97.4161 891.75 97.4795C904.478 97.7578 916.775 96.5581 929.327 93.8161C933.377 92.9251 937.645 91.7344 942.4 90.1752C952.869 86.7157 963.623 82.1651 974.035 77.76C977.495 76.2976 980.957 74.8271 984.425 73.4016C1009.95 62.8704 1031.5 56.7882 1053.64 61.3579C1093.05 69.4877 1130.27 93.1084 1161.29 129.66C1162.12 130.632 1162.94 131.612 1163.78 132.604C1173.04 143.631 1183.54 156.128 1198.35 158.361C1209.19 159.989 1219.15 155.761 1228.78 151.674C1231.69 150.443 1234.7 149.158 1237.64 148.098C1272.9 135.308 1303.16 151.346 1322.34 167.05C1355.52 194.223 1418.37 217.193 1462.11 228.609C1463.2 228.894 1464.32 228.238 1464.61 227.147C1464.89 226.056 1464.23 224.937 1463.14 224.652C1419.8 213.341 1357.6 190.636 1324.94 163.882C1311.55 152.919 1297.53 145.502 1283.23 141.926C1267.36 137.914 1251.55 138.702 1236.24 144.247C1233.21 145.35 1230.15 146.647 1227.18 147.909C1217.65 151.954 1208.65 155.777 1198.96 154.318C1185.66 152.317 1176.12 140.957 1166.9 129.975C1166.06 128.974 1165.23 127.992 1164.4 127.01C1132.79 89.7566 1094.77 65.6583 1054.46 57.3457C1031.29 52.5695 1009.08 58.7999 982.856 69.6177C979.378 71.0493 975.905 72.5258 972.435 73.9942C962.101 78.3675 951.417 82.884 941.118 86.2923C936.506 87.8019 932.359 88.9633 928.448 89.821C916.217 92.499 904.233 93.6672 891.832 93.3964C888.98 93.3302 885.208 93.1892 881.313 92.6163C878.087 92.1483 874.828 91.3758 871.774 90.6136C858.41 87.2734 844.785 82.9957 831.296 77.901C821.472 74.1891 811.219 69.8258 799.956 64.5643C797.715 63.5186 795.524 62.4857 793.371 61.4716C773.478 52.088 758.092 46.1328 738.351 43.4676C714.191 40.2058 693.067 45.0677 665.437 60.2673C654.987 66.0191 642.102 68.6047 626.052 68.19C608.405 67.7323 590.02 63.1687 574.275 55.3546C567.998 52.2467 561.495 48.5405 553.826 43.7039C544.709 37.9502 536.212 31.3232 528.583 24.001C516.938 12.8392 507.609 0.333773 500.85 -13.1533C500.242 -14.3556 499.662 -15.5678 499.085 -16.7881C497.757 -19.6307 496.465 -22.5769 495.217 -25.4247C493.167 -30.0992 491.055 -34.9377 488.65 -39.5486C486.47 -43.7265 484.26 -47.321 481.904 -50.5538C479.366 -54.0251 476.261 -57.1574 472.693 -59.8454C465.819 -65.0311 457.855 -68.1706 449.664 -68.9083C445.203 -69.3074 440.409 -69.0018 435.413 -67.9839C421.483 -65.1581 410.675 -57.8385 405.006 -47.3778C404.469 -46.3874 404.832 -45.1447 405.83 -44.6058C406.821 -44.069 408.063 -44.4318 408.602 -45.4304C413.693 -54.8071 423.501 -61.3961 436.237 -63.9771C440.847 -64.9133 445.244 -65.2006 449.306 -64.8362C456.74 -64.1655 463.97 -61.3131 470.241 -56.5807C473.495 -54.1224 476.311 -51.2829 478.619 -48.1324C480.863 -45.0681 482.961 -41.6422 485.04 -37.6469C487.382 -33.1571 489.467 -28.3862 491.491 -23.7793C492.749 -20.9028 494.054 -17.9361 495.403 -15.0444C495.989 -13.7872 496.594 -12.5421 497.212 -11.3112C504.183 2.59654 513.79 15.4702 525.766 26.962C533.591 34.4658 542.303 41.2705 551.653 47.1634C559.448 52.085 566.067 55.8475 572.473 59.024C580.124 62.8298 588.398 65.8848 596.898 68.1034L596.9 68.0952Z" fill="white"/>
<path d="M598.884 59.4906C607.661 61.7813 616.643 63.1864 625.598 63.6278C642.389 64.4706 655.909 62.0161 666.916 56.1313C692.255 42.5775 713.976 37.5237 737.337 39.7507C759.011 41.8073 776.995 48.2056 793.21 54.8204C795.45 55.7354 797.72 56.6671 800.018 57.6235C809.411 61.5188 820.551 66.0524 831.938 70.1723C846.473 75.4268 859.791 79.5115 872.673 82.6651C875.577 83.3707 879.012 84.1715 882.508 84.7362C885.762 85.2637 889.242 85.6242 893.46 85.8902C906.571 86.7031 918.981 86.0026 931.393 83.7632C935.538 83.01 939.857 81.9545 944.603 80.5319C955.62 77.2066 966.873 72.5428 977.747 68.0322C980.711 66.8056 983.677 65.5708 986.642 64.3707C1011.06 54.4546 1033.08 46.7753 1055.4 53.4081C1100.31 66.7482 1137.58 90.9898 1166.17 125.463C1166.97 126.428 1167.78 127.415 1168.6 128.401C1178.1 139.969 1188.87 153.085 1204.28 155.263C1215.46 156.844 1225.75 152.239 1235.69 147.782C1238.72 146.426 1241.87 145.019 1244.93 143.837C1280.81 129.955 1312.68 146.118 1333.1 162.117C1370.63 191.507 1437.73 211.14 1464.83 218.214C1465.93 218.501 1467.06 217.839 1467.35 216.74C1467.63 215.641 1466.97 214.511 1465.87 214.224C1439.02 207.216 1372.57 187.794 1335.65 158.86C1305.15 134.968 1273.27 128.438 1243.44 139.978C1240.27 141.194 1237.08 142.623 1234 144.009C1224.16 148.424 1214.86 152.59 1204.85 151.176C1191.04 149.217 1181.25 137.303 1171.78 125.78C1170.97 124.784 1170.15 123.798 1169.35 122.822C1140.23 87.7067 1102.28 63.0275 1056.57 49.4444C1033 42.4496 1009.31 50.7016 985.084 60.5462C982.108 61.7523 979.134 62.9849 976.168 64.2197C965.382 68.6924 954.235 73.3145 943.417 76.5785C938.823 77.9537 934.651 78.9781 930.662 79.7022C918.577 81.8879 906.496 82.5612 893.717 81.7741C889.636 81.5177 886.282 81.1729 883.171 80.6652C879.817 80.1203 876.48 79.345 873.658 78.6607C860.922 75.5454 847.732 71.5028 833.342 66.2947C822.034 62.2042 810.951 57.6854 801.597 53.809C799.29 52.8504 797.012 51.9166 794.764 50.9994C778.257 44.2734 759.931 37.7511 737.722 35.6422C713.503 33.339 691.066 38.5363 664.959 52.4986C654.63 58.0209 641.819 60.3215 625.794 59.5132C608.128 58.6247 590.363 53.9185 574.402 45.9001C567.988 42.6867 561.386 38.8244 554.216 34.1092C545.218 28.1343 536.896 21.3356 529.509 13.8854C518.229 2.52318 509.219 -10.1687 502.712 -23.8247C502.133 -25.0369 501.574 -26.2611 501.031 -27.4811C499.841 -30.1487 498.689 -32.9016 497.568 -35.5685C495.52 -40.4512 493.411 -45.4979 490.96 -50.3031C488.834 -54.4845 486.658 -58.0787 484.318 -61.3072C481.791 -64.7845 478.686 -67.8821 475.088 -70.5256C468.331 -75.4896 460.361 -78.5088 452.048 -79.2436C447.517 -79.6435 442.746 -79.358 437.885 -78.3918C424.148 -75.6722 413.43 -68.3638 407.701 -57.8059C407.162 -56.8073 407.531 -55.5544 408.527 -55.0073C409.523 -54.4603 410.778 -54.8371 411.325 -55.8336C416.454 -65.2875 426.172 -71.8653 438.68 -74.3404C443.165 -75.2309 447.537 -75.4899 451.679 -75.1308C459.244 -74.4608 466.487 -71.7267 472.637 -67.1996C475.892 -64.8107 478.7 -62.0081 480.97 -58.8762C483.184 -55.8287 485.249 -52.4112 487.271 -48.4308C489.646 -43.7672 491.729 -38.7882 493.751 -33.9731C494.876 -31.2878 496.038 -28.5062 497.247 -25.8078C497.805 -24.5489 498.382 -23.2938 498.971 -22.053C505.671 -7.97254 514.957 5.09573 526.566 16.796C534.155 24.4382 542.682 31.4206 551.925 37.5552C559.235 42.3678 565.973 46.309 572.533 49.5954C580.907 53.7985 589.769 57.129 598.855 59.5005L598.884 59.4906Z" fill="white"/>
<path d="M601.025 50.9181C609.021 53.0049 617.15 54.3787 625.236 54.9846C641.988 56.2433 655.456 54.0883 666.415 48.4173C690.401 35.9191 712.794 30.6926 736.878 31.9781C754.925 32.9399 772.792 36.7859 794.792 44.4584C797.113 45.2641 799.451 46.1005 801.818 46.9617C804.486 47.9363 807.176 48.9253 809.874 49.9165C817.747 52.8062 825.89 55.7925 834.025 58.6114C849.603 63.9991 862.476 67.8547 874.576 70.7431C878.359 71.6434 881.448 72.3019 884.298 72.8109C887.672 73.4131 891.233 73.8989 895.182 74.2948C908.644 75.6604 921.166 75.4671 933.464 73.694C937.693 73.0845 942.056 72.1621 946.811 70.8723C958.291 67.7375 969.926 63.0083 981.164 58.4362C983.732 57.3932 986.292 56.3481 988.856 55.3214C1012.14 46.0141 1034.9 38.2566 1057.29 45.4658C1104.24 60.5903 1142.51 86.0852 1171.06 121.244C1171.84 122.213 1172.64 123.195 1173.43 124.185C1183.18 136.294 1194.22 150.02 1210.2 152.148C1221.78 153.684 1232.42 148.677 1242.7 143.838C1245.83 142.366 1249.06 140.844 1252.22 139.564C1281.51 127.641 1312.34 133.566 1343.86 157.169C1369.19 176.138 1409.66 192.708 1467.56 207.821C1468.68 208.112 1469.82 207.444 1470.11 206.329C1470.4 205.213 1469.73 204.074 1468.62 203.782C1411.25 188.81 1371.26 172.467 1346.37 153.823C1313.6 129.277 1281.4 123.179 1250.67 135.689C1247.4 137.01 1244.12 138.562 1240.94 140.056C1230.75 144.849 1221.13 149.381 1210.76 148.007C1196.43 146.101 1186.4 133.63 1176.69 121.557C1175.89 120.565 1175.11 119.577 1174.32 118.606C1145.26 82.8092 1106.32 56.8625 1058.59 41.4911C1034.89 33.8541 1011.35 41.8424 987.329 51.4441C984.757 52.4687 982.186 53.5198 979.61 54.5606C968.479 59.091 956.969 63.7746 945.726 66.8322C941.139 68.0789 936.942 68.9662 932.885 69.5509C920.931 71.2665 908.733 71.4569 895.617 70.1296C891.769 69.7429 888.319 69.2685 885.043 68.6918C882.274 68.204 879.258 67.5646 875.559 66.6774C863.608 63.8191 850.846 60.0014 835.405 54.658C827.3 51.8557 819.181 48.8758 811.325 45.9904C808.618 44.9971 805.929 44.008 803.261 43.0335C800.878 42.168 798.523 41.3273 796.188 40.5092C773.796 32.7082 755.582 28.7892 737.123 27.8068C712.266 26.4848 689.192 31.8552 664.521 44.7138C654.275 50.0146 641.533 52.02 625.575 50.8205C608.157 49.5181 590.515 44.5397 574.559 36.4357C567.871 33.0378 561.349 29.1355 554.646 24.4986C545.831 18.3888 537.704 11.4065 530.474 3.7537C519.558 -7.80066 510.858 -20.6812 504.616 -34.5201C504.066 -35.7423 503.533 -36.9683 503.011 -38.2003C501.963 -40.6827 500.935 -43.2384 499.946 -45.7141C497.908 -50.8028 495.797 -56.0761 493.318 -61.0714C491.237 -65.2585 489.098 -68.8605 486.78 -72.0744C484.269 -75.5475 481.16 -78.6288 477.531 -81.2196C470.892 -85.9701 462.923 -88.8587 454.477 -89.5847C449.866 -89.9792 445.129 -89.72 440.394 -88.8075C426.858 -86.1919 416.221 -78.8889 410.441 -68.2396C409.89 -67.2269 410.264 -65.9637 411.277 -65.4124C412.29 -64.8611 413.553 -65.2358 414.104 -66.2486C419.279 -75.7775 428.896 -82.338 441.185 -84.7052C445.534 -85.544 449.884 -85.7828 454.12 -85.4166C461.825 -84.7534 469.078 -82.1212 475.11 -77.8076C478.372 -75.4778 481.158 -72.7243 483.408 -69.6152C485.593 -66.5924 487.617 -63.1855 489.586 -59.2017C491.992 -54.356 494.071 -49.1607 496.084 -44.1477C497.085 -41.6515 498.118 -39.0774 499.182 -36.556C499.72 -35.285 500.262 -34.0304 500.831 -32.7775C507.266 -18.5141 516.223 -5.25324 527.458 6.64524C534.886 14.5062 543.241 21.6787 552.291 27.9542C559.157 32.703 565.829 36.6966 572.687 40.1738C581.732 44.7695 591.302 48.389 601.064 50.9369L601.025 50.9181Z" fill="white"/>
<path d="M603.216 42.4278C610.349 44.2894 617.583 45.5947 624.88 46.3252C641.643 48.0045 655.065 46.1592 665.918 40.6953C706.397 20.283 748.86 18.9294 803.603 36.2957C810.623 38.5193 817.797 40.9221 824.739 43.247C860.599 55.2589 897.674 67.6833 935.52 63.6206C951.985 61.8475 968.438 55.2883 984.339 48.9417C1010.1 38.664 1034.44 28.9451 1059.17 37.5295C1108.22 54.5412 1147.51 81.2915 1175.94 117.029C1176.71 117.996 1177.48 118.979 1178.26 119.965C1188.24 132.622 1199.55 146.966 1216.11 149.029C1228.08 150.526 1239.07 145.115 1249.7 139.89C1252.92 138.304 1256.25 136.667 1259.51 135.282C1289.22 122.627 1321.21 128.325 1354.61 152.216C1387.64 175.847 1435.4 188.312 1470.26 197.411C1471.39 197.704 1472.53 197.031 1472.83 195.907C1473.12 194.783 1472.45 193.633 1471.32 193.34C1436.77 184.322 1389.45 171.971 1357.05 148.792C1322.38 123.985 1289.01 118.136 1257.85 131.414C1254.48 132.849 1251.11 134.508 1247.83 136.115C1237.3 141.296 1227.34 146.194 1216.63 144.859C1201.79 143.012 1191.5 129.97 1181.56 117.364C1180.77 116.368 1180 115.393 1179.22 114.415C1150.29 78.0364 1110.36 50.8304 1060.55 33.5496C1034.33 24.4559 1008.13 34.9148 982.785 45.0315C967.146 51.2726 950.972 57.7306 935.074 59.434C898.14 63.3959 861.503 51.1291 826.076 39.2564C819.126 36.9294 811.936 34.5224 804.877 32.28C749.003 14.5489 705.56 15.9945 664.02 36.9387C653.906 42.0388 641.234 43.7408 625.292 42.1455C574.306 37.0393 526.549 1.93758 506.454 -45.1897C504.963 -48.6747 503.582 -52.3138 502.231 -55.8321C498.708 -65.0569 495.067 -74.5993 489.162 -82.8282C480.82 -94.4499 465.482 -101.027 449.134 -99.9977C433.281 -99.0042 419.817 -91.0302 413.111 -78.6659C412.558 -77.645 412.936 -76.3634 413.957 -75.81C414.978 -75.2566 416.259 -75.6352 416.813 -76.6561C422.828 -87.7397 435.009 -94.8921 449.403 -95.7967C464.318 -96.7306 478.247 -90.8251 485.746 -80.3714C491.332 -72.5826 494.877 -63.3085 498.299 -54.3276C499.658 -50.7725 501.055 -47.0946 502.577 -43.5317C512.794 -19.5673 529.789 1.61791 551.724 17.7353C567.486 29.3193 584.99 37.6884 603.212 42.4441L603.216 42.4278Z" fill="white"/>
</g>
<defs>
<clipPath id="clip0_231_20">
<rect width="1491.85" height="771.543" fill="white" transform="matrix(-0.967587 -0.252536 -0.252536 0.967587 1486.26 144.458)"/>
</clipPath>
</defs>
</svg>
