<svg width="71" height="71" viewBox="0 0 71 71" fill="none" xmlns="http://www.w3.org/2000/svg">
<rect x="0.996094" y="0.5" width="69.5062" height="69.5062" rx="34.7531" stroke="white"/>
<path d="M25.8566 28.8531C25.285 28.5375 24.6017 28.3505 23.9903 28.1141L19.8778 26.5276C19.4816 26.3749 17.658 25.9809 18.2094 25.21C18.4286 24.9035 19.04 24.8106 19.3728 24.687L29.0638 21.0867C30.7266 20.4602 32.3913 19.8316 34.0632 19.2301C34.5882 19.0413 35.2194 18.7303 35.7572 18.6377C36.049 18.6496 38.3305 19.5773 38.8097 19.7583L51.2405 24.4693C51.6665 24.6297 52.1119 24.7741 52.5269 24.9585C53.0328 25.1832 52.8655 25.8259 52.8639 26.2771L52.8622 28.0751C53.3079 28.5384 53.9209 29.7405 54.1046 30.3843C54.4769 31.6891 50.6362 31.6452 50.4804 30.7596C50.3648 30.1019 51.3322 28.636 51.7777 28.0306V26.3986C49.6666 27.0725 47.6459 28.0242 45.5413 28.727L44.8341 30.9778C45.7672 32.5596 46.0158 33.8209 46.3046 35.554L49.7452 35.553C50.1907 35.5531 50.9352 35.5079 51.3442 35.5743C51.9866 35.6784 51.967 36.5724 51.3398 36.6585C50.9156 36.7167 50.2368 36.664 49.7882 36.6636L46.3046 36.6645C46.1786 39.125 45.2427 41.1007 43.737 42.9762C44.4268 43.726 45.4422 44.6381 46.1948 45.3463C46.517 45.6496 46.905 45.9542 47.18 46.2963C47.5521 46.7591 46.9274 47.4569 46.4464 47.1424C46.1296 46.9352 45.6665 46.3817 45.3787 46.0938C44.6212 45.3362 43.8095 44.5122 42.9947 43.8218C42.5463 44.081 42.1554 44.4715 41.7272 44.7681C40.5219 45.6029 39.1927 46.1312 37.7671 46.4482C37.2933 46.5409 36.7793 46.5471 36.3181 46.678L36.3185 49.6366C36.3191 50.0735 36.3645 50.5524 36.315 50.9844C36.2669 51.4039 35.6889 51.6505 35.3819 51.3272C35.0425 50.9696 35.186 49.9677 35.1859 49.5134L35.1866 46.678C33.0081 46.1903 32.1455 46.3069 29.9933 44.9083C29.4949 44.5844 29.0639 44.1536 28.5635 43.8408L28.5327 43.8218C28.1623 44.0451 27.8576 44.3829 27.5487 44.6835L25.8518 46.3588C25.5607 46.646 25.0807 47.3213 24.6138 47.2587C24.1597 47.1978 24.0446 46.656 24.3019 46.3343C24.509 46.0756 24.7913 45.857 25.0252 45.6191C25.7886 44.8425 26.9181 43.6402 27.763 42.9762C27.4941 42.5469 27.1456 42.1671 26.8683 41.7395C25.9054 40.2549 25.2469 38.4484 25.2461 36.6645L20.7522 36.6672C20.4396 36.6683 20.0499 36.7314 19.793 36.5098C19.5765 36.323 19.5825 35.9296 19.7796 35.7302C20.1151 35.391 21.3896 35.5524 21.8407 35.5525L25.2461 35.554C25.3063 34.1707 25.8243 31.9516 26.7251 30.9778C26.32 30.3249 26.1635 29.5522 25.8566 28.8531ZM35.7572 19.7914C34.6911 20.1544 33.6369 20.5616 32.5803 20.9516L25.7319 23.5003C24.139 24.0895 21.7452 24.7888 20.2735 25.5391C20.9217 25.7381 21.5478 25.9897 22.1791 26.2358L24.4979 27.1397C25.1343 27.3865 26.1792 27.7035 26.7251 28.0306C28.9304 26.7742 32.8815 24.8669 35.1866 24.3995C35.1851 23.9203 34.9907 22.7675 35.411 22.4495C36.5869 21.8945 36.3213 23.8119 36.3181 24.3995C38.8885 25.0209 41.2988 26.2501 43.6464 27.4457C43.9596 27.6052 44.2735 27.7829 44.6095 27.89C45.2498 27.7223 45.8509 27.4732 46.4673 27.2353L48.3828 26.5007C49.2215 26.1707 50.0776 25.888 50.909 25.5391C49.6591 25.0458 48.3977 24.5884 47.1436 24.1076L36.9258 20.2101C36.5764 20.0761 36.1169 19.8402 35.7572 19.7914ZM36.3181 25.5391C36.3193 26.1053 36.3813 27.3336 36.2682 27.8168C36.1397 28.3656 35.2613 28.3315 35.1875 27.7796C35.1136 27.2268 35.1869 26.1386 35.1866 25.5391C32.8973 26.1414 30.0561 27.4912 27.9446 28.6446C29.7184 29.1902 31.6556 30.0471 33.4004 30.7166C34.1682 31.0004 34.9254 31.3535 35.7017 31.6072C36.3029 31.4302 36.8967 31.1646 37.4826 30.941L42.5203 28.975C42.842 28.8497 43.1419 28.7041 43.4845 28.6446C43.0058 28.3033 42.4279 28.0683 41.9 27.8093C40.6202 27.1814 37.725 25.7362 36.3181 25.5391ZM52.3617 29.151C52.0891 29.4552 51.8711 29.8804 51.7777 30.278C51.9785 30.3284 52.1534 30.3521 52.3617 30.349C52.5302 30.3309 52.6957 30.31 52.8622 30.278C52.7311 29.8815 52.5136 29.5356 52.3617 29.151ZM27.3024 29.5608C27.4741 30.1911 28.1515 31.8097 28.4279 32.3637C28.943 32.6432 29.5533 32.8071 30.108 32.996L32.139 33.6784C33.8336 34.2377 34.3766 34.5013 35.7572 35.701C38.2517 33.6466 40.2056 33.3635 43.1065 32.7037C43.2022 32.387 43.3044 32.0725 43.4066 31.7577C43.6418 31.024 43.8705 30.2829 44.1391 29.5608C43.5336 29.7094 42.9534 29.9776 42.3746 30.2072L37.4737 32.1386C37.1197 32.2793 36.111 32.7438 35.8042 32.7692C35.5309 32.7918 27.9354 29.8105 27.3024 29.5608ZM27.2018 32.3637C26.1766 34.4963 26.1022 37.0725 26.8801 39.2885C27.3007 40.487 27.8356 41.1448 28.5327 42.1709C28.6742 42.0132 28.8183 41.8629 28.9723 41.7175C29.2389 41.451 29.4958 41.1574 29.8155 40.9538C28.1142 38.6027 27.7532 36.5958 28.5327 33.6932C28.234 33.534 27.9103 33.4327 27.6108 33.2785C27.4596 33.0103 27.3659 32.5905 27.2018 32.3637ZM44.3236 32.3637C43.9717 33.341 44.0772 33.6346 42.9947 33.8383C43.706 36.4387 43.3276 38.8356 41.6859 40.9538C41.9651 41.2359 42.247 41.535 42.5758 41.7597C42.7071 41.9134 42.8372 42.0434 42.9947 42.1709C44.7054 39.7341 45.5631 37.6983 45.016 34.576C44.9195 34.0254 44.6101 32.8196 44.3236 32.3637ZM29.6541 34.0055C29.076 35.7374 29.0927 37.4575 29.9228 39.1148C32.2814 43.8242 38.7328 43.9106 41.3952 39.4462C42.3109 37.7777 42.4773 35.9542 41.9239 34.1361C40.4229 34.1724 38.1699 35.2709 36.9482 36.1447C36.6293 36.3729 36.1368 37.053 35.6991 36.9508C35.3326 36.8651 34.0195 35.6612 33.4457 35.3561C32.4218 34.8118 30.7782 34.4056 29.6541 34.0055ZM30.5187 41.7597C30.109 42.1692 29.705 42.6011 29.2638 42.9762C30.9466 44.2223 31.9601 45.0169 34.1901 45.407C34.5217 45.4524 34.8558 45.4832 35.1866 45.5304V43.8218C33.3767 43.7018 31.8754 42.933 30.5187 41.7597ZM40.9253 41.7597C39.3797 42.9912 38.4378 43.6219 36.3181 43.8218V45.5304C36.6845 45.4817 37.0626 45.4009 37.4331 45.407C38.9293 44.9498 39.8179 44.7516 41.191 43.7899C41.5533 43.5362 41.8778 43.2339 42.2367 42.9762C41.7818 42.6395 41.3053 42.0092 40.9253 41.7597Z" fill="white"/>
</svg>
