<svg width="97" height="97" viewBox="0 0 97 97" fill="none" xmlns="http://www.w3.org/2000/svg">
<path d="M49.2109 28.7238C47.3641 28.7962 45.4912 27.3786 45.9788 25.3407C46.112 24.7844 46.5075 24.3396 46.7262 23.8194C47.2456 22.5849 47.1779 21.5448 48.7699 21.2501C50.489 21.1585 50.6113 22.6758 51.0985 23.8598C51.3323 24.4278 51.7476 24.8799 51.8602 25.5026C52.1611 27.1636 50.7192 28.4586 49.2109 28.7238ZM48.9008 23.432C48.579 24.2804 48.1025 25.0625 47.7874 25.9024C48.0139 26.4429 48.3056 26.7826 48.9008 26.8196C49.5265 26.7185 49.7319 26.4294 49.991 25.9024C49.5901 25.0973 49.2726 24.1545 48.9008 23.432Z" fill="#111827"/>
<path d="M36.4368 34.6815L36.4299 31.9887C36.4274 30.9188 36.1132 29.6232 37.5631 29.5461L58.4444 29.5452C61.2022 29.5422 61.6985 28.8514 61.6932 31.8556L61.6866 34.6815C64.9436 36.2456 65.1766 36.8866 65.1747 40.6505L65.1724 43.7183C68.0258 44.8117 72.1055 46.5575 74.855 47.9834C75.5535 48.3456 75.8238 48.7195 75.5315 49.4951C74.591 51.9923 73.0455 54.8448 71.9325 57.3508L69.3769 63.0966C68.8113 64.3896 68.2968 66.715 66.9006 67.0436C66.1376 66.8636 65.5187 66.2862 64.8446 65.9073C61.5074 64.0313 57.7643 64.1741 54.3801 65.9408C50.8843 67.8891 50.5749 70.6909 49.436 71.4915C48.1791 72.3749 47.447 70.1138 46.9627 69.366C43.7814 64.4545 37.8227 63.2548 32.797 66.0017C32.3268 66.2586 31.0952 67.308 30.5579 67.131C29.8252 66.8896 28.4579 63.3302 28.1109 62.5454L22.8791 50.9427C21.5931 48.0287 21.5047 48.4032 24.2163 47.1954L27.4397 45.7468C29.2038 44.951 30.9421 44.0448 32.7439 43.3416L32.7407 40.5225C32.7389 37.422 33.1366 35.6188 36.4368 34.6815ZM38.996 31.5009H38.3479C38.347 32.5582 38.3167 33.6251 38.3479 34.6815L42.9317 34.6779C43.6787 34.6777 44.4896 34.6119 45.2291 34.702C45.9936 34.7951 46.3603 35.7557 45.7702 36.3054C44.954 37.0654 37.8304 36.1345 36.1408 36.8031C34.0482 37.6307 34.6579 40.6722 34.6492 42.4332C38.9654 40.6345 41.7076 39.8324 46.4461 41.769C47.2418 42.0941 47.9813 42.5325 48.7698 42.868L48.8362 42.8428C50.7568 42.1056 51.667 41.3906 53.9672 41.0003C58.1491 40.3129 59.8428 41.6781 63.2867 42.868C63.2918 40.4651 64.0775 36.5648 60.4728 36.5742L57.8059 36.5902C57.2458 36.5939 56.1797 36.7579 55.7433 36.3007C55.1861 35.7166 55.522 34.7885 56.3284 34.6798C56.7162 34.6273 57.1565 34.6745 57.5486 34.6787L59.7644 34.6815V31.5009H38.996ZM40.4639 42.5852C37.0791 42.9852 33.7755 44.9981 30.7205 46.4005C28.583 47.3818 26.3185 48.2501 24.2599 49.3902L24.5544 50.0303C26.3948 49.484 28.2437 48.9467 30.0736 48.3665C35.8382 46.5635 41.8418 44.6981 47.9439 44.7603C45.9039 43.2336 42.9996 42.3822 40.4639 42.5852ZM55.1733 42.868C53.1193 43.1102 51.2198 43.6724 49.4147 44.6966C55.2775 45.1953 59.1321 45.9922 64.8821 47.6714L69.0596 48.857C70.3935 49.2615 71.726 49.6948 73.0793 50.0303C73.1999 49.8159 73.3142 49.5942 73.4517 49.3902C72.5223 48.9557 71.5658 48.5762 70.6239 48.17L62.4566 44.5932C60.1129 43.5686 57.7921 42.6267 55.1733 42.868ZM47.0086 46.6339C42.1388 47.0121 38.5266 47.8973 33.7992 49.292L25.422 51.8298C25.8656 53.178 26.6118 54.5078 27.1971 55.8053L31.2048 64.6931C36.9433 61.222 43.6817 62.1524 47.9439 67.3909C47.9877 63.9279 47.9444 60.4584 47.945 56.9946L47.9378 54.4132C47.932 53.8693 47.8901 53.2993 47.9467 52.7584C48.0618 51.6601 49.4993 51.5747 49.8379 52.5856V67.3909C53.707 62.1315 61.2509 61.2889 66.6029 64.6931C67.0384 63.8421 67.3649 62.9311 67.7425 62.0529C69.2068 58.6475 70.9703 55.3173 72.2142 51.8298C70.1077 51.0702 67.8855 50.55 65.7327 49.9293C58.903 47.9599 54.1027 46.582 47.0086 46.6339Z" fill="#111827"/>
<path d="M53.1138 36.5884C52.2246 36.6016 49.1063 36.6864 48.47 36.5098C47.4146 36.2168 47.6495 35.0881 48.4828 34.6822C49.0995 34.6514 52.7651 34.6254 53.1614 34.7443C54.1327 35.0352 53.9084 36.249 53.1138 36.5884Z" fill="#111827"/>
<path d="M8.35986 67.6844C8.486 67.1153 8.68635 66.8396 9.29019 66.7475C15.3151 66.241 16.4078 69.7682 20.3315 71.5215C22.7905 72.6204 25.8778 72.3979 28.175 71.0021C29.3567 70.2841 30.0999 69.5367 31.4574 69.0197C34.8525 67.7264 38.741 67.9957 41.7593 70.0842C42.8305 70.8253 43.7046 71.7668 44.9193 72.2986C48.6974 73.9531 52.32 73.049 55.3781 70.603C58.7819 67.8804 63.5957 67.4296 67.4072 69.6636C69.9747 71.1684 70.5566 72.2076 74.0018 72.1335C78.7343 72.0318 79.8563 68.9379 83.7444 67.4817C84.6461 67.1439 87.7017 66.4167 88.5703 66.8487C89.5992 67.3602 89.0785 68.3867 88.1237 68.6259C82.0638 69.0315 82.6485 71.14 78.2124 73.1442C75.1578 74.5242 71.3775 74.357 68.4619 72.6955C67.2876 72.0263 66.3309 71.1543 65.0393 70.669C62.4093 69.6809 59.3162 70.1105 57.0323 71.7373C55.7091 72.6799 55.4016 73.2824 53.7878 74.0003C50.476 75.473 45.8826 75.3935 42.8044 73.3663C41.4554 72.4777 40.4426 71.3134 38.8905 70.7196C35.3218 69.3545 32.5737 70.3033 29.6905 72.3284C26.2338 74.7563 21.2384 74.7619 17.7755 72.3411C15.304 70.6134 14.2999 69.2053 11.1432 68.7338C9.85163 68.5409 8.74544 69.027 8.35986 67.6844Z" fill="#111827"/>
</svg>
