<svg width="582" height="345" viewBox="0 0 582 345" fill="none" xmlns="http://www.w3.org/2000/svg">
<path d="M507.078 288.422L539.449 232.354L604.192 232.354L636.563 288.422L604.192 344.491L539.449 344.491L507.078 288.422Z" stroke="#3391C4" stroke-width="0.757178"/>
<path d="M304.543 288.422L336.914 232.354L401.656 232.354L434.028 288.422L401.656 344.491L336.914 344.491L304.543 288.422Z" stroke="#3391C4" stroke-width="0.757178"/>
<path d="M102.008 288.422L134.38 232.354L199.122 232.354L231.494 288.422L199.122 344.491L134.38 344.491L102.008 288.422Z" stroke="#3391C4" stroke-width="0.757178"/>
<path d="M507.078 172.409L539.449 116.34L604.192 116.34L636.563 172.409L604.192 228.478L539.449 228.478L507.078 172.409Z" stroke="#3391C4" stroke-width="0.757178"/>
<path d="M304.543 172.409L336.914 116.34L401.656 116.34L434.028 172.409L401.656 228.478L336.914 228.478L304.543 172.409Z" stroke="#3391C4" stroke-width="0.757178"/>
<path d="M102.008 172.409L134.38 116.34L199.122 116.34L231.494 172.409L199.122 228.478L134.38 228.478L102.008 172.409Z" stroke="#3391C4" stroke-width="0.757178"/>
<path d="M405.771 230.236L438.142 174.168L502.885 174.168L535.256 230.236L502.885 286.305L438.142 286.305L405.771 230.236Z" stroke="#3391C4" stroke-width="0.757178"/>
<path d="M203.236 230.236L235.607 174.168L300.35 174.168L332.721 230.236L300.35 286.305L235.607 286.305L203.236 230.236Z" stroke="#3391C4" stroke-width="0.757178"/>
<path d="M0.70168 230.236L33.073 174.168L97.8156 174.168L130.187 230.236L97.8156 286.305L33.073 286.305L0.70168 230.236Z" stroke="#3391C4" stroke-width="0.757178"/>
<path d="M405.771 113.788L438.142 57.7197L502.885 57.7197L535.256 113.788L502.885 169.857L438.142 169.857L405.771 113.788Z" stroke="#3391C4" stroke-width="0.757178"/>
<path d="M203.236 113.788L235.607 57.7197L300.35 57.7197L332.721 113.788L300.35 169.857L235.607 169.857L203.236 113.788Z" stroke="#3391C4" stroke-width="0.757178"/>
<path d="M0.70168 113.788L33.073 57.7197L97.8156 57.7197L130.187 113.788L97.8156 169.857L33.073 169.857L0.70168 113.788Z" stroke="#3391C4" stroke-width="0.757178"/>
<path d="M507.078 56.5527L539.449 0.483939L604.192 0.483945L636.563 56.5527L604.192 112.621L539.449 112.621L507.078 56.5527Z" stroke="#3391C4" stroke-width="0.757178"/>
<path d="M304.543 56.5527L336.914 0.483939L401.656 0.483945L434.028 56.5527L401.656 112.621L336.914 112.621L304.543 56.5527Z" stroke="#3391C4" stroke-width="0.757178"/>
<path d="M102.008 56.5527L134.38 0.483939L199.122 0.483945L231.494 56.5527L199.122 112.621L134.38 112.621L102.008 56.5527Z" stroke="#3391C4" stroke-width="0.757178"/>
</svg>
