<svg width="100" height="100" viewBox="0 0 100 100" fill="none" xmlns="http://www.w3.org/2000/svg">
<rect width="100" height="100" rx="12" fill="#2798D5"/>
<path d="M59.8288 36.5987C59.8289 35.2849 59.7194 27.8767 59.9156 27.2966C60.0189 26.9906 60.2469 26.8471 60.4829 26.722L71.0119 26.717C73.9518 26.7086 73.3241 27.5236 73.3244 30.8083L73.3224 36.5987L76.6742 36.5942C79.8187 36.5908 79.2072 36.9572 79.2059 40.4385L79.2028 46.5461C80.6636 46.607 86.9868 46.2784 87.9986 46.6844C89.1096 47.13 87.987 49.3477 87.6946 50.0951L86.3654 53.4692C84.4091 58.5531 82.2884 63.5907 80.4982 68.765C82.0789 68.228 86.2039 67.023 87.3629 68.006C87.7827 68.3622 87.7784 69.1341 87.4726 69.5927C87.0907 70.1651 86.263 70.0402 85.7314 70.0382C82.8504 70.0264 81.7296 70.739 79.0422 71.9582C70.2993 75.9244 67.9933 69.6726 60.5699 70.1776C58.291 70.3326 57.1374 71.1908 55.1043 72.0976C51.8477 73.5499 48.0734 73.6075 44.8167 72.1021C40.6421 70.1723 37.5881 69.007 32.9986 71.1922C30.5734 72.3466 29.7069 72.8179 26.9637 73.1528C21.6295 73.1816 21.0142 71.3974 16.7574 70.168C15.5386 69.8159 14.4661 70.188 13.3776 69.9669C12.4468 69.7778 12.0022 68.3958 12.9895 67.8139C13.3295 67.6135 15.4856 67.7068 15.9717 67.7479C17.3102 67.8607 18.5509 68.411 19.8005 68.9625C19.5332 68.1368 19.1753 67.3385 18.8512 66.5437L13.3426 52.5288C12.9849 51.6121 11.5195 48.2318 11.5205 47.4842C11.5223 46.1236 13.0373 46.3895 13.7742 46.3926L16.3154 46.4008L16.3145 38.0758C16.3144 36.8169 16.2233 35.2064 16.3472 33.9881C16.4934 32.5501 17.6631 32.6863 18.2091 33.6625C18.2741 35.039 18.2109 36.4689 18.2106 37.8501L18.2091 46.4008H22.7825L22.7754 42.4761C22.7685 38.3787 23.1315 39.1469 26.0706 39.1467L38.0469 39.1463C42.2747 39.1472 41.3583 38.2381 44.3261 41.3294L47.3043 44.464C47.9326 45.1356 48.5847 45.7933 49.1491 46.5461C50.6453 46.4746 52.1639 46.5436 53.6628 46.5461L53.6615 40.5981C53.6606 36.9702 53.0303 36.5951 56.2381 36.5951L59.8288 36.5987ZM61.6894 29.0402V36.5987H71.4219V29.0402H61.6894ZM55.5443 38.8834V46.5461H65.4836V38.8834H55.5443ZM67.3291 38.8834V46.5461H77.3397C77.3692 43.9938 77.3418 41.4361 77.3397 38.8834H67.3291ZM24.7248 41.4919V46.4008H29.4278C29.4925 44.7759 29.4228 43.1204 29.4278 41.4919H24.7248ZM31.3026 41.4919V46.4008H36.0289V41.4919H31.3026ZM37.8999 41.4919V46.5461H46.2912C45.2041 44.9996 42.8674 42.7724 41.5552 41.4919H37.8999ZM13.9861 48.7892C14.7795 50.9616 15.6546 53.0826 16.4942 55.2282L22.4597 70.1462C27.4372 72.0372 29.4318 69.9471 33.5622 68.52C36.1652 67.6207 39.6847 67.5917 42.2809 68.4694C43.4501 68.8646 44.5483 69.5001 45.6899 69.9898C50.8063 72.1841 52.9934 70.1115 57.3166 68.5527C61.7646 66.9492 64.6823 67.8764 68.7114 69.778C72.3178 71.4803 74.4062 71.0989 77.8972 70.0304C78.1802 69.3167 78.4827 68.6051 78.7365 67.8755C79.6001 65.7543 80.3783 63.5728 81.1941 61.4235L83.6165 55.1679C84.4258 53.0376 85.3501 50.9498 86.0979 48.7892H13.9861Z" fill="white"/>
<path d="M50.7432 55.3422C51.0147 55.3254 51.2936 55.3416 51.5661 55.3422C51.9786 55.2844 52.448 55.3377 52.8682 55.338L55.8884 55.3422V57.6167H55.1122H50.7432V55.3422Z" fill="white"/>
<path d="M27.3135 55.3423H28.2438H32.1491V57.6168H31.3778H27.3135V55.3423Z" fill="white"/>
<path d="M34.8965 55.3423H38.6987H40.1174V57.6168H36.2526H34.8965V55.3423Z" fill="white"/>
<path d="M42.9541 57.6168V55.3423H47.8259V57.6168H42.9541Z" fill="white"/>
<path d="M58.5732 57.6168V55.3423H63.5818V57.6168H58.5732Z" fill="white"/>
</svg>
