<svg width="100" height="100" viewBox="0 0 100 100" fill="none" xmlns="http://www.w3.org/2000/svg">
<rect width="100" height="100" rx="12" fill="#2798D5"/>
<path d="M22.1571 29.0561C22.1573 30.4113 22.2457 39.5679 22.1072 39.9043C21.8496 40.5294 20.8407 40.4967 20.5734 39.893C20.3397 39.3649 20.4084 29.9412 20.4549 28.5539C20.49 27.5058 21.4245 27.3361 22.2279 26.9341L47.4728 14.2502C48.2577 13.8659 49.0355 13.4417 49.846 13.1154C50.763 13.0616 61.4965 18.8231 63.2114 19.6885L75.3831 25.8622C76.1073 26.2326 79.0526 27.5576 79.4508 27.9936C79.6078 28.731 79.5342 29.5018 79.5326 30.2509L79.5307 37.6606C79.5314 38.3667 79.5704 39.0822 79.5307 39.7866C79.2735 40.262 78.6241 40.7401 78.1248 40.2616C77.512 39.6747 77.8141 36.9649 77.8143 36.1395L77.8152 29.0561C77.0344 28.607 76.2092 28.2253 75.4073 27.8142L57.2932 18.6123C55.1543 17.5256 52.9775 16.4943 50.8661 15.3565L50.8686 18.185C50.8736 19.1185 51.2517 20.2507 50.3327 20.7699C48.8178 21.1466 49.1207 18.888 49.1199 18.0225L49.1227 15.3565L25.5674 27.2208C24.4671 27.7675 23.1052 28.2872 22.1571 29.0561Z" fill="white"/>
<path d="M32.8246 44.2862C31.1761 43.6822 31.2987 43.3016 31.3259 41.7128C31.3624 39.5789 31.2104 37.4348 31.3367 35.3053C31.4153 33.9813 34.2573 33.1038 35.4319 32.4936L47.2082 26.399C48.0687 25.9549 48.9328 25.4565 49.8457 25.1285C50.7135 25.0737 60.6934 30.446 62.2269 31.2331L66.2994 33.3083C67.0752 33.6989 68.1068 34.012 68.7071 34.6612L68.7073 40.5157C68.7077 41.4623 68.7756 42.4482 68.7071 43.3895C68.1941 43.8409 67.4787 44.0256 66.9288 44.4477C68.7695 45.0195 72.1377 46.9012 73.9721 47.8469C76.2542 49.0231 75.489 48.9343 78.2169 48.9348L81.9081 48.9296C82.5606 48.927 83.2222 48.8887 83.873 48.9274L83.9349 48.9315C83.3148 48.3688 81.1601 46.513 81.004 45.8C80.8106 44.9152 81.7585 44.5861 82.3805 45.046C82.9899 45.4968 85.8433 48.296 86.3291 48.8784C87.1649 49.8805 86.1954 50.6692 85.5276 51.3475C85.091 51.791 82.3333 54.7083 81.9295 54.7387C81.183 54.7949 80.6838 53.9664 81.1293 53.3391C81.6121 52.6592 83.268 51.225 83.9349 50.5555L78.21 50.5541C74.9407 50.5472 76.0612 50.4622 73.1032 52.0155C71.6548 52.7762 70.1697 53.4818 68.7071 54.2164C68.7069 54.957 68.7797 61.8341 68.6672 62.0535C68.4385 62.5 66.5997 63.2614 66.1413 63.495L55.0706 69.0576C53.6477 69.7735 52.1861 70.438 50.7821 71.1865C50.5554 71.3118 50.3128 71.4055 50.0741 71.5055C49.483 71.3742 48.838 70.9521 48.2943 70.6774L37.0031 65.036C35.3479 64.2079 33.6632 63.4131 32.0296 62.5443C30.9144 61.9513 31.3238 60.4036 31.3244 59.2329L31.3272 54.2164C30.6468 54.0666 30.0347 53.696 29.4178 53.3836L26.0216 51.6797C23.6093 50.4926 23.743 50.6777 21.0422 50.6842L16.2071 50.6859C16.6629 51.1644 18.8284 53.0571 18.9536 53.4901C19.1378 54.1275 18.339 54.8804 17.7486 54.4934C17.1366 54.0925 16.0606 52.8783 15.496 52.3161C13.6159 50.444 12.3267 50.3125 14.4342 48.2546L16.2452 46.511C16.7866 45.9848 17.8881 44.4062 18.7772 45.192C19.7358 46.0394 16.8799 48.1507 16.2071 48.9315L21.6474 48.9324C24.628 48.9365 23.8067 49.0066 26.6112 47.5529C28.6873 46.4769 30.7688 45.4003 32.8246 44.2862ZM49.8457 26.941C49.1506 27.411 48.3576 27.76 47.6124 28.1445L38.5468 32.8272C37.1111 33.5734 35.697 34.3439 34.2244 35.0184C35.046 35.5163 49.7649 42.8663 50.0741 42.9021C53.1838 41.2862 56.3443 39.7542 59.4834 38.1961L65.8097 35.0184C64.2647 34.1919 62.6848 33.4394 61.122 32.6482L51.4934 27.741C50.9471 27.4711 50.4073 27.1778 49.8457 26.941ZM33.0522 36.4411V42.4295C35.285 43.3905 37.4242 44.6148 39.6102 45.6815L45.5016 48.6182C46.7079 49.2213 47.9618 49.7676 49.1224 50.4557V44.4477C48.6111 44.2549 48.125 43.9651 47.6388 43.7148L36.567 38.2076C35.6273 37.736 33.9535 36.7578 33.0522 36.4411ZM66.9288 36.4411C65.6224 37.0301 64.3468 37.7029 63.0644 38.3425L54.6474 42.5642C53.565 43.0967 51.9516 44.0927 50.8659 44.4477C50.8659 45.0173 50.8165 50.356 50.8659 50.4557C52.3346 49.8723 53.7414 49.0699 55.1544 48.363L65.3787 43.1828C65.8865 42.9205 66.3937 42.6314 66.9288 42.4295C66.9286 41.9071 66.9747 36.5083 66.9288 36.4411ZM34.8158 45.2403C32.0883 46.5417 28.6224 48.3151 26.0293 49.8338C27.5024 50.4147 28.9093 51.1551 30.3203 51.8708L47.9477 60.5908C48.64 60.9411 49.3465 61.3857 50.0741 61.6547C53.5594 60.1275 57.4669 58.0332 60.8691 56.2858L63.4297 54.9393C63.9413 54.6765 64.4541 54.3801 65.0079 54.2164C65.7732 53.7222 66.6003 53.3288 67.4109 52.9157L71.1833 50.9903C72.0774 50.5445 73.0104 50.1402 73.8728 49.6365C72.5892 49.1839 71.3474 48.4826 70.1268 47.8782L65.0079 45.3938C61.5754 47.0657 58.1773 48.8151 54.7674 50.533L51.7322 52.0514C51.1957 52.3172 50.6392 52.6384 50.0741 52.8337C49.3448 52.5557 48.6512 52.1636 47.9558 51.811L35.8434 45.7303C35.5239 45.5674 35.1566 45.3407 34.8158 45.2403ZM33.0522 55.2513C33.0516 57.2033 33.0239 59.1603 33.0522 61.1119C33.9634 61.5014 34.8417 61.9987 35.7285 62.4428L46.7926 68.0147C47.5658 68.4102 48.3669 68.7714 49.1224 69.1983V63.243C48.513 62.7887 47.8135 62.4748 47.1339 62.1409L36.6084 56.9351C35.6789 56.4723 33.9899 55.4847 33.0522 55.2513ZM66.9288 55.2513C65.9094 55.6929 64.9196 56.2018 63.9246 56.695L50.8659 63.243L50.8685 67.5793C50.8683 67.9246 50.6736 68.953 50.85 69.1951L50.8659 69.1983C52.0753 68.694 53.2421 68.0086 54.4163 67.4228L63.2186 62.9791C64.4511 62.3603 65.6714 61.6763 66.9288 61.1119L66.9268 56.6663C66.9272 56.3089 67.1248 55.5489 66.9562 55.2571L66.9288 55.2513Z" fill="white"/>
<path d="M49.1228 83.3233C48.6044 83.1124 48.1136 82.823 47.6134 82.5717L26.981 72.191C25.0543 71.2293 23.0771 70.3397 21.1744 69.3333C20.0788 68.754 20.455 67.3002 20.458 66.2457L20.4646 61.9114C20.4651 60.8049 20.0149 58.0443 20.9906 57.4533C22.7977 57.2903 22.1597 59.8745 22.1594 61.2328L22.1571 67.8277C23.0421 68.1864 23.9172 68.7108 24.7755 69.1418L43.0095 78.3476C45.0447 79.3748 47.1094 80.3442 49.1228 81.4141L49.1181 78.3459C49.1149 77.7985 49.0514 77.1795 49.1377 76.6425C49.2757 75.7822 50.6745 75.744 50.8431 76.6231C50.9338 77.0957 50.8712 77.667 50.8707 78.1529L50.8662 81.4141C52.4711 80.4179 54.2635 79.6371 55.9559 78.7926L73.7889 69.7889C74.96 69.2031 76.6235 68.2107 77.8152 67.8277L77.818 60.8424C77.8177 60.088 77.2946 56.9565 78.9561 57.5431C79.2486 57.6463 79.4024 57.8709 79.5308 58.1393C79.5363 59.4538 79.6367 68.1976 79.4348 68.6854C79.2432 69.1481 76.8515 70.1847 76.3799 70.425L57.3089 80.0696C55.162 81.1574 52.9898 82.1884 50.8662 83.3233C50.8705 84.2514 50.9849 85.5851 50.7824 86.4676C50.2199 87.0706 49.3215 87.0721 49.1432 86.1283C49.0227 85.491 49.1183 84.0436 49.1228 83.3233Z" fill="white"/>
</svg>
