<svg width="100" height="100" viewBox="0 0 100 100" fill="none" xmlns="http://www.w3.org/2000/svg">
<rect width="100" height="100" rx="12" fill="#2798D5"/>
<path d="M44.1435 26.6589C46.1434 20.3372 50.7632 16.8766 57.1662 16.2306C62.2109 15.8446 67.2078 18.6971 69.9044 22.8817C72.4232 26.7906 72.5551 30.4787 71.6169 34.7987C80.8145 31.6715 88.7632 44.175 81.3809 51.5755C78.1896 54.7748 75.5916 54.5563 71.4863 54.5566L65.3889 54.5551C66.3847 60.9155 65.4156 66.3608 60.1994 70.7876C59.4191 71.4496 58.5295 71.9147 57.725 72.532L57.6699 72.5748L57.6656 75.7903C57.6632 79.8289 58.0458 80.1445 61.9484 80.1541C63.494 76.6939 68.4204 79.3329 66.6138 82.4249C65.5333 84.2743 62.4178 83.8999 61.9484 81.7862L61.4347 81.7886C57.1426 81.786 56.112 80.0157 56.1107 76.0285L56.1125 73.3307C54.0266 73.9856 52.8155 74.2438 50.6334 74.4483C50.6186 75.8369 50.6313 77.2264 50.6334 78.615C53.7023 79.6056 52.5819 84.2438 49.3841 83.7183C47.004 83.3274 46.4385 80.1825 48.3769 78.8991C48.6185 78.7598 48.8527 78.6879 49.1194 78.615V74.4483C47.3184 74.4857 45.4973 73.9079 43.8136 73.3307L43.8187 76.2107C43.8228 80.7833 42.5558 81.8072 38.0942 81.7862C37.4299 83.8988 34.742 84.6003 33.3535 82.684C31.5468 80.1903 35.3294 76.2524 38.0942 80.2985C42.0626 80.3277 42.2945 79.5914 42.293 75.7905L42.2904 72.5748C41.7424 72.3863 41.2622 72.0499 40.7892 71.7223C34.8379 67.5999 32.8521 61.283 34.2465 54.4398L28.7297 54.4408C26.9101 54.4415 24.9619 54.5822 23.1881 54.1254C14.6067 51.916 12.9531 40.0902 20.6539 35.6636C23.412 34.0781 26.0981 33.9764 29.0976 34.7987C28.8211 27.184 37.5847 22.4477 44.1435 26.6589ZM57.463 17.8548C52.3559 17.9937 47.3909 21.564 45.8622 26.49C45.7119 26.9747 45.4878 28.2608 45.2369 28.5948C44.6228 29.4119 43.1477 27.8518 42.5958 27.5601C37.161 24.6881 30.7171 28.7399 30.6698 34.7559C30.662 35.7438 31.0893 36.6429 29.892 36.9697C26.5074 36.2255 25.0509 35.0806 21.2888 37.3837C15.0833 41.1824 16.8018 50.8414 23.746 52.4084C25.3877 52.7789 27.0753 52.6459 28.7468 52.6452L34.8323 52.6444C36.2364 48.9366 39.4086 45.7958 42.9816 44.1235C51.148 40.1168 61.2628 44.3158 64.664 52.6444C65.5379 52.5556 66.4214 52.6433 67.2974 52.6441L72.302 52.6286C75.6181 52.6359 78.1714 52.7836 80.6342 49.8743C86.0759 43.4459 79.459 33.7333 71.7594 36.3742C68.6691 37.434 69.299 36.4842 70.0057 34.3714C71.6804 29.3643 69.6315 23.7176 65.5929 20.4803C63.5306 18.8271 60.1314 17.5032 57.463 17.8548ZM49.7345 44.2754C47.2392 44.6471 45.9548 48.1726 45.55 50.296C46.9984 50.4912 48.4531 50.6853 49.9181 50.6041C51.2784 50.6462 52.6432 50.5137 53.985 50.296C53.4665 48.4998 52.0799 44.3061 49.7345 44.2754ZM46.3154 44.6069C43.8593 45.0532 41.7567 46.5292 39.8542 48.0638C40.2956 48.3713 40.7593 48.6165 41.2439 48.848C42.1939 49.2889 43.1373 49.6634 44.1435 49.9576C44.322 48.3939 45.2343 46.2678 46.1306 44.9899C46.1924 44.9018 46.4133 44.668 46.3856 44.5847L46.3154 44.6069ZM53.1394 44.6069C53.9416 46.5878 54.764 47.5408 55.4392 49.9576C56.6127 49.691 57.5719 49.159 58.6897 48.848C59.0706 48.4926 59.4741 48.2892 59.9353 48.0638L59.8606 48.0226C57.4618 46.6812 56.3018 45.2052 53.1394 44.6069ZM38.7312 49.2401C36.3481 52.1255 35.612 54.1757 35.2365 57.8528H40.2785H42.8626C42.973 55.7245 43.1442 53.602 43.6488 51.5254C42.6474 50.9785 41.5077 50.6682 40.4691 50.1837C39.9203 49.9278 39.274 49.4183 38.7312 49.2401ZM60.9936 49.2401C59.0537 50.1349 58.1164 50.812 55.916 51.5254C56.4398 53.5372 56.6823 55.7763 56.6671 57.8528H59.347H64.2516C64.086 53.7879 62.9265 52.3783 61.0575 49.2566L60.9936 49.2401ZM45.1117 51.7833C44.7604 53.7961 44.4482 55.8063 44.3799 57.8528H54.8649C55.708 57.8286 54.5669 52.8937 54.5723 51.7833C51.2605 52.1199 48.4878 52.3593 45.1117 51.7833ZM36.3081 59.3379C35.9791 59.3377 35.6485 59.3304 35.3198 59.3379C35.4472 62.8356 36.6722 65.2002 38.7312 67.9119C39.4621 67.4166 40.2092 66.8434 41.0685 66.5983C41.8089 66.1349 42.5977 65.843 43.4268 65.5796C43.0609 63.5598 42.7612 61.3935 42.8626 59.3379H36.3081ZM44.3799 59.3379C44.367 61.2538 44.4853 63.2398 44.8651 65.1205C47.8893 64.4816 50.9036 64.3577 53.9286 64.9856C54.1249 65.0264 54.3786 65.1177 54.5723 65.1205C54.9624 63.4793 55.2505 61.0029 55.1341 59.3379H44.3799ZM56.6671 59.3379C56.6739 61.4628 56.2979 63.48 56.1125 65.5796C57.4319 65.6582 60.0426 67.0064 60.9936 67.9119C61.3859 67.3195 61.8218 66.746 62.114 66.0967C63.2702 64.6617 64.328 61.181 64.2516 59.3379H56.6671ZM48.3769 66.0967C47.3381 66.2269 46.2824 66.3457 45.2643 66.5983C45.6616 68.2799 47.9681 74.6403 50.6334 72.7536C52.7503 71.5671 53.6503 68.8143 54.208 66.5983C52.3379 66.1353 50.3013 65.9916 48.3769 66.0967ZM55.67 66.9746C55.1393 68.9466 54.3926 70.9426 53.1394 72.5748C54.2456 72.3275 55.3446 72.0311 56.3616 71.5185C57.6636 70.8059 58.7869 69.9785 59.9353 69.0421C58.759 67.9467 57.1284 67.5343 55.67 66.9746ZM43.8136 67.1286C42.5351 67.5362 40.8619 68.1648 39.8542 69.0421C40.9351 70.0265 42.1291 70.8461 43.4268 71.5185C44.3875 71.9229 45.2866 72.2882 46.3154 72.4867C44.8932 71.061 43.9474 67.2508 43.8136 67.1286ZM49.7345 80.029C48.2721 80.5133 48.4831 82.1779 50.0662 82.1751C51.2955 81.7836 51.1 79.9642 49.7345 80.029ZM64.2516 80.029C62.9157 80.4119 63.0366 81.973 64.4759 82.1751C65.7568 81.8026 65.7127 79.9619 64.2516 80.029ZM35.3198 80.1541C33.8956 80.4579 34.3368 82.2714 35.6623 82.2645C37.0828 81.8596 36.9226 80.0435 35.3198 80.1541Z" fill="white"/>
<path d="M33.8098 35.1341C30.9927 36.1885 32.5437 28.8035 38.7315 28.3537C39.6756 28.2918 40.6334 28.9251 39.9234 29.7506C39.4694 30.2785 35.3984 29.2718 34.233 33.5436C34.0959 34.0461 34.1454 34.7271 33.8098 35.1341Z" fill="white"/>
</svg>
