<svg width="100" height="100" viewBox="0 0 100 100" fill="none" xmlns="http://www.w3.org/2000/svg">
<rect width="100" height="100" rx="12" fill="#2798D5"/>
<path d="M49.365 18.538C49.5418 18.4269 49.7034 18.3482 49.9018 18.2829C51.6028 18.2581 51.1308 20.4364 51.1308 21.5369L51.1287 26.3385C55.9968 26.3402 61.0071 28.4098 64.8349 31.3805C65.2711 31.7189 65.6923 32.1058 66.1717 32.3815L66.2356 32.4176C67.4299 31.5539 68.4168 30.4071 69.4459 29.3599C70.017 28.7787 70.9619 27.5257 71.8733 28.2773C73.0306 29.2317 71.0601 30.7247 70.4502 31.33C69.5301 32.2433 68.6053 33.153 67.7073 34.0882C67.9992 34.5461 68.3924 34.938 68.7375 35.3561C71.6704 38.9086 74.1955 44.523 73.9872 49.101L78.4416 49.0992C79.1859 49.099 80.0312 49.0239 80.7635 49.1444C81.5306 49.2707 82.027 50.3332 81.4138 50.9128C80.8584 51.4377 75.0143 51.241 74.1029 51.1932C73.4118 57.2533 72.121 61.5132 67.7073 66.1514C68.5958 67.2857 72.8769 70.5407 72.0024 71.7051C71.1156 72.8856 69.8423 71.3007 69.2281 70.6786C68.2791 69.7169 67.3217 68.6298 66.2356 67.8265C62.1072 71.2076 56.5235 73.9697 51.1287 73.8851L51.1321 78.3782C51.1327 79.463 51.6125 82.1614 49.6774 81.6546C48.6831 81.1117 49.0428 79.4608 49.0426 78.5131L49.0439 73.8851C44.5944 73.9205 40.1274 72.1935 36.4775 69.7389C35.6242 69.165 34.8931 68.4337 34.0506 67.8622L33.9974 67.8265C32.4823 68.7036 29.529 73.146 28.2112 72.0115C26.9981 70.9673 29.4169 69.1843 30.0754 68.5458C30.8864 67.7594 31.6819 66.9611 32.4696 66.1514C28.5206 61.6913 26.6999 57.0076 26.2046 51.1932C24.6554 51.1732 23.1029 51.196 21.5535 51.1961C20.6738 51.1963 18.3354 51.5325 18.3118 50.13C18.2875 48.6898 20.1067 49.0956 20.9819 49.0984L26.2046 49.101C26.4495 44.7437 27.7057 40.6129 30.1979 37.0007C30.9001 35.9829 31.7596 35.0917 32.4696 34.0882C31.4956 32.9958 30.3682 31.9939 29.3361 30.9532C28.7464 30.3587 27.3481 29.2735 28.2187 28.357C29.3508 27.1655 31.0864 29.7248 31.8389 30.4838C32.5421 31.1931 33.2959 31.8495 33.9974 32.5614C38.3793 28.7331 43.1493 26.4517 49.0439 26.3385L49.0411 21.7169C49.0409 20.7418 48.7948 19.3926 49.365 18.538ZM48.841 28.4194C44.2908 28.3787 38.6713 30.7973 35.5266 34.0882C35.9321 34.4809 36.6423 34.889 36.6587 35.5124C36.674 36.0906 36.1305 36.6576 35.5465 36.6393C34.9401 36.6205 34.4364 35.9753 33.9974 35.6106C30.7964 39.614 28.2468 43.6552 28.3543 49.101C29.5825 48.9466 31.3831 49.5138 30.2782 50.7815C29.8075 51.3215 28.9902 51.1378 28.3543 51.1932C28.2045 56.001 30.9843 61.0708 33.9974 64.7048C34.3803 64.272 34.7076 63.9056 35.2615 63.6917C36.8614 64.2021 36.5384 65.14 35.5266 66.1514C38.1824 69.3281 45.1213 71.9485 49.0439 71.7826C49.0282 71.2372 48.9105 70.4288 49.3097 69.9966C49.715 69.5582 50.4479 69.6224 50.843 70.0395C51.2317 70.4496 51.1278 71.2515 51.1287 71.7826C51.3467 71.7831 51.5998 71.8066 51.8146 71.7826C56.4572 71.2724 61.4326 69.5148 64.8114 66.1514C63.9313 65.4583 62.8458 63.7266 64.5529 63.5904C65.3123 63.5299 65.7712 64.218 66.2356 64.7048C69.7234 61.2995 71.8325 56.0469 71.9163 51.1932C71.345 51.1617 70.4048 51.3152 69.9857 50.8523C69.6049 50.4319 69.6312 49.6732 70.0732 49.3046C70.4942 48.9537 71.4005 49.1143 71.9163 49.101C71.7524 43.7126 69.6048 39.5855 66.2356 35.6106C65.7245 36.015 65.2037 36.7561 64.4793 36.6641C62.7064 36.4391 63.8583 34.7702 64.8114 34.0882C61.0045 30.8096 56.2438 28.4573 51.1287 28.4194C51.1788 29.6512 50.591 31.501 49.3104 30.1627C48.763 29.5905 49.1528 28.6668 48.9118 28.4096L48.841 28.4194Z" fill="white"/>
<path d="M50.5472 67.8264C41.9663 67.8778 34.7059 62.4327 32.8297 54.0104C30.4138 43.1656 38.4631 32.7385 49.6772 32.4176C54.1702 32.2505 58.7645 34.1714 62.0252 37.2169C73.765 48.1814 66.1283 67.3497 50.5472 67.8264ZM49.3648 34.5369C40.5015 35.2615 33.8159 42.3015 34.5494 51.4019C35.1539 58.8987 41.0238 64.8467 48.4605 65.643C49.2327 65.7257 50.0869 65.8173 50.8583 65.6728C59.1156 65.6205 65.7217 58.1164 65.6401 49.969C65.5561 41.5736 58.3191 34.4035 49.9042 34.5211C49.7284 34.5235 49.5382 34.5142 49.3648 34.5369Z" fill="white"/>
<path d="M49.1678 41.3568C49.1793 40.3513 48.7975 39.0434 50.0754 38.7323C51.4551 38.9007 51.1699 40.3197 51.1282 41.3568C57.5035 42.4151 57.4236 47.5743 54.6704 46.6478C53.632 46.2986 54.0403 44.4406 50.9987 43.5452V48.8815C58.9901 50.527 58.2461 57.9551 51.1282 58.9585C51.2901 60.1297 51.0829 62.5519 49.4501 61.1177C49.0761 60.56 49.2052 59.6117 49.1678 58.9585C47.3207 58.7281 45.4257 58.0678 44.3867 56.4117C43.6085 55.1713 43.2456 52.1309 45.2659 52.7502C46.7713 53.2118 44.8943 55.5418 49.4501 56.8254L49.4516 53.5896C49.4518 52.719 49.4755 51.8469 49.3645 50.9815C47.9259 50.5955 46.4153 50.3797 45.1977 49.4459C43.3175 48.0046 43.1037 45.4159 44.5607 43.5743C45.6414 42.2082 47.4934 41.562 49.1678 41.3568ZM49.3645 43.5452C47.0721 43.8874 44.7833 46.0099 47.0892 47.874C47.8332 48.3227 48.606 48.4578 49.4501 48.6176C49.4498 48.0281 49.5105 43.7415 49.4099 43.5525L49.3645 43.5452ZM50.9987 51.359V56.8254C51.7002 56.5303 52.4266 56.2614 53.0259 55.7791C55.1206 53.8699 53.2758 51.8729 50.9987 51.359Z" fill="white"/>
</svg>
