<svg width="367" height="346" viewBox="0 0 367 346" fill="none" xmlns="http://www.w3.org/2000/svg">
<path d="M62.4575 288.557L30.0862 232.488L-34.6564 232.488L-67.0277 288.557L-34.6564 344.625L30.0862 344.625L62.4575 288.557Z" stroke="#3391C4" stroke-width="0.757178"/>
<path d="M264.992 288.557L232.62 232.488L167.878 232.488L135.506 288.557L167.878 344.625L232.62 344.625L264.992 288.557Z" stroke="#3391C4" stroke-width="0.757178"/>
<path d="M62.4575 172.543L30.0862 116.474L-34.6564 116.474L-67.0277 172.543L-34.6564 228.612L30.0862 228.612L62.4575 172.543Z" stroke="#3391C4" stroke-width="0.757178"/>
<path d="M264.992 172.543L232.62 116.474L167.878 116.474L135.506 172.543L167.878 228.612L232.62 228.612L264.992 172.543Z" stroke="#3391C4" stroke-width="0.757178"/>
<path d="M163.764 230.37L131.393 174.301L66.6502 174.301L34.2789 230.37L66.6503 286.439L131.393 286.439L163.764 230.37Z" stroke="#3391C4" stroke-width="0.757178"/>
<path d="M366.298 230.37L333.927 174.301L269.184 174.301L236.813 230.37L269.184 286.439L333.927 286.439L366.298 230.37Z" stroke="#3391C4" stroke-width="0.757178"/>
<path d="M163.764 113.922L131.393 57.8531L66.6502 57.8531L34.2789 113.922L66.6503 169.991L131.393 169.991L163.764 113.922Z" stroke="#3391C4" stroke-width="0.757178"/>
<path d="M366.298 113.922L333.927 57.8531L269.184 57.8531L236.813 113.922L269.184 169.991L333.927 169.991L366.298 113.922Z" stroke="#3391C4" stroke-width="0.757178"/>
<path d="M62.4575 56.6865L30.0862 0.617728L-34.6564 0.617734L-67.0277 56.6865L-34.6564 112.755L30.0862 112.755L62.4575 56.6865Z" stroke="#3391C4" stroke-width="0.757178"/>
<path d="M264.992 56.6865L232.62 0.617728L167.878 0.617734L135.506 56.6865L167.878 112.755L232.62 112.755L264.992 56.6865Z" stroke="#3391C4" stroke-width="0.757178"/>
</svg>
