<svg width="295" height="137" viewBox="0 0 295 137" fill="none" xmlns="http://www.w3.org/2000/svg">
<path d="M294.212 17.7803H-0.00390625V118.537H294.212V17.7803Z" fill="#FF4427"/>
<path d="M214.633 136.309H214.797C222.467 136.309 229.697 135.186 236.685 133.075C244.2 130.459 251.33 125.219 255.631 118.693C262.74 108.3 269.188 88.2022 269.472 68.1831V68.1262C269.188 48.1142 262.74 28.0168 255.631 17.6163C251.323 11.0901 244.363 5.84365 236.849 3.22752C229.861 1.12323 222.311 0 214.633 0C206.962 0 199.405 1.12323 192.424 3.22752C184.91 5.84365 177.943 11.0901 173.642 17.6163C166.533 28.0168 160.085 48.1071 159.801 68.1262V68.1831C160.078 88.1951 166.533 108.3 173.642 118.693C177.95 125.219 184.91 130.444 192.424 133.06C199.405 135.172 206.799 136.316 214.477 136.316H214.64L214.633 136.309Z" fill="#6E6D5E"/>
<path d="M265.237 68.1556C265.479 83.2269 260.893 101.526 256.457 111.265C251.559 122.391 244.073 129.159 233.076 132.166C227.147 133.687 220.933 134.462 214.549 134.462C208.158 134.462 201.909 133.68 195.988 132.166C184.99 129.159 177.497 122.391 172.599 111.265C168.17 101.526 163.577 83.234 163.826 68.1556C163.584 53.0844 168.17 34.7928 172.599 25.0533C177.497 13.9348 184.99 7.15981 195.988 4.15268C201.909 2.63844 208.158 1.85645 214.549 1.85645C220.933 1.85645 227.147 2.63844 233.076 4.15268C244.073 7.15981 251.566 13.9348 256.457 25.0533C260.893 34.7928 265.479 53.0844 265.237 68.1556Z" fill="white"/>
<path d="M214.726 17.9512C219.986 17.9512 225.247 18.6834 230.095 19.9986C235.257 21.4702 239.501 25.0318 241.634 29.8802C246.262 39.8116 249.304 54.1079 249.304 68.1554C249.304 82.21 246.262 96.4993 241.634 106.431C239.501 111.279 235.264 114.834 230.095 116.312C225.247 117.62 219.986 118.36 214.726 118.36H214.555C209.294 118.36 204.034 117.627 199.185 116.312C194.024 114.834 189.78 111.279 187.647 106.431C183.019 96.4993 179.977 82.2029 179.977 68.1554C179.977 54.1079 183.019 39.8116 187.647 29.8802C189.78 25.0318 194.024 21.4702 199.185 19.9986C204.034 18.6905 209.287 17.9512 214.555 17.9512H214.726Z" fill="#6E6D5E"/>
<path d="M222.167 37.1302C221.436 35.8944 222.032 36.9953 221.272 35.5605L222.167 37.1302Z" fill="white"/>
<path d="M206.514 65.4678H189.133V70.5223H206.514V65.4678Z" fill="white"/>
<path d="M202.581 109.223C202.211 108.426 202.076 108.135 202.033 107.317C205.68 107.317 208.119 107.317 211.972 107.317C211.95 108.697 211.168 110.047 209.917 110.943C208.538 111.945 206.249 112.166 204.72 111.313C203.846 110.9 203.064 110.04 202.581 109.216V109.223Z" fill="white"/>
<path d="M213.308 105.178H207.977V102.711H213.33L215.015 100.721C215.839 101.673 215.889 101.744 216.742 102.711H222.088V105.185H216.742V111.313H213.315V105.171L213.308 105.178Z" fill="white"/>
<path d="M213.941 97.5143C215.036 97.1517 216.579 96.519 216.892 95.4597C216.813 93.8175 217.944 92.4953 218.79 91.1801C219.209 90.6042 219.266 90.263 219.145 89.6445C220.851 89.7085 222.572 91.1303 223.226 92.7227C223.901 94.3436 223.638 96.4621 222.593 97.8128C221.285 99.4053 219.472 100.237 217.347 99.8674C216.017 99.5617 214.709 98.7512 213.941 97.5072V97.5143Z" fill="white"/>
<path d="M201.116 75.3484C200.164 74.8792 198.877 74.6872 197.818 75.192C196.965 75.4266 196.069 76.4361 195.984 77.4456C195.927 80.4527 196.04 81.384 195.984 84.6897C195.927 85.2087 195.657 85.4575 195.003 85.4575C194.455 85.429 194.05 85.1589 194.057 84.6826V77.2963C194.014 76.5143 193.879 75.7465 193.332 75.1564L189.514 76.4005L189.166 76.5285C190.133 77.2465 190.588 77.2678 190.666 78.455V87.903L190.716 88.4006L190.851 88.7276L190.957 89.0262L191.093 89.275C191.718 90.2845 192.785 90.6969 193.531 90.8817C193.858 90.9812 194.434 91.031 194.768 91.031C195.756 91.031 196.695 90.967 197.704 90.2632C199.275 89.0333 198.934 86.8793 198.969 83.7442C198.984 82.8627 199.04 82.3721 199.588 81.8674C200.05 81.5191 200.683 81.4124 201.273 81.5404C201.941 81.7181 202.048 81.775 202.716 82.2157C202.73 79.5143 202.815 76.1801 201.123 75.3697L201.116 75.3484Z" fill="white"/>
<path d="M236.577 87.2003C233.783 84.4562 228.956 80.6316 228.565 79.0107C228.146 77.9159 228.281 76.6078 228.259 75.3424C229.063 74.7097 229.738 74.1552 230.705 73.3945C230.634 75.3282 230.357 77.2903 231.295 78.442C233.57 80.7169 235.646 82.7643 237.7 84.7762C238.468 85.6079 239.072 86.788 238.575 87.8828C238.333 88.4018 238.006 88.9989 237.658 89.4752C237.658 88.4089 237.188 87.8046 236.584 87.2003H236.577Z" fill="white"/>
<path d="M220.773 73.273C222.899 73.2375 223.588 73.3014 225.806 73.2588V88.1807H220.759L220.78 73.273H220.773Z" fill="white"/>
<path d="M232.062 74.6581C232.596 74.0681 232.788 73.8477 233.413 73.2363L234.686 74.7648V79.0089C236.477 78.1345 236.036 75.5965 236.036 73.3927C237.103 74.26 237.636 74.7506 238.66 75.7103C239.236 78.2482 237.707 79.6985 236.563 81.4757L232.062 77.1748V74.6653V74.6581Z" fill="white"/>
<path d="M236.164 63.2422L236.84 60.3986L239.043 60.0716V53.0194C238.183 53.1474 237.835 53.2398 237.145 53.318V47.9648C235.987 48.2066 234.764 48.6189 233.541 48.9032V57.7754C233.527 58.2019 232.844 58.3512 232.702 58.3441H232.517C232.077 58.3441 231.643 58.0455 231.643 57.7398V49.1947L228.117 49.6497V53.254C226.873 55.7848 225.039 58.081 223.247 60.3986C225.145 60.5266 225.287 60.5266 227.178 60.7043L228.344 63.2422H236.171H236.164Z" fill="white"/>
<path d="M196.06 61.4854C196.003 59.1537 195.903 57.6252 195.854 55.329C196.572 55.1299 197.275 55.592 197.837 56.0043C197.745 58.9333 197.745 58.9048 197.688 61.976H196.074L196.06 61.4854Z" fill="white"/>
<path d="M195.749 48.0789C195.365 45.7827 195.336 45.6121 195.116 43.9343H193.651V42.3135C196.182 42.3135 197.583 42.3135 200.114 42.3135V43.9272H198.613L197.952 49.3372C197.298 48.7472 196.552 48.3349 195.749 48.0718V48.0789Z" fill="white"/>
<path d="M195.485 41.1605C193.331 38.8429 193.167 35.3666 193.587 32.2172V32.203C193.992 33.376 194.724 34.2078 195.89 34.7552C195.762 34.1438 195.215 33.5751 195.037 32.921C194.532 31.6556 194.575 29.8428 195.407 28.7267C195.997 27.8523 196.843 27.4897 197.767 27.1982C197.419 28.2433 197.312 29.5087 197.739 30.5751C198.343 30.1059 198.371 30.0703 198.848 29.6224C199.025 29.4518 199.111 29.3878 199.26 29.2812C200.12 31.1153 201.101 33.6533 200.532 35.7931L200.177 36.7244C200.042 35.2102 199.8 34.485 198.784 33.9305C198.656 34.8121 199.217 35.4448 199.352 36.5964C199.765 38.3808 199.438 40.1296 198.336 41.1605H195.492H195.485Z" fill="white"/>
<path d="M222.167 37.1304L219.934 39.577C219.336 39.0009 219.279 38.9369 218.675 38.3111C219.82 37.1091 219.941 36.9811 221.271 35.5586" fill="white"/>
<path d="M225.081 31.1798C225.543 29.0613 225.778 26.6229 228.11 25.7342C228.984 25.4854 230.185 25.6063 230.925 26.2603C231.927 26.9783 232.219 28.2011 231.977 29.3385C231.28 31.7983 228.543 32.2604 226.318 32.8504L225.088 31.1798H225.081Z" fill="white"/>
<path d="M240.521 65.4668V70.5498L223.132 70.5213V65.4668H240.521Z" fill="white"/>
<path d="M198.542 99.4201C197.845 96.2068 201.713 95.0551 202.63 92.3892C203.348 87.9318 203.568 83.2398 206.668 79.7635C206.974 73.2089 209.092 67.4221 213.748 62.6591C213.528 61.1946 212.917 59.9079 212.483 58.5287C211.872 58.5074 211.459 58.3936 210.912 57.896C210.507 57.3273 210.343 56.9078 210.237 56.2111C208.616 58.223 206.604 60.4695 204.4 61.8273C203.995 62.0548 203.476 61.5785 202.744 60.8889C200.035 58.7491 199.58 53.9007 195.45 54.1211C193.573 53.4884 193.658 51.2774 193.353 49.621C194.049 49.1163 195.18 49.1447 196.018 49.4717C198.592 50.8509 200.312 53.7514 202.744 55.6993C203.398 56.2182 203.981 56.9007 204.585 57.1495C206.184 55.7775 207.464 54.5974 208.545 52.4647C209.298 51.2632 210.542 50.7372 211.921 50.7158L212.902 49.557L212.376 46.6708C211.374 45.384 210.542 44.0333 209.867 42.5902C210.215 40.9337 210.436 39.0072 212.12 38.0901C213.215 37.4148 214.111 38.9645 215 37.9835C215.654 37.8413 216.215 38.0261 216.677 38.3958C217.353 39.5759 218.163 40.756 218.213 42.1281C217.794 43.4646 217.168 44.7087 216.528 45.9527C216.379 46.2371 216.002 46.3224 215.739 46.5215C215.888 47.0902 216.016 47.7229 216.414 48.1566C216.912 48.2632 217.381 48.3485 217.985 48.2419C218.462 46.7774 220.04 46.1234 221.348 45.7324L224.227 43.8556C223.772 41.6731 225.166 39.7465 224.384 37.564C222.741 36.8034 222.272 34.9337 221.917 33.4834C222.173 32.5664 222.628 31.6066 223.282 30.8389L223.381 30.9455C224.952 32.7796 226.395 34.6564 226.893 36.9313C227.177 39.8318 227.462 42.8105 227.263 45.8461C225.713 47.3959 223.836 48.313 222.066 49.4717L220.758 51.9812C220.602 54.5832 219.841 56.922 219.45 59.4315C220.566 62.4671 221.888 66.5122 220.914 69.3274C220.175 71.0051 218.59 71.9151 217.417 72.8392L214.474 75.1995C217.431 78.4625 216.72 82.1663 216.848 86.8939C216.82 88.0384 218.867 88.991 217.772 90.292C216.862 91.7494 215.433 92.9295 215.675 94.856C214.772 96.3774 212.597 96.7044 211.58 96.6902C211.36 96.7044 211.182 96.5409 211.182 96.3134C211.402 95.5243 212.014 94.92 212.341 94.1736C213.386 92.5598 212.91 90.3276 214.218 88.8204C213.137 85.3086 211.509 82.0455 211.075 78.2919L211.04 78.0644C210.165 79.7848 210.642 81.4768 211.104 82.8275C208.196 86.4958 205.047 90.0219 205.047 94.8489C203.803 97.0527 202.033 99.0646 201.116 101.403C200.796 101.787 200.227 101.446 199.872 101.247C199.04 100.7 198.848 100.167 198.563 99.4129L198.542 99.4201Z" fill="white"/>
<path d="M230.457 83.5877C233.251 86.3318 238.078 90.1565 238.476 91.7773C238.888 92.8721 238.76 94.1802 238.781 95.4456C237.978 96.0783 237.31 96.6328 236.336 97.3864C236.407 95.4527 236.677 93.4906 235.746 92.3389C233.464 90.064 231.402 88.0166 229.348 86.0048C228.587 85.1801 227.969 83.9929 228.473 82.9052C228.715 82.3791 229.035 81.7891 229.39 81.3057C229.39 82.372 229.853 82.9834 230.464 83.5806L230.457 83.5877Z" fill="white"/>
<path d="M234.97 96.1284C234.437 96.7185 234.245 96.9317 233.613 97.5431L232.347 96.0147V91.7706C230.556 92.645 230.996 95.1829 230.996 97.3867C229.93 96.5194 229.397 96.0289 228.373 95.0692C227.804 92.5312 229.326 91.081 230.47 89.3037L234.97 93.6047V96.1213V96.1284Z" fill="white"/>
<path d="M227.449 109.223C227.819 108.426 227.954 108.135 227.996 107.317C224.349 107.317 221.911 107.317 218.051 107.317C218.072 108.697 218.861 110.047 220.105 110.943C221.484 111.945 223.774 112.166 225.302 111.313C226.176 110.9 226.958 110.04 227.442 109.216L227.449 109.223Z" fill="white"/>
<path d="M216.389 130.907C216.339 128.148 219.04 126.755 220.739 124.921C221.201 124.48 221.372 123.606 221.038 122.881C220.839 122.426 220.54 122.205 220.171 122.113C219.573 121.971 219.069 122.063 218.692 122.397C218.159 122.888 218.017 123.52 218.038 124.21L216.161 124.324C215.998 123.279 216.246 122.262 216.886 121.473C217.768 120.535 219.09 120.265 220.384 120.35C221.415 120.513 222.609 121.146 223.036 122.22C223.576 123.385 223.398 124.878 222.531 125.866C221.415 127.054 219.957 127.701 219.04 129.037L223.81 128.76C223.846 129.35 223.882 129.919 223.91 130.459L216.389 130.907Z" fill="#6E6D5E"/>
<path d="M199.462 118.983L199.434 119.076L196.327 128.595L194.343 127.948L196.476 121.422L196.512 121.308C195.723 121.031 194.77 120.761 193.995 120.483L194.4 119.254C195.403 119.517 196.441 119.687 197.315 118.962C197.635 118.713 197.685 118.642 197.855 118.45L199.462 118.976V118.983Z" fill="#6E6D5E"/>
<path d="M237.203 124.266C236.955 123.328 236.436 122.575 235.384 122.276L234.779 122.141C235.398 121.7 235.974 120.819 235.76 119.958C235.618 118.977 234.907 118.352 234.019 118.01C233.244 117.776 232.327 117.811 231.459 118.039C230.585 118.238 229.76 118.629 229.177 119.198C228.552 119.916 228.21 120.797 228.537 121.736C228.751 122.596 229.675 123.108 230.421 123.207L229.952 123.605C229.156 124.359 229.056 125.269 229.27 126.214C229.504 127.266 230.35 128.091 231.381 128.397C232.156 128.596 233.101 128.589 234.004 128.368C234.907 128.141 235.746 127.714 236.343 127.174C237.111 126.428 237.481 125.304 237.196 124.259L237.203 124.266ZM230.649 121.544C230.414 121.131 230.407 120.435 230.834 120.022C231.075 119.766 231.438 119.574 231.822 119.482C232.206 119.383 232.611 119.383 232.945 119.496C233.507 119.667 233.834 120.285 233.812 120.762C233.812 121.131 233.635 121.423 233.4 121.65C233.158 121.864 232.817 122.02 232.462 122.098C232.106 122.198 231.737 122.212 231.417 122.134C231.104 122.041 230.819 121.864 230.642 121.537L230.649 121.544ZM234.815 126.136C234.559 126.435 234.104 126.655 233.62 126.776C233.137 126.897 232.625 126.911 232.263 126.762C231.772 126.577 231.431 126.193 231.31 125.752C231.118 125.098 231.31 124.416 231.872 124.018C232.106 123.854 232.455 123.691 232.831 123.584C233.215 123.499 233.599 123.477 233.884 123.52C234.566 123.605 235.056 124.131 235.184 124.793C235.277 125.233 235.156 125.738 234.808 126.122L234.815 126.136Z" fill="#6E6D5E"/>
<path d="M211.454 127.843C211.497 126.876 211.227 126.002 210.31 125.398L209.777 125.092C210.495 124.857 211.305 124.182 211.362 123.301C211.518 122.319 211.021 121.509 210.281 120.919C209.606 120.464 208.724 120.229 207.829 120.187C206.933 120.116 206.03 120.244 205.305 120.613C204.495 121.111 203.905 121.85 203.94 122.846C203.89 123.727 204.615 124.495 205.305 124.815L204.736 125.049C203.755 125.533 203.386 126.372 203.307 127.338C203.222 128.419 203.784 129.457 204.672 130.047C205.355 130.474 206.258 130.744 207.189 130.794C208.12 130.85 209.051 130.694 209.777 130.353C210.729 129.862 211.412 128.91 211.454 127.829V127.843ZM206.009 123.293C205.909 122.824 206.108 122.163 206.642 121.893C206.954 121.715 207.352 121.644 207.743 121.673C208.134 121.694 208.525 121.815 208.81 122.021C209.3 122.355 209.421 123.038 209.265 123.485C209.151 123.841 208.902 124.061 208.611 124.211C208.312 124.346 207.942 124.388 207.58 124.36C207.21 124.346 206.855 124.253 206.57 124.083C206.3 123.905 206.08 123.649 206.009 123.286V123.293ZM208.618 128.917C208.291 129.123 207.786 129.208 207.288 129.173C206.784 129.144 206.3 129.002 205.995 128.76C205.582 128.44 205.376 127.964 205.383 127.516C205.397 126.841 205.781 126.237 206.435 126.03C206.713 125.945 207.089 125.888 207.48 125.91C207.871 125.938 208.241 126.038 208.504 126.158C209.13 126.443 209.435 127.09 209.371 127.758C209.329 128.206 209.066 128.654 208.618 128.917Z" fill="#6E6D5E"/>
<path d="M255.472 29.2649L246.202 33.2627L247.036 35.1949L256.305 31.1971L255.472 29.2649Z" fill="#6E6D5E"/>
<path d="M221.373 15.1569L218.991 4.77051L221.188 4.99089C221.629 7.56437 222.084 10.4791 222.603 12.6474C223.541 10.6284 224.579 7.86295 225.524 5.43165L227.686 5.65203L223.292 15.3559L221.373 15.164V15.1569Z" fill="#6E6D5E"/>
<path d="M181.939 21.1068L179.685 25.1376L177.787 24.0713L180.368 19.4504L178.903 18.6328L175.292 25.1092L184.107 30.0286L187.726 23.5523L186.261 22.7419L183.674 27.377L181.207 25.9907L183.467 21.9527L181.939 21.1068Z" fill="#6E6D5E"/>
<path d="M176.585 64.0033C176.108 62.9227 174.942 62.4891 173.734 62.5459C172.71 62.6597 171.942 63.3564 171.509 64.4085C171.352 63.79 170.784 63.0151 169.81 62.9014C168.8 62.7734 167.833 63.0507 167.343 63.9109C166.675 64.764 166.966 68.5176 166.895 70.6858H176.926V69.9394C176.869 65.9512 177.096 65.4749 176.578 64.0033H176.585ZM170.897 68.5744H168.423C168.494 66.2569 168.111 65.027 169.532 64.8706C170.371 64.8066 170.606 64.9986 170.791 65.5033C170.947 66.0223 170.904 66.5697 170.897 68.5815V68.5744ZM175.255 68.5673H172.44H172.419C172.468 66.3208 172.12 65.0057 173.45 64.7426C173.919 64.6218 174.495 64.6644 174.836 65.0128C175.405 65.5602 175.227 66.4773 175.248 68.5602L175.255 68.5673Z" fill="#6E6D5E"/>
<path d="M256.392 36.7961L257.998 36.3838L260.025 44.282L258.425 44.6943L257.671 41.7725L249.567 43.8554L249.041 41.8222L257.145 39.7322L256.392 36.7961Z" fill="#6E6D5E"/>
<path d="M205.428 15.74C204.305 15.9249 203.153 15.8182 202.222 15.2495C201.419 14.7803 201.134 14.1832 200.985 13.4438L199.826 6.23522L201.881 5.9082L203.047 13.1168C203.167 13.7069 203.686 14.0765 204.234 14.1832C204.539 14.2614 204.874 14.2543 205.201 14.1974" fill="#6E6D5E"/>
<path d="M205.458 15.7327C206.581 15.5621 207.648 15.0929 208.351 14.2611C208.963 13.5644 209.048 12.9033 208.963 12.1568L207.804 4.94824L205.75 5.27526L206.901 12.491C206.979 13.0313 206.596 13.5929 206.112 13.8701C205.849 14.0407 205.529 14.1403 205.202 14.1829" fill="#6E6D5E"/>
<path d="M261.053 51.0994L250.567 48.9951L250.852 51.0425L253.134 51.462L253.638 55.0734L251.563 56.1042L251.847 58.1516L261.352 53.2534L261.053 51.1065V51.0994ZM255.217 54.2843L254.868 51.7961L259.226 52.4572H259.24H259.219L255.217 54.2843Z" fill="#6E6D5E"/>
<path d="M259.532 68.4463L259.724 68.4108L259.952 68.3468L260.115 68.2899C260.783 67.9274 260.94 67.0387 260.904 66.3207C260.876 65.5885 260.655 64.8491 259.966 64.5861C259.61 64.4866 259.162 64.4582 258.928 64.8207C257.79 66.5056 258.579 70.0814 255.643 70.707C254.364 70.9203 253.241 70.3658 252.579 69.3421C251.662 67.7141 251.591 65.1691 252.636 63.598C253.269 62.7733 254.122 62.2757 255.146 62.2686L255.267 64.2022C254.634 64.2875 254.015 64.6074 253.731 65.2259C253.305 66.2354 253.411 67.8492 254.151 68.4463C254.421 68.752 255.053 68.7165 255.395 68.5316C256.56 67.6928 256.326 65.6098 256.909 64.2093C257.108 63.6193 257.655 63.0079 258.21 62.7093C259.241 62.2686 260.57 62.425 261.402 63.2496C262.745 64.515 262.809 67.0032 262.184 68.5103C261.835 69.5554 260.698 70.3231 259.518 70.3942L259.397 68.4534H259.546L259.532 68.4463Z" fill="#6E6D5E"/>
<path d="M178.298 53.2198C178.134 54.343 177.672 55.4094 176.84 56.1203C176.151 56.7388 175.489 56.8241 174.743 56.7388L167.527 55.6084L167.847 53.5539L175.063 54.6771C175.667 54.7482 176.165 54.3644 176.442 53.8809C176.613 53.6108 176.712 53.298 176.755 52.9639" fill="#6E6D5E"/>
<path d="M178.298 53.1982C178.483 52.075 178.37 50.9233 177.801 49.992C177.332 49.1958 176.727 48.9115 175.988 48.7622L168.772 47.6318L168.445 49.6864L175.661 50.8238C176.201 50.9162 176.614 51.4565 176.727 52.0039C176.806 52.3096 176.798 52.6437 176.742 52.9707" fill="#6E6D5E"/>
<path d="M189.495 10.0598L187.64 11.1831L189.858 21.6405L191.621 20.567L191.102 18.3064L194.216 16.4154L195.986 17.9154L197.749 16.8419L189.488 10.0527L189.495 10.0598ZM190.725 16.5931L189.609 12.3347V12.3205H189.623L192.886 15.2779L190.739 16.586L190.725 16.5931Z" fill="#6E6D5E"/>
<path d="M238.485 13.3427L234.226 11.5583L235.065 9.55357L239.956 11.5939L240.603 10.0512L233.757 7.19336L229.861 16.5062L236.707 19.3641L237.354 17.8214L232.456 15.774L233.544 13.1721L237.816 14.9565L238.485 13.3427Z" fill="#6E6D5E"/>
<path d="M177.033 35.709C177.033 35.0123 176.991 34.4365 176.415 33.8819C175.86 33.3061 174.979 33.0431 174.111 33.1071C171.865 33.4554 171.566 36.036 170.322 40.1166L179.991 42.9958L180.588 40.9839L176.77 39.8465L176.614 39.7967C176.877 38.8654 177.246 37.6924 177.431 37.4365C178.128 35.8369 180.687 37.408 181.704 37.2516L182.301 35.254C180.574 35.3464 178.256 33.8037 177.033 35.709ZM175.021 39.3275L172.491 38.5739C173.038 36.8464 173.287 35.1118 174.502 35.2185C174.993 35.2967 175.327 35.4246 175.611 35.7801C176.081 36.3701 175.476 37.6569 175.021 39.3275Z" fill="#6E6D5E"/>
<path d="M247.568 15.6182L239.556 21.7391L240.828 23.4097L243.999 20.9926L244.134 20.8931C244.731 21.6538 245.463 22.649 245.556 22.9476C246.444 24.4476 243.665 25.5993 243.196 26.5093L244.461 28.1657C245.399 26.7083 248.008 25.7486 247.191 23.6372C247.752 24.0424 248.25 24.3481 249.025 24.213C249.814 24.0993 250.553 23.5519 251.008 22.8054C252.046 20.7865 250.134 19.0234 247.568 15.6182ZM249.075 21.8813C248.726 22.2296 248.421 22.4215 247.966 22.45C247.212 22.4855 246.53 21.2343 245.449 19.8836L247.546 18.2841C248.613 19.7414 249.878 20.9642 249.075 21.8813Z" fill="#6E6D5E"/>
<path d="M12.126 34.9775H14.8345V48.2004H12.126V34.9775Z" fill="white"/>
<path d="M22.3546 39.0708V38.6798C22.3688 37.9831 22.2764 37.4855 22.0915 37.2011C21.9067 36.9167 21.5797 36.7675 21.1105 36.7675C20.6413 36.7675 20.3 36.9025 20.0726 37.1656C19.8451 37.4286 19.7242 37.8267 19.7242 38.3599C19.7242 38.7722 19.8593 39.1277 20.1365 39.4191C20.4067 39.7106 20.8759 40.0163 21.5584 40.3362C22.902 40.976 23.8404 41.5945 24.3735 42.1988C24.9138 42.8031 25.184 43.5495 25.184 44.431C25.184 45.7533 24.8356 46.7486 24.1461 47.4097C23.4565 48.0709 22.4185 48.3979 21.0323 48.3979C19.518 48.3979 18.4517 48.0993 17.8261 47.5093C17.2005 46.9192 16.8877 45.9524 16.8877 44.6159V44.0969H19.5607V44.4879C19.5465 45.1277 19.6673 45.604 19.909 45.9239C20.1579 46.2438 20.5275 46.4002 21.0323 46.4002C21.537 46.4002 21.8925 46.2581 22.1342 45.9666C22.3759 45.6751 22.4967 45.2415 22.4967 44.6656C22.4967 44.232 22.3475 43.8623 22.0489 43.5495C21.7574 43.2367 21.2384 42.9026 20.5062 42.5542C19.2195 41.95 18.3237 41.3528 17.8119 40.7627C17.3 40.1798 17.0441 39.4618 17.0441 38.5945C17.0441 37.3149 17.3924 36.3551 18.082 35.7153C18.7716 35.0755 19.8095 34.7627 21.1958 34.7627C22.5821 34.7627 23.6271 35.0613 24.21 35.6513C24.7574 36.2129 25.0347 37.1229 25.0276 38.367V38.6585V39.0495H22.3546V39.0708Z" fill="white"/>
<path d="M28.3043 47.3817C27.6858 46.7064 27.373 45.5476 27.373 43.9054V38.4598C27.373 37.23 27.7143 36.3058 28.3967 35.6944C29.0792 35.083 30.11 34.7773 31.4821 34.7773C32.8541 34.7773 33.885 35.083 34.5745 35.6944C35.2641 36.3058 35.6054 37.23 35.6054 38.4598V43.9054C35.6054 45.5476 35.2997 46.7064 34.6741 47.3817C34.0485 48.0571 32.9892 48.3912 31.475 48.3912C29.9607 48.3912 28.9086 48.0571 28.2901 47.3817H28.3043ZM32.5982 45.8817C32.8044 45.5334 32.911 44.9078 32.911 44.0191V38.5736C32.911 37.9835 32.7902 37.5286 32.5484 37.2229C32.3067 36.9172 31.9584 36.7608 31.4963 36.7608C31.0342 36.7608 30.6859 36.9172 30.4442 37.2229C30.2096 37.5286 30.0887 37.9764 30.0887 38.5736V44.0191C30.0887 44.9149 30.1953 45.5334 30.4015 45.8817C30.6077 46.2301 30.9702 46.4078 31.4963 46.4078C32.0224 46.4078 32.3992 46.2301 32.6053 45.8817H32.5982Z" fill="white"/>
<path d="M45.4296 48.3985C44.1642 48.3985 43.304 48.1568 42.8348 47.6663C42.3656 47.1758 42.1452 46.2871 42.1665 44.9933V44.7231H44.6334V44.9933C44.6049 45.626 44.6547 46.0525 44.7827 46.28C44.9106 46.5075 45.1737 46.6213 45.5575 46.6213C45.9983 46.6213 46.304 46.5075 46.4604 46.28C46.6168 46.0525 46.695 45.6118 46.695 44.9648V42.6046C46.0836 43.0383 45.3798 43.2516 44.5836 43.2516C43.7092 43.2516 43.0765 42.9885 42.6855 42.4696C42.2945 41.9506 42.1025 41.0975 42.1025 39.9245V38.6662C42.1025 37.3155 42.3798 36.3415 42.9343 35.7444C43.4888 35.1472 44.3917 34.8486 45.6429 34.8486C46.894 34.8486 47.8467 35.1117 48.3798 35.6377C48.913 36.1638 49.1761 37.0667 49.1761 38.3534V44.972C49.1761 46.1592 48.8775 47.0265 48.2732 47.5739C47.676 48.1213 46.7234 48.3985 45.4225 48.3985H45.4296ZM46.695 38.3179C46.695 37.7349 46.6097 37.3155 46.4462 37.0453C46.2827 36.7823 46.0196 36.6472 45.6642 36.6472C45.3087 36.6472 45.0315 36.7752 44.8751 37.0311C44.7187 37.287 44.6334 37.7136 44.6334 38.3179V40.0809C44.6334 40.5785 44.7116 40.934 44.8751 41.1473C45.0315 41.3605 45.3016 41.4672 45.6642 41.4672C46.0267 41.4672 46.2756 41.3534 46.4391 41.1259C46.6097 40.8985 46.695 40.5501 46.695 40.0809V38.3179Z" fill="white"/>
<path d="M52.0843 47.5173C51.5226 46.9343 51.2383 45.9817 51.2383 44.6736V38.5812C51.2383 37.266 51.5226 36.3134 52.0843 35.7233C52.6459 35.1333 53.5629 34.8418 54.8426 34.8418C56.1222 34.8418 57.0393 35.1333 57.6009 35.7162C58.1625 36.2992 58.4469 37.2518 58.4469 38.5669V44.6594C58.4469 45.9746 58.1625 46.9272 57.6009 47.5102C57.0393 48.0931 56.1222 48.3846 54.8426 48.3846C53.5629 48.3846 52.6459 48.0931 52.0843 47.5102V47.5173ZM55.7881 46.1381C55.916 45.8395 55.9729 45.1073 55.9729 43.9556V38.6807C55.9729 37.8774 55.8947 37.33 55.7454 37.0527C55.589 36.7755 55.2976 36.6333 54.8568 36.6333C54.416 36.6333 54.1388 36.7755 53.9824 37.0669C53.826 37.3584 53.7478 37.8916 53.7478 38.6807V43.9556C53.7478 45.0789 53.8118 45.804 53.9468 46.1168C54.0748 46.4296 54.3805 46.5931 54.8568 46.5931C55.3331 46.5931 55.6601 46.4438 55.7881 46.1452V46.1381Z" fill="white"/>
<path d="M61.2913 47.5173C60.7297 46.9343 60.4453 45.9817 60.4453 44.6736V38.5812C60.4453 37.266 60.7297 36.3134 61.2913 35.7233C61.8529 35.1333 62.77 34.8418 64.0496 34.8418C65.3292 34.8418 66.2392 35.1333 66.8079 35.7162C67.3695 36.2992 67.6539 37.2518 67.6539 38.5669V44.6594C67.6539 45.9746 67.3695 46.9272 66.8079 47.5102C66.2463 48.0931 65.3292 48.3846 64.0496 48.3846C62.77 48.3846 61.8529 48.0931 61.2913 47.5102V47.5173ZM64.988 46.1381C65.116 45.8395 65.1728 45.1073 65.1728 43.9556V38.6807C65.1728 37.8774 65.0946 37.33 64.9454 37.0527C64.789 36.7755 64.4975 36.6333 64.0567 36.6333C63.616 36.6333 63.3387 36.7755 63.1823 37.0669C63.0259 37.3584 62.9477 37.8916 62.9477 38.6807V43.9556C62.9477 45.0789 63.0117 45.804 63.1468 46.1168C63.2747 46.4296 63.5804 46.5931 64.0567 46.5931C64.533 46.5931 64.86 46.4438 64.988 46.1452V46.1381Z" fill="white"/>
<path d="M72.5795 37.8766L72.2454 38.2391C71.8899 38.5946 71.3852 38.9358 70.7383 39.2628V37.1443C71.243 36.8457 71.6411 36.5472 71.9397 36.2557C72.2312 35.9642 72.5298 35.559 72.8426 35.04H75.0819V48.1989H72.5866V37.8766H72.5795Z" fill="white"/>
<path d="M12.1973 69.0996H16.1997C17.721 69.0996 18.7518 69.3413 19.2992 69.8247C19.8466 70.3082 20.1239 71.211 20.1239 72.5333V72.2703C20.1239 73.6139 19.8253 74.5167 19.2352 74.9859C18.8798 75.2703 18.3182 75.4622 17.5575 75.5689C18.3679 75.6826 18.9722 75.8817 19.3632 76.1802C19.9817 76.6494 20.2945 77.531 20.2945 78.8319V78.5618C20.2945 80.0405 19.9959 81.0428 19.4059 81.5547C18.8158 82.0737 17.6712 82.3296 15.9722 82.3296H12.1973V69.1067V69.0996ZM14.9058 74.5878H15.4461C16.2423 74.5878 16.7755 74.4527 17.0457 74.1897C17.3087 73.9267 17.4438 73.3935 17.4438 72.6044V72.8674C17.4438 72.1778 17.3158 71.7086 17.0528 71.4598C16.7968 71.211 16.3063 71.083 15.5954 71.083H14.8987V74.5878H14.9058ZM14.9058 80.3319H15.7589C16.4911 80.3319 16.9746 80.1898 17.2234 79.9125C17.4651 79.6281 17.5859 79.0665 17.5859 78.2134V78.4836C17.5859 77.6945 17.4651 77.1826 17.2163 76.9338C16.9675 76.6921 16.4414 76.5712 15.6309 76.5712H14.9058V80.3319Z" fill="white"/>
<path d="M30.5859 78.6115C30.5859 79.9196 30.2447 80.8936 29.5693 81.5476C28.8939 82.1945 27.8773 82.5215 26.5195 82.5215C25.1617 82.5215 24.1451 82.1945 23.4697 81.5476C22.7944 80.9007 22.4531 79.9196 22.4531 78.6115V69.0996H25.1332V78.7893C25.1332 79.4433 25.2328 79.9054 25.4389 80.1613C25.6451 80.4244 26.0006 80.5523 26.5195 80.5523C27.0385 80.5523 27.401 80.4244 27.6001 80.1613C27.8063 79.9054 27.9058 79.4433 27.9058 78.7893V69.0996H30.5859V78.6115Z" fill="white"/>
<path d="M32.9844 69.0996H36.9583C38.3802 69.0996 39.3896 69.3626 39.9939 69.8887C40.5982 70.4148 40.9039 71.2963 40.9039 72.5333C40.9039 73.9338 40.5982 74.8793 39.9868 75.3627C39.6811 75.6044 39.2119 75.7964 38.5721 75.9314H38.7214C39.4607 75.9314 40.0152 76.1731 40.392 76.6566C40.7688 77.14 40.9394 77.8295 40.8968 78.7324C40.8754 79.2443 40.8683 79.7774 40.8754 80.3319C40.8897 80.9078 40.9039 81.3414 40.9323 81.64C40.9608 81.9386 40.9963 82.159 41.0461 82.3083H38.3446C38.302 82.1661 38.2664 81.9457 38.2522 81.6542C38.2309 81.3628 38.2238 80.922 38.2238 80.3319V78.7324C38.238 78.0713 38.11 77.6021 37.847 77.3319C37.5839 77.0618 37.129 76.9267 36.482 76.9267H35.6929V82.3225H32.9844V69.0996ZM35.6929 74.9006H36.4394C37.1361 74.9006 37.6053 74.7726 37.8399 74.5096C38.0745 74.2537 38.1882 73.7347 38.1882 72.9598C38.1882 72.2347 38.0674 71.7442 37.8185 71.4812C37.5697 71.2181 37.1076 71.0902 36.4394 71.0902H35.6929V74.9077V74.9006Z" fill="white"/>
<path d="M43.0352 82.3225V69.0996H49.6395V71.0688H45.7437V74.5665H49.5115V76.5357H45.7437V80.3604H49.7177V82.3296H43.0352V82.3225Z" fill="white"/>
<path d="M54.3516 69.0996H57.5293L60.5294 82.3225H57.9132L57.3872 79.4646H54.508L53.9677 82.3225H51.3516L54.3516 69.0996ZM54.8706 77.4954H57.0388L55.9654 71.5736L54.8706 77.4954Z" fill="white"/>
<path d="M70.5752 78.6115C70.5752 79.9196 70.2339 80.8936 69.5586 81.5476C68.8832 82.2016 67.8666 82.5215 66.5088 82.5215C65.1509 82.5215 64.1343 82.1945 63.459 81.5476C62.7836 80.9007 62.4424 79.9196 62.4424 78.6115V69.0996H65.1225V78.7893C65.1225 79.4433 65.222 79.9054 65.4282 80.1613C65.6344 80.4244 65.9898 80.5523 66.5088 80.5523C67.0277 80.5523 67.3903 80.4244 67.5893 80.1613C67.7955 79.9054 67.895 79.4433 67.895 78.7893V69.0996H70.5752V78.6115Z" fill="white"/>
<path d="M76.5986 69.0996H79.293L81.1342 79.3509H81.1271L82.8973 69.0996H85.485L82.6342 82.3225H79.4565L76.5986 69.0996Z" fill="white"/>
<path d="M87.2666 82.3225V69.0996H93.8709V71.0688H89.9752V74.5665H93.743V76.5357H89.9752V80.3604H93.9491V82.3296H87.2666V82.3225Z" fill="white"/>
<path d="M95.9759 69.0996H99.9498C101.372 69.0996 102.381 69.3626 102.985 69.8887C103.59 70.4148 103.895 71.2963 103.895 72.5333C103.895 73.9338 103.59 74.8793 102.978 75.3627C102.673 75.6044 102.203 75.7964 101.564 75.9314H101.713C102.452 75.9314 103.007 76.1731 103.384 76.6566C103.76 77.14 103.931 77.8295 103.881 78.7324C103.86 79.2443 103.853 79.7774 103.86 80.3319C103.874 80.9078 103.888 81.3414 103.917 81.64C103.945 81.9386 103.981 82.159 104.03 82.3083H101.329C101.286 82.1661 101.251 81.9457 101.237 81.6542C101.215 81.3628 101.208 80.922 101.208 80.3319V78.7324C101.222 78.0713 101.094 77.6021 100.831 77.3319C100.568 77.0618 100.113 76.9267 99.4664 76.9267H98.6773V82.3225H95.9688V69.0996H95.9759ZM98.6844 74.9006H99.4309C100.128 74.9006 100.597 74.7726 100.831 74.5096C101.066 74.2537 101.18 73.7347 101.18 72.9598C101.18 72.2347 101.059 71.7442 100.81 71.4812C100.561 71.2181 100.099 71.0902 99.4309 71.0902H98.6844V74.9077V74.9006Z" fill="white"/>
<path d="M105.902 69.0996H108.611V82.3225H105.902V69.0996Z" fill="white"/>
<path d="M113.13 71.061H110.279V69.0918H118.689V71.061H115.839V82.3147H113.13V71.061Z" fill="white"/>
<path d="M123.013 69.0996H126.19L129.191 82.3225H126.574L126.048 79.4646H123.169L122.629 82.3225H120.013L123.013 69.0996ZM123.532 77.4954H125.7L124.626 71.5736L123.532 77.4954Z" fill="white"/>
<path d="M136.313 73.1948V72.8038C136.327 72.1071 136.234 71.6095 136.05 71.3251C135.865 71.0408 135.538 70.8915 135.068 70.8915C134.599 70.8915 134.258 71.0265 134.031 71.2896C133.803 71.5526 133.682 71.9507 133.682 72.4839C133.682 72.8962 133.817 73.2517 134.095 73.5432C134.365 73.8346 134.834 74.1403 135.516 74.4602C136.86 75.1 137.798 75.7185 138.332 76.3228C138.872 76.9271 139.142 77.6735 139.142 78.5551C139.142 79.8773 138.794 80.8726 138.104 81.5338C137.414 82.1949 136.377 82.5219 134.99 82.5219C133.476 82.5219 132.41 82.2233 131.784 81.6333C131.158 81.0432 130.846 80.0764 130.846 78.7399V78.2209H133.519V78.6119C133.504 79.2517 133.625 79.7281 133.867 80.048C134.116 80.3679 134.486 80.5243 134.99 80.5243C135.495 80.5243 135.85 80.3821 136.092 80.0906C136.334 79.7991 136.455 79.3655 136.455 78.7897C136.455 78.356 136.305 77.9863 136.007 77.6735C135.715 77.3607 135.196 77.0266 134.464 76.6783C133.177 76.074 132.282 75.4768 131.763 74.8868C131.251 74.3038 130.995 73.5858 130.995 72.7185C130.995 71.4389 131.343 70.4791 132.033 69.8393C132.722 69.1995 133.76 68.8867 135.147 68.8867C136.533 68.8867 137.578 69.1853 138.161 69.7754C138.708 70.337 138.986 71.2469 138.978 72.491V72.7825V73.1735H136.305L136.313 73.1948Z" fill="white"/>
<path d="M19.0846 97.5145V97.8628C19.1059 99.242 18.85 100.223 18.3168 100.806C17.7837 101.389 16.8808 101.688 15.6083 101.688C14.2576 101.688 13.3049 101.368 12.7575 100.735C12.203 100.102 11.9258 99.0074 11.9258 97.4576V93.832C11.9258 92.268 12.203 91.1732 12.7575 90.5405C13.3121 89.9078 14.2647 89.5879 15.6083 89.5879C16.7813 89.5879 17.6486 89.8865 18.2173 90.4765C18.7505 91.031 19.0135 91.8557 19.0064 92.9505V93.5263H16.6178V93.178C16.632 92.5666 16.5467 92.1116 16.3832 91.8059C16.2126 91.5002 15.9566 91.3509 15.6154 91.3509C15.1675 91.3509 14.8405 91.5216 14.6414 91.8699C14.4424 92.2182 14.3429 92.7799 14.3429 93.5619V97.1875C14.3429 98.2112 14.4353 98.9221 14.6201 99.3202C14.805 99.7183 15.1391 99.9174 15.6154 99.9174C15.9851 99.9174 16.2623 99.7467 16.4471 99.4055C16.6249 99.0643 16.7102 98.5453 16.7031 97.8628V97.5145H19.0917H19.0846Z" fill="white"/>
<path d="M23.2379 101.688C22.2355 101.688 21.5175 101.439 21.0696 100.942C20.6289 100.444 20.4014 99.6265 20.4014 98.489V96.8753C20.4014 95.5174 20.6289 94.5577 21.0838 93.9961C21.5388 93.4345 22.3137 93.1572 23.4227 93.1572C24.5886 93.1572 25.3848 93.3989 25.8043 93.8824C26.2237 94.3658 26.437 95.2757 26.437 96.6122V97.8066H22.5483V98.0554C22.5483 99.008 22.6052 99.6336 22.7189 99.9393C22.8327 100.245 23.0673 100.394 23.4227 100.394C23.7782 100.394 23.9986 100.288 24.1336 100.067C24.2687 99.8469 24.3256 99.4843 24.2971 98.9725V98.7307H26.437V98.9725C26.4512 99.8753 26.1953 100.558 25.6621 101.013C25.1289 101.468 24.3185 101.688 23.2379 101.688ZM24.2971 96.5625V96.1075C24.2971 95.4677 24.2332 95.034 24.1123 94.8065C23.9914 94.579 23.7568 94.4582 23.4227 94.4582C23.0886 94.4582 22.854 94.6004 22.7331 94.8776C22.6123 95.1549 22.5483 95.6809 22.5483 96.4487V96.5625H24.2971Z" fill="white"/>
<path d="M27.9781 93.3344H30.0326V94.3937C30.1108 94.2444 30.1961 94.1093 30.2814 93.9884C30.6653 93.4979 31.3122 93.2278 32.2293 93.1709V95.005C32.0871 94.9766 31.9378 94.9695 31.7601 94.9695C31.1345 94.9695 30.708 95.1188 30.4591 95.4245C30.2174 95.7302 30.1037 96.2562 30.125 97.0098V101.517H27.9639V93.3344H27.9781Z" fill="white"/>
<path d="M37.6613 101.588C37.2419 101.652 36.7585 101.688 36.2182 101.688C35.5357 101.688 35.0239 101.481 34.6755 101.076C34.3343 100.671 34.1566 100.067 34.1566 99.2634V94.7847H33.0049V93.3344H34.1566V92.0263L36.3177 91.1377V93.3344H37.6613V94.7847H36.3177V99.2705C36.3177 99.6686 36.3604 99.9245 36.4457 100.045C36.531 100.166 36.7087 100.23 36.986 100.23C37.2277 100.23 37.4552 100.202 37.6613 100.173V101.588Z" fill="white"/>
<path d="M38.9824 89.8584H41.1507V91.8063H38.9824V89.8584ZM38.9895 93.3347H41.1507V101.517H38.9895V93.3347Z" fill="white"/>
<path d="M45.8008 94.7838V101.516H43.6397V94.7838H42.4951V93.3336H43.6397V92.0113C43.6397 91.2151 43.8245 90.6179 44.1871 90.234C44.5568 89.8501 45.1184 89.6582 45.879 89.6582C46.2843 89.6582 46.6681 89.6795 47.0236 89.7222V91.1298H46.7179C46.3838 91.1227 46.1492 91.1867 46.007 91.3217C45.8648 91.4568 45.8008 91.6843 45.8008 92.0113V93.3336H47.0236V94.7838H45.8008Z" fill="white"/>
<path d="M48.4238 89.8584H50.5921V91.8063H48.4238V89.8584ZM48.4309 93.3347H50.5921V101.517H48.4309V93.3347Z" fill="white"/>
<path d="M57.8516 98.4529V98.9364C57.8658 99.8605 57.6384 100.55 57.1692 101.005C56.7 101.46 55.9819 101.695 55.0293 101.695C54.0767 101.695 53.3089 101.453 52.8682 100.962C52.4274 100.472 52.207 99.6828 52.207 98.5809V96.2847C52.207 95.1828 52.4274 94.3937 52.8682 93.9031C53.3089 93.4126 54.027 93.1709 55.0293 93.1709C56.0317 93.1709 56.7426 93.3984 57.1976 93.8605C57.6384 94.3012 57.8587 94.9979 57.8587 95.9505V96.2918H55.7189V96.0501C55.7402 95.5667 55.6976 95.2041 55.5909 94.9695C55.4843 94.7278 55.3066 94.614 55.0649 94.614C54.7947 94.614 54.617 94.7207 54.5104 94.9411C54.4037 95.1614 54.354 95.5524 54.354 96.1212V98.4174C54.354 99.1638 54.3966 99.6615 54.489 99.9032C54.5744 100.145 54.7592 100.259 55.0364 100.259C55.3137 100.259 55.4914 100.159 55.5981 99.953C55.7047 99.7468 55.7473 99.4127 55.726 98.9435V98.46H57.8658L57.8516 98.4529Z" fill="white"/>
<path d="M61.0921 101.688C60.4665 101.688 59.9831 101.496 59.6276 101.113C59.2722 100.729 59.1016 100.195 59.1016 99.5201V99.0225C59.1016 98.0485 59.3433 97.3661 59.8196 96.968C60.2959 96.5698 61.1205 96.3708 62.2935 96.3708H62.9547V95.3684C62.9547 95.0627 62.8978 94.8352 62.7841 94.6788C62.6703 94.5224 62.4997 94.4442 62.2722 94.4442C61.9878 94.4442 61.7817 94.5295 61.6466 94.6931C61.5115 94.8566 61.4547 95.1125 61.4689 95.4395V95.6812H59.3077V95.4395C59.2935 94.6433 59.521 94.0675 59.9902 93.6978C60.4523 93.3281 61.1916 93.1504 62.2082 93.1504C63.2248 93.1504 63.9215 93.3566 64.3978 93.7618C64.8741 94.167 65.1087 94.7997 65.1087 95.6599V101.511H63.0187V100.835L62.9262 100.942C62.521 101.44 61.9096 101.681 61.0921 101.681V101.688ZM62.9547 97.6504H62.6703C62.1585 97.6504 61.7959 97.7571 61.5897 97.9774C61.3836 98.1978 61.2698 98.5675 61.2698 99.1007V99.5983C61.2698 99.8542 61.3338 100.053 61.4689 100.195C61.604 100.338 61.7888 100.409 62.0163 100.409C62.3291 100.409 62.5637 100.274 62.713 99.9964C62.8694 99.7192 62.9476 99.3139 62.9476 98.7666V97.6433L62.9547 97.6504Z" fill="white"/>
<path d="M71.009 101.588C70.5895 101.652 70.1061 101.688 69.5658 101.688C68.8834 101.688 68.3715 101.481 68.0232 101.076C67.6819 100.671 67.5042 100.067 67.5042 99.2634V94.7847H66.3525V93.3344H67.5042V92.0263L69.6654 91.1377V93.3344H71.009V94.7847H69.6654V99.2705C69.6654 99.6686 69.708 99.9245 69.7933 100.045C69.8786 100.166 70.0564 100.23 70.3336 100.23C70.5753 100.23 70.8028 100.202 71.009 100.173V101.588Z" fill="white"/>
<path d="M72.332 89.8584H74.5003V91.8063H72.332V89.8584ZM72.3391 93.3347H74.5003V101.517H72.3391V93.3347Z" fill="white"/>
<path d="M76.9392 100.955C76.47 100.464 76.2354 99.675 76.2354 98.5731V96.2769C76.2354 95.1749 76.47 94.3858 76.9392 93.8953C77.4084 93.4048 78.1761 93.1631 79.2354 93.1631C80.2946 93.1631 81.0624 93.4048 81.5316 93.8953C82.0008 94.3858 82.2425 95.1749 82.2425 96.2769V98.5731C82.2425 99.675 82.0079 100.464 81.5316 100.955C81.0624 101.445 80.2946 101.687 79.2354 101.687C78.1761 101.687 77.4084 101.445 76.9392 100.955ZM79.925 100.009C80.0387 99.7461 80.0956 99.2129 80.0956 98.4025V96.1062C80.0956 95.502 80.0316 95.0754 79.8965 94.8266C79.7686 94.5778 79.5411 94.4569 79.2283 94.4569C78.9155 94.4569 78.688 94.5778 78.56 94.8266C78.4321 95.0754 78.3681 95.502 78.3681 96.1062V98.4025C78.3681 99.2129 78.4249 99.7461 78.5316 100.009C78.6453 100.272 78.8728 100.4 79.2212 100.4C79.5695 100.4 79.8041 100.272 79.9179 100.009H79.925Z" fill="white"/>
<path d="M83.9463 93.3337H86.1074V94.1015C86.5766 93.4759 87.2449 93.1631 88.1122 93.1631C88.7307 93.1631 89.1928 93.3408 89.4985 93.7034C89.8042 94.0588 89.9535 94.5991 89.9535 95.3242V101.523H87.7923V95.5731C87.7923 95.2389 87.7354 94.9972 87.6146 94.8479C87.4937 94.6986 87.3018 94.6204 87.0387 94.6204C86.6762 94.6204 86.4273 94.7626 86.2852 95.047C86.143 95.3313 86.0861 95.8219 86.1074 96.5115V101.516H83.9463V93.3337Z" fill="white"/>
</svg>
